<?xml version="1.0" encoding="utf-8"?>
<!-- Generator: Adobe Illustrator 21.1.0, SVG Export Plug-In . SVG Version: 6.00 Build 0)  -->
<svg version="1.1" xmlns="http://www.w3.org/2000/svg" xmlns:xlink="http://www.w3.org/1999/xlink" x="0px" y="0px"
	 viewBox="0 0 150 150" style="enable-background:new 0 0 150 150;" xml:space="preserve">
<style type="text/css">
	.st0{fill:#E6E6E6;}
	.st1{fill:#FFFFFF;}
	.st2{fill:none;stroke:#FCDFE0;stroke-width:2;stroke-linecap:round;stroke-linejoin:round;stroke-miterlimit:10;}
	.st3{fill:#F7A0A3;}
	.st4{fill:#F26065;}
	.st5{fill:none;stroke:#EF4046;stroke-width:2;stroke-linecap:round;stroke-linejoin:round;stroke-miterlimit:10;}
	.st6{fill:#FCDFE0;}
	.st7{fill:#FABFC1;}
	.st8{fill:url(#SVGID_1_);}
	.st9{fill:#F48084;}
	.st10{fill:url(#SVGID_2_);}
	.st11{fill:#EF4046;}
	.st12{fill:url(#SVGID_3_);}
	.st13{fill:none;stroke:#EF4046;stroke-width:3;stroke-linecap:round;stroke-linejoin:round;stroke-miterlimit:10;}
	.st14{fill:#C7353A;}
	.st15{fill:#9F2B2F;}
	.st16{fill:#782023;}
	.st17{fill:#501517;}
	.st18{fill:#280B0C;}
	.st19{fill:none;stroke:#E6E6E6;stroke-width:2;stroke-linecap:round;stroke-linejoin:round;stroke-miterlimit:10;}
	.st20{fill:#CCCCCC;}
	.st21{fill:#808080;}
	.st22{fill:none;stroke:#000000;stroke-width:2;stroke-linecap:round;stroke-linejoin:round;stroke-miterlimit:10;}
	.st23{fill:#999999;}
	.st24{fill:url(#SVGID_4_);}
	.st25{fill:none;stroke:#501517;stroke-width:2;stroke-linecap:round;stroke-linejoin:round;stroke-miterlimit:10;}
	.st26{fill:url(#SVGID_5_);}
	.st27{fill:#FFFFFF;stroke:#000000;stroke-width:2;stroke-linecap:round;stroke-linejoin:round;stroke-miterlimit:10;}
	.st28{fill:url(#SVGID_6_);}
	.st29{fill:url(#SVGID_7_);}
	.st30{fill:#ED1C24;}
	.st31{fill:#8CC63F;}
	.st32{fill:#39B54A;}
	.st33{fill:#006837;}
	.st34{fill:#F15A24;}
	.st35{fill:#009245;}
	.st36{fill:url(#SVGID_8_);}
	.st37{fill:url(#SVGID_9_);}
	.st38{fill:#B3B3B3;}
	.st39{fill:#F2F2F2;}
	.st40{fill:#F0F0F0;}
	.st41{fill:#8C8C8C;}
	.st42{fill:#666666;}
	.st43{fill:#D9D9D9;}
	.st44{fill:#EDEDED;}
	.st45{fill:url(#SVGID_10_);}
	.st46{fill:url(#SVGID_11_);}
	.st47{fill:url(#SVGID_12_);}
	.st48{opacity:0.2;fill:#EF4046;}
	.st49{fill:url(#SVGID_13_);}
	.st50{fill:url(#SVGID_14_);}
	.st51{fill:url(#SVGID_15_);}
	.st52{fill:url(#SVGID_16_);}
	.st53{fill:#4D4D4D;}
	.st54{fill:url(#SVGID_17_);}
	.st55{fill:url(#SVGID_18_);}
	.st56{fill:url(#SVGID_19_);}
	.st57{fill:url(#SVGID_20_);}
	.st58{fill:url(#SVGID_21_);}
	.st59{fill:url(#SVGID_22_);}
	.st60{fill:none;stroke:#000000;stroke-width:1.5;stroke-linecap:round;stroke-linejoin:round;stroke-miterlimit:10;}
	.st61{fill:url(#SVGID_23_);}
	.st62{fill:url(#SVGID_24_);}
	.st63{fill:none;stroke:#000000;stroke-linecap:round;stroke-linejoin:round;stroke-miterlimit:10;}
	.st64{fill:url(#SVGID_25_);}
	.st65{fill:url(#SVGID_26_);}
	.st66{clip-path:url(#SVGID_28_);}
	.st67{fill:#EC4048;}
	.st68{clip-path:url(#SVGID_30_);}
	.st69{clip-path:url(#SVGID_32_);}
	.st70{clip-path:url(#SVGID_34_);}
	.st71{clip-path:url(#SVGID_36_);}
	.st72{display:none;fill:#FABFC1;}
	.st73{clip-path:url(#SVGID_38_);}
	.st74{fill:url(#SVGID_39_);}
	.st75{fill:url(#SVGID_40_);}
	.st76{fill:#FAFAFA;}
	.st77{fill:none;stroke:#FFFFFF;stroke-miterlimit:10;stroke-dasharray:3,3;}
	.st78{fill:none;stroke:#EF4046;stroke-width:2;stroke-linecap:round;stroke-miterlimit:10;}
	.st79{opacity:0.1;}
	.st80{opacity:0.5;fill:#FFFFFF;}
	
		.st81{fill:none;stroke:#FFFFFF;stroke-width:3;stroke-linecap:round;stroke-linejoin:round;stroke-miterlimit:10;stroke-dasharray:0,5;}
	.st82{display:none;fill:none;stroke:#000000;stroke-width:1.5;stroke-linecap:round;stroke-linejoin:round;stroke-miterlimit:10;}
	.st83{fill:#C7353A;stroke:#000000;stroke-width:1.5;stroke-linecap:round;stroke-linejoin:round;stroke-miterlimit:10;}
	.st84{fill:#EF4046;stroke:#000000;stroke-width:1.5;stroke-linecap:round;stroke-linejoin:round;stroke-miterlimit:10;}
	.st85{fill:#C7353A;stroke:#000000;stroke-width:1.5;stroke-miterlimit:10;}
	.st86{fill:#EF4046;stroke:#000000;stroke-width:1.5;stroke-miterlimit:10;}
	.st87{fill:#FFFFFF;stroke:#000000;stroke-width:1.5;stroke-linecap:round;stroke-linejoin:round;stroke-miterlimit:10;}
	.st88{fill:#9F2B2F;stroke:#000000;stroke-width:1.5;stroke-linecap:round;stroke-linejoin:round;stroke-miterlimit:10;}
	.st89{opacity:0.5;fill:#C7353A;}
	.st90{fill:none;stroke:#000000;stroke-width:1.5;stroke-linejoin:round;stroke-miterlimit:10;}
	.st91{opacity:0.5;}
	.st92{fill:#EBEBEB;}
	.st93{fill:#B3B3B3;stroke:#000000;stroke-width:1.5;stroke-linejoin:round;stroke-miterlimit:10;}
	.st94{fill:#FFFFFF;stroke:#000000;stroke-width:1.5;stroke-linejoin:round;stroke-miterlimit:10;}
	.st95{fill:#EF4046;stroke:#000000;stroke-width:1.5;stroke-linejoin:round;stroke-miterlimit:10;}
	.st96{fill:#E6E6E6;stroke:#000000;stroke-width:1.5;stroke-linejoin:round;stroke-miterlimit:10;}
	.st97{fill:#C7353A;stroke:#000000;stroke-miterlimit:10;}
	.st98{fill:#EF4046;stroke:#000000;stroke-miterlimit:10;}
	.st99{fill:#C7353A;stroke:#000000;stroke-linecap:round;stroke-linejoin:round;stroke-miterlimit:10;}
	.st100{fill:#EF4046;stroke:#000000;stroke-linecap:round;stroke-linejoin:round;stroke-miterlimit:10;}
	.st101{fill:#FFFFFF;stroke:#000000;stroke-linecap:round;stroke-linejoin:round;stroke-miterlimit:10;}
	.st102{fill:none;stroke:#000000;stroke-linejoin:round;stroke-miterlimit:10;}
	.st103{fill:#B3B3B3;stroke:#000000;stroke-linejoin:round;stroke-miterlimit:10;}
	.st104{fill:#FFFFFF;stroke:#000000;stroke-linejoin:round;stroke-miterlimit:10;}
	.st105{fill:#EF4046;stroke:#000000;stroke-linejoin:round;stroke-miterlimit:10;}
	.st106{fill:#E6E6E6;stroke:#000000;stroke-linejoin:round;stroke-miterlimit:10;}
	.st107{display:none;fill:none;stroke:#000000;stroke-miterlimit:10;}
	.st108{fill:#EF4046;stroke:#999999;stroke-width:1.5;stroke-linecap:round;stroke-linejoin:round;stroke-miterlimit:10;}
	.st109{fill:none;stroke:#999999;stroke-width:1.5;stroke-miterlimit:10;}
	.st110{fill:#E6E6E6;stroke:#999999;stroke-width:1.5;stroke-linejoin:round;stroke-miterlimit:10;}
	.st111{fill:#F7A0A3;stroke:#999999;stroke-width:1.5;stroke-linecap:round;stroke-linejoin:round;stroke-miterlimit:10;}
	.st112{fill:#E6E6E6;stroke:#666666;stroke-width:1.5;stroke-linejoin:round;stroke-miterlimit:10;}
	.st113{fill:#EF4046;stroke:#666666;stroke-width:1.5;stroke-linecap:round;stroke-linejoin:round;stroke-miterlimit:10;}
	.st114{fill:none;stroke:#666666;stroke-width:1.5;stroke-miterlimit:10;}
	.st115{fill:#E6E6E6;stroke:#4D4D4D;stroke-width:1.5;stroke-linejoin:round;stroke-miterlimit:10;}
	.st116{fill:#EF4046;stroke:#4D4D4D;stroke-width:1.5;stroke-linecap:round;stroke-linejoin:round;stroke-miterlimit:10;}
	.st117{fill:none;stroke:#4D4D4D;stroke-width:1.5;stroke-miterlimit:10;}
	.st118{fill:none;stroke:#000000;stroke-width:1.5;stroke-miterlimit:10;}
	.st119{fill:none;stroke:#EF4046;stroke-width:1.5;stroke-miterlimit:10;}
	.st120{fill:#F7A0A3;stroke:#EF4046;stroke-width:1.5;stroke-linejoin:round;stroke-miterlimit:10;}
	.st121{fill:none;stroke:#B33035;stroke-width:1.5;stroke-linecap:round;stroke-linejoin:round;stroke-miterlimit:10;}
	.st122{fill:none;stroke:#782023;stroke-width:1.5;stroke-linecap:round;stroke-linejoin:round;stroke-miterlimit:10;}
	.st123{fill:none;stroke:#3C1012;stroke-width:1.5;stroke-linecap:round;stroke-linejoin:round;stroke-miterlimit:10;}
	.st124{fill:#F8CCCD;}
	.st125{fill:#F6D9DA;}
	.st126{fill:#F4E5E6;}
	.st127{fill:#FDE7E8;}
	.st128{fill:#FEEFF0;}
	.st129{fill:#FEF7F7;}
	.st130{fill:#EA9396;}
	.st131{fill:#E0A6A8;}
	.st132{fill:#D6B9BA;}
	.st133{fill:#EAD5D5;}
	.st134{fill:#EFC3C4;}
	.st135{fill:#F3B2B4;}
	.st136{clip-path:url(#SVGID_42_);}
	.st137{clip-path:url(#SVGID_44_);}
	.st138{clip-path:url(#SVGID_46_);}
	.st139{fill:#F7A0A3;stroke:#C7353A;stroke-linejoin:round;stroke-miterlimit:10;}
	.st140{fill:none;stroke:#C7353A;stroke-miterlimit:10;}
	.st141{fill:none;stroke:#B33035;stroke-linecap:round;stroke-linejoin:round;stroke-miterlimit:10;}
	.st142{fill:none;stroke:#782023;stroke-linecap:round;stroke-linejoin:round;stroke-miterlimit:10;}
	.st143{fill:none;stroke:#3C1012;stroke-linecap:round;stroke-linejoin:round;stroke-miterlimit:10;}
	.st144{fill:none;stroke:#000000;stroke-miterlimit:10;}
	.st145{clip-path:url(#SVGID_48_);}
	.st146{clip-path:url(#SVGID_50_);}
	.st147{clip-path:url(#SVGID_52_);}
	.st148{clip-path:url(#SVGID_54_);}
	.st149{clip-path:url(#SVGID_56_);}
	.st150{clip-path:url(#SVGID_58_);}
	.st151{clip-path:url(#SVGID_60_);}
	.st152{clip-path:url(#SVGID_62_);}
	.st153{clip-path:url(#SVGID_64_);}
	.st154{clip-path:url(#SVGID_66_);}
	.st155{fill:#333333;}
	.st156{fill:#B3B3B3;stroke:#000000;stroke-width:1.5;stroke-linecap:round;stroke-linejoin:round;stroke-miterlimit:10;}
	.st157{fill:#808080;stroke:#000000;stroke-width:1.5;stroke-linecap:round;stroke-linejoin:round;stroke-miterlimit:10;}
	.st158{fill:#CCCCCC;stroke:#000000;stroke-width:1.5;stroke-linecap:round;stroke-linejoin:round;stroke-miterlimit:10;}
	.st159{fill:#F2F2F2;stroke:#000000;stroke-width:1.5;stroke-linecap:round;stroke-linejoin:round;stroke-miterlimit:10;}
	.st160{fill:none;}
	.st161{fill:none;stroke:#FFFFFF;stroke-linecap:round;stroke-miterlimit:10;}
	.st162{fill:#B3B3B3;stroke:#000000;stroke-linecap:round;stroke-linejoin:round;stroke-miterlimit:10;}
	.st163{fill:#808080;stroke:#000000;stroke-linecap:round;stroke-linejoin:round;stroke-miterlimit:10;}
	.st164{fill:#CCCCCC;stroke:#000000;stroke-linecap:round;stroke-linejoin:round;stroke-miterlimit:10;}
	.st165{fill:#F2F2F2;stroke:#000000;stroke-linecap:round;stroke-linejoin:round;stroke-miterlimit:10;}
</style>
<g id="INCOME_icon">
</g>
<g id="CRM_icon">
	<g>
		<circle class="st7" cx="81.6" cy="67.8" r="62.5"/>
		<g>
			<path class="st39" d="M128.9,34.7v100.6c0,3.1-2.5,5.7-5.7,5.7H51.6c-3.1,0-5.7-2.5-5.7-5.7V34.7c0-3.1,2.5-5.7,5.7-5.7h71.6
				C126.4,29,128.9,31.5,128.9,34.7z"/>
			<path class="st0" d="M66.6,136c-3.1,0-5.7-2.5-5.7-5.7V32h-6.3c-3.1,0-5.7,2.5-5.7,5.7v94.6c0,3.1,2.5,5.7,5.7,5.7h65.6
				c1.7,0,3.3-0.8,4.3-2H66.6z"/>
			<path class="st76" d="M120.3,32H54.6c-2.2,0-4,1.2-5,3h53.6c3.1,0,5.7,2.5,5.7,5.7V138h11.4c3.1,0,5.7-2.5,5.7-5.7V37.7
				C125.9,34.5,123.4,32,120.3,32z"/>
			<path class="st63" d="M128.9,34.7v100.6c0,3.1-2.5,5.7-5.7,5.7H51.6c-3.1,0-5.7-2.5-5.7-5.7V34.7c0-3.1,2.5-5.7,5.7-5.7h71.6
				C126.4,29,128.9,31.5,128.9,34.7z"/>
			<circle class="st11" cx="61.4" cy="46.9" r="4"/>
			<path class="st11" d="M61.4,63.1c2.9,0,5.6-0.4,8.1-1.1c-0.4-5.2-3.9-9.3-8.1-9.3s-7.7,4.1-8.1,9.3
				C55.8,62.7,58.5,63.1,61.4,63.1z"/>
			<g>
				<path class="st53" d="M89,45.5H74.5c-0.6,0-1.2-0.5-1.2-1.2l0,0c0-0.6,0.5-1.2,1.2-1.2H89c0.6,0,1.2,0.5,1.2,1.2l0,0
					C90.1,45,89.6,45.5,89,45.5z"/>
				<path class="st53" d="M86.9,56.3H74.5c-0.6,0-1.2-0.5-1.2-1.2v0c0-0.6,0.5-1.2,1.2-1.2h12.4c0.6,0,1.2,0.5,1.2,1.2v0
					C88.1,55.8,87.5,56.3,86.9,56.3z"/>
				<g>
					<path class="st53" d="M74.5,61.7L74.5,61.7c-0.6,0-1.1-0.5-1.1-1.1v0c0-0.6,0.5-1.1,1.1-1.1l0,0c0.6,0,1.1,0.5,1.1,1.1v0
						C75.6,61.2,75.1,61.7,74.5,61.7z"/>
					<path class="st53" d="M78.4,61.7L78.4,61.7c-0.6,0-1.1-0.5-1.1-1.1v0c0-0.6,0.5-1.1,1.1-1.1l0,0c0.6,0,1.1,0.5,1.1,1.1v0
						C79.6,61.2,79.1,61.7,78.4,61.7z"/>
					<path class="st53" d="M82.4,61.7L82.4,61.7c-0.6,0-1.1-0.5-1.1-1.1v0c0-0.6,0.5-1.1,1.1-1.1h0c0.6,0,1.1,0.5,1.1,1.1v0
						C83.5,61.2,83,61.7,82.4,61.7z"/>
				</g>
				<path class="st53" d="M83.2,50.9h-8.7c-0.6,0-1.2-0.5-1.2-1.2v0c0-0.6,0.5-1.2,1.2-1.2h8.7c0.6,0,1.2,0.5,1.2,1.2v0
					C84.4,50.4,83.9,50.9,83.2,50.9z"/>
			</g>
			<path class="st1" d="M120.3,66H98.6c-1.4,0-2.6-1.2-2.6-2.6V40.6c0-1.4,1.2-2.6,2.6-2.6h21.8c1.4,0,2.6,1.2,2.6,2.6v22.8
				C122.9,64.8,121.8,66,120.3,66z"/>
			<path class="st23" d="M104.9,66h-5V56c0-0.6,0.4-1,1-1h3c0.6,0,1,0.5,1,1V66z"/>
			<path class="st38" d="M118.9,66h-5V49.1c0-0.6,0.5-1.1,1.1-1.1h3c0.5,0,1,0.4,1,1V66z"/>
			<path class="st20" d="M111.9,66h-5V42c0-0.6,0.4-1,1-1h3c0.6,0,1,0.5,1,1V66z"/>
			<path class="st23" d="M121,79H53.9c-1.1,0-2-0.9-2-2V74c0-1.1,0.9-2,2-2H121c1.1,0,2,0.9,2,2V77C122.9,78.1,122.1,79,121,79z"/>
			<path class="st1" d="M121,135H53.9c-1.1,0-2-0.9-2-2V87c0-1.1,0.9-2,2-2H121c1.1,0,2,0.9,2,2V133C122.9,134.1,122.1,135,121,135z
				"/>
			<polygon class="st20" points="117.4,90.5 117.4,131 57.4,131 57.4,120.5 67.4,102.5 77.4,113.5 87.4,100.5 97.4,97.5 
				107.4,102.5 			"/>
			<g>
				<line class="st77" x1="77.4" y1="131" x2="77.4" y2="114"/>
				<line class="st77" x1="67.4" y1="105" x2="67.4" y2="131"/>
				<line class="st77" x1="87.4" y1="131" x2="87.4" y2="101"/>
				<line class="st77" x1="97.4" y1="131" x2="97.4" y2="98"/>
				<line class="st77" x1="107.4" y1="131" x2="107.4" y2="102"/>
			</g>
			<polyline class="st78" points="57.4,120.5 67.4,102.5 77.4,113.5 87.4,100.5 97.4,97.5 107.4,102.5 117.4,90.5 			"/>
		</g>
		<g>
			<g>
				<path class="st9" d="M37.4,98.7l-31.8,3.9C3.5,85,16,69.1,33.5,66.9c1.2-0.1,2.7-0.2,3.9-0.2V98.7z"/>
				<path class="st14" d="M37.4,98.7L33,130.3c-14.7-2.1-25.5-13.1-27.3-27.8L37.4,98.7z"/>
				<path class="st9" d="M37.4,98.7l29.7,12c-5.6,13.7-19.4,21.8-34.1,19.7L37.4,98.7z"/>
				<path class="st11" d="M37.4,98.7l28.8-14c4.1,8.5,4.4,17.3,0.9,26L37.4,98.7z"/>
				<path class="st4" d="M37.4,98.7l16-27.7c5.8,3.4,9.8,7.6,12.8,13.7L37.4,98.7z"/>
				<path class="st7" d="M37.4,98.7l5-31.6c4,0.6,7.5,1.9,11,3.9L37.4,98.7z"/>
				<path class="st15" d="M37.4,98.7v-32c1.9,0,3.2,0.1,5,0.4L37.4,98.7z"/>
			</g>
			<g>
				<path class="st63" d="M37.4,98.7l-31.8,3.9C3.5,85,16,69.1,33.5,66.9c1.2-0.1,2.7-0.2,3.9-0.2V98.7z"/>
				<path class="st63" d="M37.4,98.7L33,130.3c-14.7-2.1-25.5-13.1-27.3-27.8L37.4,98.7z"/>
				<path class="st63" d="M37.4,98.7l29.7,12c-5.6,13.7-19.4,21.8-34.1,19.7L37.4,98.7z"/>
				<path class="st63" d="M37.4,98.7l28.8-14c4.1,8.5,4.4,17.3,0.9,26L37.4,98.7z"/>
				<path class="st63" d="M37.4,98.7l16-27.7c5.8,3.4,9.8,7.6,12.8,13.7L37.4,98.7z"/>
				<path class="st63" d="M37.4,98.7l5-31.6c4,0.6,7.5,1.9,11,3.9L37.4,98.7z"/>
				<path class="st63" d="M37.4,98.7v-32c1.9,0,3.2,0.1,5,0.4L37.4,98.7z"/>
			</g>
			<path class="st79" d="M40,128.3c-14.7-2.1-25.5-13.1-27.3-27.8c-1.4-11.4,3.4-22.2,11.8-28.9c-11,5.7-17.8,17.7-16.2,30.7
				c1.7,14,12,24.4,25.9,26.4c3.2,0.4,6.3,0.4,9.3-0.1C42.3,128.6,41.2,128.5,40,128.3z"/>
			<path class="st80" d="M63.9,85.8c-2.7-5.6-6.4-9.5-11.7-12.6c-3.2-1.9-6.4-3-10.1-3.6c-1.7-0.3-2.9-0.4-4.6-0.4
				c-1.1,0-2.5,0.1-3.6,0.2c-0.4,0.1-0.8,0.1-1.2,0.2c1.8,0,3,0.1,4.8,0.4c4,0.6,7.5,1.9,11,3.9c5.8,3.4,9.8,7.6,12.8,13.7
				c4.1,8.5,4.4,17.3,0.9,26c-0.4,1-0.9,2-1.4,3c1.6-2.1,3-4.4,4-7C67.9,101.6,67.7,93.6,63.9,85.8z"/>
		</g>
	</g>
</g>
<g id="SUPPORT_icon">
</g>
<g id="NEW_CUSTOMER_icon">
</g>
<g id="PARTNERS_EXPERIENCE_icon">
</g>
<g id="COST_REDUCE_icon">
</g>
</svg>
