<?xml version="1.0" encoding="utf-8"?>
<!-- Generator: Adobe Illustrator 21.1.0, SVG Export Plug-In . SVG Version: 6.00 Build 0)  -->
<svg version="1.1" xmlns="http://www.w3.org/2000/svg" xmlns:xlink="http://www.w3.org/1999/xlink" x="0px" y="0px"
	 viewBox="0 0 150 150" style="enable-background:new 0 0 150 150;" xml:space="preserve">
<style type="text/css">
	.st0{fill:#E6E6E6;}
	.st1{fill:#FFFFFF;}
	.st2{fill:none;stroke:#FCDFE0;stroke-width:2;stroke-linecap:round;stroke-linejoin:round;stroke-miterlimit:10;}
	.st3{fill:#F7A0A3;}
	.st4{fill:#F26065;}
	.st5{fill:none;stroke:#EF4046;stroke-width:2;stroke-linecap:round;stroke-linejoin:round;stroke-miterlimit:10;}
	.st6{fill:#FCDFE0;}
	.st7{fill:#FABFC1;}
	.st8{fill:url(#SVGID_1_);}
	.st9{fill:#F48084;}
	.st10{fill:url(#SVGID_2_);}
	.st11{fill:#EF4046;}
	.st12{fill:url(#SVGID_3_);}
	.st13{fill:none;stroke:#EF4046;stroke-width:3;stroke-linecap:round;stroke-linejoin:round;stroke-miterlimit:10;}
	.st14{fill:#C7353A;}
	.st15{fill:#9F2B2F;}
	.st16{fill:#782023;}
	.st17{fill:#501517;}
	.st18{fill:#280B0C;}
	.st19{fill:none;stroke:#E6E6E6;stroke-width:2;stroke-linecap:round;stroke-linejoin:round;stroke-miterlimit:10;}
	.st20{fill:#CCCCCC;}
	.st21{fill:#808080;}
	.st22{fill:none;stroke:#000000;stroke-width:2;stroke-linecap:round;stroke-linejoin:round;stroke-miterlimit:10;}
	.st23{fill:#999999;}
	.st24{fill:url(#SVGID_4_);}
	.st25{fill:none;stroke:#501517;stroke-width:2;stroke-linecap:round;stroke-linejoin:round;stroke-miterlimit:10;}
	.st26{fill:url(#SVGID_5_);}
	.st27{fill:#FFFFFF;stroke:#000000;stroke-width:2;stroke-linecap:round;stroke-linejoin:round;stroke-miterlimit:10;}
	.st28{fill:url(#SVGID_6_);}
	.st29{fill:url(#SVGID_7_);}
	.st30{fill:#ED1C24;}
	.st31{fill:#8CC63F;}
	.st32{fill:#39B54A;}
	.st33{fill:#006837;}
	.st34{fill:#F15A24;}
	.st35{fill:#009245;}
	.st36{fill:url(#SVGID_8_);}
	.st37{fill:url(#SVGID_9_);}
	.st38{fill:#B3B3B3;}
	.st39{fill:#F2F2F2;}
	.st40{fill:#F0F0F0;}
	.st41{fill:#8C8C8C;}
	.st42{fill:#666666;}
	.st43{fill:#D9D9D9;}
	.st44{fill:#EDEDED;}
	.st45{fill:url(#SVGID_10_);}
	.st46{fill:url(#SVGID_11_);}
	.st47{fill:url(#SVGID_12_);}
	.st48{opacity:0.2;fill:#EF4046;}
	.st49{fill:url(#SVGID_13_);}
	.st50{fill:url(#SVGID_14_);}
	.st51{fill:url(#SVGID_15_);}
	.st52{fill:url(#SVGID_16_);}
	.st53{fill:#4D4D4D;}
	.st54{fill:url(#SVGID_17_);}
	.st55{fill:url(#SVGID_18_);}
	.st56{fill:url(#SVGID_19_);}
	.st57{fill:url(#SVGID_20_);}
	.st58{fill:url(#SVGID_21_);}
	.st59{fill:url(#SVGID_22_);}
	.st60{fill:none;stroke:#000000;stroke-width:1.5;stroke-linecap:round;stroke-linejoin:round;stroke-miterlimit:10;}
	.st61{fill:url(#SVGID_23_);}
	.st62{fill:url(#SVGID_24_);}
	.st63{fill:none;stroke:#000000;stroke-linecap:round;stroke-linejoin:round;stroke-miterlimit:10;}
	.st64{fill:url(#SVGID_25_);}
	.st65{fill:url(#SVGID_26_);}
	.st66{clip-path:url(#SVGID_28_);}
	.st67{fill:#EC4048;}
	.st68{clip-path:url(#SVGID_30_);}
	.st69{clip-path:url(#SVGID_32_);}
	.st70{clip-path:url(#SVGID_34_);}
	.st71{clip-path:url(#SVGID_36_);}
	.st72{display:none;fill:#FABFC1;}
	.st73{clip-path:url(#SVGID_38_);}
	.st74{fill:url(#SVGID_39_);}
	.st75{fill:url(#SVGID_40_);}
	.st76{fill:#FAFAFA;}
	.st77{fill:none;stroke:#FFFFFF;stroke-miterlimit:10;stroke-dasharray:3,3;}
	.st78{fill:none;stroke:#EF4046;stroke-width:2;stroke-linecap:round;stroke-miterlimit:10;}
	.st79{opacity:0.1;}
	.st80{opacity:0.5;fill:#FFFFFF;}
	
		.st81{fill:none;stroke:#FFFFFF;stroke-width:3;stroke-linecap:round;stroke-linejoin:round;stroke-miterlimit:10;stroke-dasharray:0,5;}
	.st82{display:none;fill:none;stroke:#000000;stroke-width:1.5;stroke-linecap:round;stroke-linejoin:round;stroke-miterlimit:10;}
	.st83{fill:#C7353A;stroke:#000000;stroke-width:1.5;stroke-linecap:round;stroke-linejoin:round;stroke-miterlimit:10;}
	.st84{fill:#EF4046;stroke:#000000;stroke-width:1.5;stroke-linecap:round;stroke-linejoin:round;stroke-miterlimit:10;}
	.st85{fill:#C7353A;stroke:#000000;stroke-width:1.5;stroke-miterlimit:10;}
	.st86{fill:#EF4046;stroke:#000000;stroke-width:1.5;stroke-miterlimit:10;}
	.st87{fill:#FFFFFF;stroke:#000000;stroke-width:1.5;stroke-linecap:round;stroke-linejoin:round;stroke-miterlimit:10;}
	.st88{fill:#9F2B2F;stroke:#000000;stroke-width:1.5;stroke-linecap:round;stroke-linejoin:round;stroke-miterlimit:10;}
	.st89{opacity:0.5;fill:#C7353A;}
	.st90{fill:none;stroke:#000000;stroke-width:1.5;stroke-linejoin:round;stroke-miterlimit:10;}
	.st91{opacity:0.5;}
	.st92{fill:#EBEBEB;}
	.st93{fill:#B3B3B3;stroke:#000000;stroke-width:1.5;stroke-linejoin:round;stroke-miterlimit:10;}
	.st94{fill:#FFFFFF;stroke:#000000;stroke-width:1.5;stroke-linejoin:round;stroke-miterlimit:10;}
	.st95{fill:#EF4046;stroke:#000000;stroke-width:1.5;stroke-linejoin:round;stroke-miterlimit:10;}
	.st96{fill:#E6E6E6;stroke:#000000;stroke-width:1.5;stroke-linejoin:round;stroke-miterlimit:10;}
	.st97{fill:#C7353A;stroke:#000000;stroke-miterlimit:10;}
	.st98{fill:#EF4046;stroke:#000000;stroke-miterlimit:10;}
	.st99{fill:#C7353A;stroke:#000000;stroke-linecap:round;stroke-linejoin:round;stroke-miterlimit:10;}
	.st100{fill:#EF4046;stroke:#000000;stroke-linecap:round;stroke-linejoin:round;stroke-miterlimit:10;}
	.st101{fill:#FFFFFF;stroke:#000000;stroke-linecap:round;stroke-linejoin:round;stroke-miterlimit:10;}
	.st102{fill:none;stroke:#000000;stroke-linejoin:round;stroke-miterlimit:10;}
	.st103{fill:#B3B3B3;stroke:#000000;stroke-linejoin:round;stroke-miterlimit:10;}
	.st104{fill:#FFFFFF;stroke:#000000;stroke-linejoin:round;stroke-miterlimit:10;}
	.st105{fill:#EF4046;stroke:#000000;stroke-linejoin:round;stroke-miterlimit:10;}
	.st106{fill:#E6E6E6;stroke:#000000;stroke-linejoin:round;stroke-miterlimit:10;}
	.st107{display:none;fill:none;stroke:#000000;stroke-miterlimit:10;}
	.st108{fill:#EF4046;stroke:#999999;stroke-width:1.5;stroke-linecap:round;stroke-linejoin:round;stroke-miterlimit:10;}
	.st109{fill:none;stroke:#999999;stroke-width:1.5;stroke-miterlimit:10;}
	.st110{fill:#E6E6E6;stroke:#999999;stroke-width:1.5;stroke-linejoin:round;stroke-miterlimit:10;}
	.st111{fill:#F7A0A3;stroke:#999999;stroke-width:1.5;stroke-linecap:round;stroke-linejoin:round;stroke-miterlimit:10;}
	.st112{fill:#E6E6E6;stroke:#666666;stroke-width:1.5;stroke-linejoin:round;stroke-miterlimit:10;}
	.st113{fill:#EF4046;stroke:#666666;stroke-width:1.5;stroke-linecap:round;stroke-linejoin:round;stroke-miterlimit:10;}
	.st114{fill:none;stroke:#666666;stroke-width:1.5;stroke-miterlimit:10;}
	.st115{fill:#E6E6E6;stroke:#4D4D4D;stroke-width:1.5;stroke-linejoin:round;stroke-miterlimit:10;}
	.st116{fill:#EF4046;stroke:#4D4D4D;stroke-width:1.5;stroke-linecap:round;stroke-linejoin:round;stroke-miterlimit:10;}
	.st117{fill:none;stroke:#4D4D4D;stroke-width:1.5;stroke-miterlimit:10;}
	.st118{fill:none;stroke:#000000;stroke-width:1.5;stroke-miterlimit:10;}
	.st119{fill:none;stroke:#EF4046;stroke-width:1.5;stroke-miterlimit:10;}
	.st120{fill:#F7A0A3;stroke:#EF4046;stroke-width:1.5;stroke-linejoin:round;stroke-miterlimit:10;}
	.st121{fill:none;stroke:#B33035;stroke-width:1.5;stroke-linecap:round;stroke-linejoin:round;stroke-miterlimit:10;}
	.st122{fill:none;stroke:#782023;stroke-width:1.5;stroke-linecap:round;stroke-linejoin:round;stroke-miterlimit:10;}
	.st123{fill:none;stroke:#3C1012;stroke-width:1.5;stroke-linecap:round;stroke-linejoin:round;stroke-miterlimit:10;}
	.st124{fill:#F8CCCD;}
	.st125{fill:#F6D9DA;}
	.st126{fill:#F4E5E6;}
	.st127{fill:#FDE7E8;}
	.st128{fill:#FEEFF0;}
	.st129{fill:#FEF7F7;}
	.st130{fill:#EA9396;}
	.st131{fill:#E0A6A8;}
	.st132{fill:#D6B9BA;}
	.st133{fill:#EAD5D5;}
	.st134{fill:#EFC3C4;}
	.st135{fill:#F3B2B4;}
	.st136{clip-path:url(#SVGID_42_);}
	.st137{clip-path:url(#SVGID_44_);}
	.st138{clip-path:url(#SVGID_46_);}
	.st139{fill:#F7A0A3;stroke:#C7353A;stroke-linejoin:round;stroke-miterlimit:10;}
	.st140{fill:none;stroke:#C7353A;stroke-miterlimit:10;}
	.st141{fill:none;stroke:#B33035;stroke-linecap:round;stroke-linejoin:round;stroke-miterlimit:10;}
	.st142{fill:none;stroke:#782023;stroke-linecap:round;stroke-linejoin:round;stroke-miterlimit:10;}
	.st143{fill:none;stroke:#3C1012;stroke-linecap:round;stroke-linejoin:round;stroke-miterlimit:10;}
	.st144{fill:none;stroke:#000000;stroke-miterlimit:10;}
	.st145{clip-path:url(#SVGID_48_);}
	.st146{clip-path:url(#SVGID_50_);}
	.st147{clip-path:url(#SVGID_52_);}
	.st148{clip-path:url(#SVGID_54_);}
	.st149{clip-path:url(#SVGID_56_);}
	.st150{clip-path:url(#SVGID_58_);}
	.st151{clip-path:url(#SVGID_60_);}
	.st152{clip-path:url(#SVGID_62_);}
	.st153{clip-path:url(#SVGID_64_);}
	.st154{clip-path:url(#SVGID_66_);}
	.st155{fill:#333333;}
	.st156{fill:#B3B3B3;stroke:#000000;stroke-width:1.5;stroke-linecap:round;stroke-linejoin:round;stroke-miterlimit:10;}
	.st157{fill:#808080;stroke:#000000;stroke-width:1.5;stroke-linecap:round;stroke-linejoin:round;stroke-miterlimit:10;}
	.st158{fill:#CCCCCC;stroke:#000000;stroke-width:1.5;stroke-linecap:round;stroke-linejoin:round;stroke-miterlimit:10;}
	.st159{fill:#F2F2F2;stroke:#000000;stroke-width:1.5;stroke-linecap:round;stroke-linejoin:round;stroke-miterlimit:10;}
	.st160{fill:none;}
	.st161{fill:none;stroke:#FFFFFF;stroke-linecap:round;stroke-miterlimit:10;}
	.st162{fill:#B3B3B3;stroke:#000000;stroke-linecap:round;stroke-linejoin:round;stroke-miterlimit:10;}
	.st163{fill:#808080;stroke:#000000;stroke-linecap:round;stroke-linejoin:round;stroke-miterlimit:10;}
	.st164{fill:#CCCCCC;stroke:#000000;stroke-linecap:round;stroke-linejoin:round;stroke-miterlimit:10;}
	.st165{fill:#F2F2F2;stroke:#000000;stroke-linecap:round;stroke-linejoin:round;stroke-miterlimit:10;}
</style>
<g id="INCOME_icon">
</g>
<g id="CRM_icon">
</g>
<g id="SUPPORT_icon">
</g>
<g id="NEW_CUSTOMER_icon">
</g>
<g id="PARTNERS_EXPERIENCE_icon">
</g>
<g id="COST_REDUCE_icon">
	<g>
		<circle class="st7" cx="75" cy="75" r="62.5"/>
		<path class="st63" d="M87.9,121.5c-21.2,2.3-42.5,4.6-63.7,6.8c-2.7,0.3-4.9-1.9-4.9-4.9c0-20.9,0-41.8,0-62.7
			c0-3,2.2-5.2,4.9-4.9c21.2,2.3,42.5,4.6,63.7,6.8c2.7,0.3,4.9,2.4,4.9,4.8c0,16.4,0,32.9,0,49.3C92.7,119.1,90.5,121.2,87.9,121.5
			z"/>
		<path class="st155" d="M87.9,119.8c-14.3,1.5-28.6,2.9-42.9,4.4l-6.6,6l-15.5-3.9c-2.1-0.4-3.6-2.2-3.6-4.6c0,0.6,0,1.2,0,1.9
			c0,2.5,1.5,4.4,3.6,4.9l15.5,4.1l6.6-6.3c14.3-1.5,28.6-3.1,42.9-4.6c2.7-0.3,4.9-2.4,4.9-4.8c0-0.5,0-1,0-1.5
			C92.7,117.5,90.5,119.5,87.9,119.8z"/>
		<path class="st53" d="M87.9,118.5c-14.3,1.4-28.6,2.8-42.9,4.2l-6.6,5.7l-15.5-3.7c-2.1-0.4-3.6-2.1-3.6-4.4c0,0.4,0,0.9,0,1.3
			c0,2.4,1.5,4.2,3.6,4.6l15.5,3.9l6.6-6c14.3-1.5,28.6-2.9,42.9-4.4c2.7-0.3,4.9-2.3,4.9-4.5c0-0.4,0-0.7,0-1.1
			C92.7,116.3,90.5,118.3,87.9,118.5z"/>
		<path class="st23" d="M19.3,120.3c0,2.3,1.5,4,3.6,4.4l15.5,3.7l6.6-5.7c14.3-1.4,28.6-2.8,42.9-4.2c2.7-0.3,4.9-2.2,4.9-4.3
			c0-8.3,0-16.5,0-24.8H19.3C19.3,99.7,19.3,110,19.3,120.3z"/>
		<path class="st1" d="M21.9,58.1L21.9,58.1l15.6-7.7l9.7,9.7c13.6,1.4,27.1,2.7,40.7,4.1c2.7,0.3,4.9,2.3,4.9,4.5
			c0-0.4,0-0.8,0-1.3c0-2.3-2.2-4.5-4.9-4.8c-13.6-1.5-27.1-2.9-40.7-4.4L37.5,48l-15.6,8.2v0c-1.5,0.7-2.6,2.4-2.6,4.5
			c0,0.5,0,1.1,0,1.6C19.3,60.4,20.3,58.8,21.9,58.1z"/>
		<path class="st39" d="M21.9,59.4L21.9,59.4L37.5,52l9.7,9.3c13.6,1.3,27.1,2.6,40.7,3.9c2.7,0.3,4.9,2.2,4.9,4.3
			c0-0.3,0-0.6,0-0.9c0-2.2-2.2-4.2-4.9-4.5c-13.6-1.4-27.1-2.7-40.7-4.1l-9.7-9.7l-15.6,7.7v0c-1.5,0.7-2.6,2.3-2.6,4.3
			c0,0.4,0,0.8,0,1.2C19.3,61.6,20.3,60.1,21.9,59.4z"/>
		<path class="st0" d="M87.9,65.3c-13.6-1.3-27.1-2.6-40.7-3.9L37.5,52l-15.6,7.4v0c-1.5,0.7-2.6,2.2-2.6,4.1c0,8.6,0,17.3,0,25.9
			h73.4c0-6.6,0-13.2,0-19.8C92.7,67.5,90.5,65.5,87.9,65.3z"/>
		<path class="st38" d="M19.3,89.4c0,9.1,0,18.1,0,27.2c0,2,1.5,3.5,3.6,3.9l11.5,2.4L19.3,70.1C19.3,76.6,19.3,83,19.3,89.4z"/>
		<path class="st20" d="M44.9,118.8c14.3-1.2,28.6-2.4,42.9-3.7c2.7-0.2,4.9-1.9,4.9-3.8c0-7.3,0-14.6,0-21.9c0-5.8,0-11.5,0-17.3
			c0-1.9-2.2-3.6-4.9-3.8c-13.6-1.2-27.1-2.3-40.7-3.5l-9.7-8.2l-15.6,6.5v0c-1.5,0.6-2.6,1.9-2.6,3.6c0,1.1,0,2.2,0,3.4l15.1,52.8
			l4,0.8L44.9,118.8z"/>
		<path class="st63" d="M87.9,62.6c-13.6-1.5-27.1-2.9-40.7-4.4L37.5,48l-15.6,8.2v0c-1.5,0.7-2.6,2.4-2.6,4.5c0,20.9,0,41.8,0,62.7
			c0,2.5,1.5,4.4,3.6,4.9l15.5,4.1l6.6-6.3c14.3-1.5,28.6-3.1,42.9-4.6c2.7-0.3,4.9-2.4,4.9-4.8c0-16.4,0-32.9,0-49.3
			C92.7,65.1,90.5,62.9,87.9,62.6z"/>
		<g>
			<path class="st0" d="M114.5,124.5c-24.8,2.7-49.7,5.3-74.5,8c-3.1,0.3-5.7-2.2-5.7-5.7c0-24.5,0-48.9,0-73.4
				c0-3.5,2.5-6.1,5.7-5.7c24.8,2.7,49.7,5.3,74.5,8c3.1,0.3,5.7,2.9,5.7,5.6c0,19.2,0,38.4,0,57.7
				C120.2,121.7,117.7,124.2,114.5,124.5z"/>
			<path class="st101" d="M114.5,124.5c-24.8,2.7-49.7,5.3-74.5,8c-3.1,0.3-5.7-2.2-5.7-5.7c0-24.5,0-48.9,0-73.4
				c0-3.5,2.5-6.1,5.7-5.7c24.8,2.7,49.7,5.3,74.5,8c3.1,0.3,5.7,2.9,5.7,5.6c0,19.2,0,38.4,0,57.7
				C120.2,121.7,117.7,124.2,114.5,124.5z"/>
		</g>
		<g>
			<path class="st23" d="M111.7,121.8c-22.9,2.5-45.9,4.9-68.8,7.4c-2.9,0.3-5.2-2.1-5.2-5.3c0-22.6,0-45.1,0-67.7
				c0-3.2,2.3-5.6,5.2-5.3c22.9,2.5,45.9,4.9,68.8,7.4c2.9,0.3,5.2,2.6,5.2,5.2c0,17.7,0,35.4,0,53.2
				C116.9,119.2,114.6,121.5,111.7,121.8z"/>
			<path class="st162" d="M111.7,121.8c-22.9,2.5-45.9,4.9-68.8,7.4c-2.9,0.3-5.2-2.1-5.2-5.3c0-22.6,0-45.1,0-67.7
				c0-3.2,2.3-5.6,5.2-5.3c22.9,2.5,45.9,4.9,68.8,7.4c2.9,0.3,5.2,2.6,5.2,5.2c0,17.7,0,35.4,0,53.2
				C116.9,119.2,114.6,121.5,111.7,121.8z"/>
		</g>
		<path class="st163" d="M111.8,65.5c0-2.4-2.2-4.5-5-4.8c-21.7-2.3-43.5-4.6-65.2-6.9c-1.6-0.2-3,0.5-3.9,1.7
			c0,0.3-0.1,0.5-0.1,0.8c0,22.6,0,45.1,0,67.7c0,0.5,0.1,1,0.2,1.5c0.9,1.1,2.3,1.7,3.8,1.5c21.7-2.3,43.5-4.6,65.2-6.9
			c2.7-0.3,5-2.5,5-4.8C111.8,98.6,111.8,82.1,111.8,65.5z"/>
		<g>
			<polygon class="st11" points="95.3,117.9 78.4,119.9 78.4,71.8 95.2,73.6 			"/>
			<g>
				<polygon class="st15" points="78.5,74.9 87,76.7 78.4,76.9 				"/>
				<polygon class="st15" points="78.5,78.1 87.1,79.7 78.4,80.1 				"/>
				<polygon class="st15" points="78.5,87.6 85.2,88.9 78.4,89.6 				"/>
				<polygon class="st15" points="78.4,94 87.1,95.1 78.4,96 				"/>
				<polygon class="st15" points="78.4,97.2 88.4,98.1 78.4,99.1 				"/>
				<polygon class="st15" points="78.4,100.3 87.1,101.2 78.4,102.3 				"/>
			</g>
			<polygon class="st63" points="95.3,117.9 78.4,119.9 78.4,71.8 95.2,73.6 			"/>
		</g>
		<g>
			<polygon class="st14" points="78.4,71.8 61,76.6 60.6,115.6 78.4,119.7 			"/>
			<g>
				<polygon class="st16" points="77.9,76.1 78.3,78.3 68.9,78.3 68.9,78.3 				"/>
				<polygon class="st16" points="77.9,79.5 78.3,81.6 68.9,81.7 68.9,81.7 				"/>
				<polygon class="st16" points="78.3,102.7 78,104.8 68.9,102.8 68.9,102.8 				"/>
				<polygon class="st16" points="78.3,106.6 78,108.8 68.9,106.7 68.9,106.7 				"/>
			</g>
			<g>
				<polygon class="st38" points="66.7,116.9 70.8,117.8 70.8,73.9 66.7,75 				"/>
				<line class="st63" x1="66.7" y1="75" x2="66.7" y2="116.9"/>
				<line class="st63" x1="70.8" y1="73.9" x2="70.8" y2="117.8"/>
			</g>
			<polygon class="st63" points="78.4,71.8 61,76.6 60.6,115.6 78.4,119.7 			"/>
		</g>
		<g>
			<path class="st23" d="M119.2,59.7c-9.5-3.3-11.5-7.7-21.1-11l-7.7-2.6l-6.4,2.1c0,0,0,0,0,0l0,0v0c-1.1,0.3-1.9,1.1-1.9,2.4
				c0,26.3,0,52.6,0,78.9c0,1.1,0.6,1.9,1.6,2.3v0l0,0c0.1,0,0.2,0.1,0.4,0.1l6.3,1.9l4.2-1c9.8-3.4,14.7-9,24.5-12.4
				c2.5-0.9,4.5-2.7,4.5-4.1c0-17.5,0-35.1,0-52.6C123.7,62.4,121.7,60.6,119.2,59.7z"/>
			<path class="st38" d="M84.1,48.2L84.1,48.2L84.1,48.2c-1.2,0.3-1.9,1.2-1.9,2.4c0,24.2,0,48.4,0,72.6c7.3-23.3,7.5-68.2,7.4-76.8
				L84.1,48.2C84.1,48.2,84.1,48.2,84.1,48.2z"/>
			<path class="st63" d="M119.2,59.7c-9.5-3.3-11.5-7.7-21.1-11l-7.7-2.6l-6.4,2.1c0,0,0,0,0,0l0,0v0c-1.1,0.3-1.9,1.1-1.9,2.4
				c0,26.3,0,52.6,0,78.9c0,1.1,0.6,1.9,1.6,2.3v0l0,0c0.1,0,0.2,0.1,0.4,0.1l6.3,1.9l4.2-1c9.8-3.4,14.7-9,24.5-12.4
				c2.5-0.9,4.5-2.7,4.5-4.1c0-17.5,0-35.1,0-52.6C123.7,62.4,121.7,60.6,119.2,59.7z"/>
			<path class="st164" d="M121,54.6c-8.2-4.1-16.4-8.1-24.6-12.2l-0.2-2l-3.4,0.6c-0.2,0-0.4,0-0.6,0.1l0,0v0
				c-0.9,0.3-1.5,1.3-1.5,2.8c0,30.7,0,61.5,0,92.2c0,1.6,0.8,2.7,1.9,2.9v0l3.9,0.7l0.4-2.2c8.1-4,16.2-8,24.3-12
				c2-1,3.7-3.1,3.7-4.7c0-20.5,0-41,0-61.5C124.7,57.7,123,55.6,121,54.6z"/>
			<path class="st165" d="M124.8,126.1c-8.9,4.5-17.8,8.9-26.7,13.4c-2,1-3.7-0.1-3.7-2.6c0-31.2,0-62.3,0-93.5
				c0-2.5,1.7-3.6,3.7-2.6c8.9,4.5,17.8,8.9,26.7,13.4c2,1,3.7,3.2,3.7,4.8c0,20.8,0,41.6,0,62.3C128.5,122.9,126.8,125,124.8,126.1
				z"/>
			<g>
				<g>
					<ellipse class="st53" cx="86.7" cy="54.9" rx="2.4" ry="3.6"/>
					<path class="st0" d="M86.6,52.2c-1.4,0-2.6,1.2-2.6,2.7s1.2,2.7,2.6,2.7v0c1,0,1.8-1.2,1.8-2.7C88.4,53.4,87.6,52.2,86.6,52.2z
						"/>
					<path class="st20" d="M87.9,53c0,0.2,0.1,0.5,0.1,0.7c0,1.7-0.9,3-2,3v0c-0.6,0-1.1-0.2-1.6-0.5c0.5,0.8,1.3,1.3,2.2,1.3v0
						c1,0,1.8-1.2,1.8-2.7C88.4,54.2,88.2,53.5,87.9,53z"/>
					<ellipse transform="matrix(0.866 -0.5 0.5 0.866 -15.403 50.215)" class="st1" cx="86" cy="53.8" rx="1.7" ry="1.1"/>
				</g>
				<g>
					<ellipse class="st53" cx="86.7" cy="68.9" rx="2.4" ry="3.6"/>
					<path class="st0" d="M86.6,66.2c-1.4,0-2.6,1.2-2.6,2.7c0,1.5,1.2,2.7,2.6,2.7v0c1,0,1.8-1.2,1.8-2.7
						C88.4,67.4,87.6,66.2,86.6,66.2z"/>
					<path class="st20" d="M87.9,67c0,0.2,0.1,0.5,0.1,0.7c0,1.7-0.9,3-2,3v0c-0.6,0-1.1-0.2-1.6-0.5c0.5,0.8,1.3,1.3,2.2,1.3v0
						c1,0,1.8-1.2,1.8-2.7C88.4,68.2,88.2,67.5,87.9,67z"/>
					<ellipse transform="matrix(0.866 -0.5 0.5 0.866 -22.4158 52.094)" class="st1" cx="86" cy="67.9" rx="1.7" ry="1.1"/>
				</g>
				<g>
					<ellipse class="st53" cx="86.7" cy="83" rx="2.4" ry="3.6"/>
					<path class="st0" d="M86.6,80.2c-1.4,0-2.6,1.2-2.6,2.7c0,1.5,1.2,2.7,2.6,2.7v0c1,0,1.8-1.2,1.8-2.7S87.6,80.2,86.6,80.2z"/>
					<path class="st20" d="M87.9,81.1c0,0.2,0.1,0.5,0.1,0.7c0,1.7-0.9,3-2,3v0c-0.6,0-1.1-0.2-1.6-0.5c0.5,0.8,1.3,1.3,2.2,1.3v0
						c1,0,1.8-1.2,1.8-2.7C88.4,82.2,88.2,81.6,87.9,81.1z"/>
					<ellipse transform="matrix(0.866 -0.5 0.5 0.866 -29.4286 53.9731)" class="st1" cx="86" cy="81.9" rx="1.7" ry="1.1"/>
				</g>
				<g>
					<ellipse class="st53" cx="86.7" cy="97" rx="2.4" ry="3.6"/>
					<path class="st0" d="M86.6,94.3c-1.4,0-2.6,1.2-2.6,2.7c0,1.5,1.2,2.7,2.6,2.7v0c1,0,1.8-1.2,1.8-2.7
						C88.4,95.5,87.6,94.3,86.6,94.3z"/>
					<path class="st20" d="M87.9,95.1c0,0.2,0.1,0.5,0.1,0.7c0,1.7-0.9,3-2,3v0c-0.6,0-1.1-0.2-1.6-0.5c0.5,0.8,1.3,1.3,2.2,1.3v0
						c1,0,1.8-1.2,1.8-2.7C88.4,96.2,88.2,95.6,87.9,95.1z"/>
					<ellipse transform="matrix(0.866 -0.5 0.5 0.866 -36.4414 55.8522)" class="st1" cx="86" cy="95.9" rx="1.7" ry="1.1"/>
				</g>
				<g>
					<ellipse class="st53" cx="86.7" cy="111" rx="2.4" ry="3.6"/>
					<path class="st0" d="M86.6,108.3c-1.4,0-2.6,1.2-2.6,2.7c0,1.5,1.2,2.7,2.6,2.7v0c1,0,1.8-1.2,1.8-2.7S87.6,108.3,86.6,108.3z"
						/>
					<path class="st20" d="M87.9,109.1c0,0.2,0.1,0.5,0.1,0.7c0,1.7-0.9,3-2,3v0c-0.6,0-1.1-0.2-1.6-0.5c0.5,0.8,1.3,1.3,2.2,1.3v0
						c1,0,1.8-1.2,1.8-2.7C88.4,110.3,88.2,109.6,87.9,109.1z"/>
					<ellipse transform="matrix(0.866 -0.5 0.5 0.866 -43.4542 57.7312)" class="st1" cx="86" cy="110" rx="1.7" ry="1.1"/>
				</g>
				<g>
					<ellipse class="st53" cx="86.7" cy="125" rx="2.4" ry="3.6"/>
					<path class="st0" d="M86.6,122.3c-1.4,0-2.6,1.2-2.6,2.7c0,1.5,1.2,2.7,2.6,2.7v0c1,0,1.8-1.2,1.8-2.7
						C88.4,123.5,87.6,122.3,86.6,122.3z"/>
					<path class="st20" d="M87.9,123.1c0,0.2,0.1,0.5,0.1,0.7c0,1.7-0.9,3-2,3v0c-0.6,0-1.1-0.2-1.6-0.5c0.5,0.8,1.3,1.3,2.2,1.3v0
						c1,0,1.8-1.2,1.8-2.7C88.4,124.3,88.2,123.6,87.9,123.1z"/>
					<ellipse transform="matrix(0.866 -0.5 0.5 0.866 -50.467 59.6103)" class="st1" cx="86" cy="124" rx="1.7" ry="1.1"/>
				</g>
			</g>
			<path class="st164" d="M124.1,64c-5.7-2.8-11.4-5.6-17.1-8.3l-0.2-2.5l-4,1v0c-0.8,0.2-1.3,1-1.3,2.1c0,22.6,0,45.2,0,67.8
				c0,1.2,0.5,1.9,1.4,2.1v0l4,1l0.8-2.9c5.5-2.7,10.9-5.3,16.4-8c1.5-0.8,2.7-2.3,2.7-3.5c0-15.1,0-30.1,0-45.2
				C126.9,66.3,125.6,64.8,124.1,64z"/>
			<path class="st165" d="M128,116.8c-6.6,3.3-13.2,6.6-19.9,9.9c-1.5,0.8-2.7-0.1-2.7-1.9c0-23.2,0-46.4,0-69.5
				c0-1.8,1.2-2.7,2.7-1.9c6.6,3.3,13.2,6.6,19.9,9.9c1.5,0.8,2.7,2.4,2.7,3.6c0,15.5,0,30.9,0,46.4
				C130.8,114.5,129.5,116.1,128,116.8z"/>
			<ellipse class="st38" cx="120" cy="88.8" rx="7.3" ry="13.8"/>
			<path class="st160" d="M122.4,98.2c-1.4-1.3-2.7-2.9-3.7-4.6C119.5,96.3,120.9,98.1,122.4,98.2z"/>
			<path d="M118.8,93.6c-1.7-2.9-2.7-6.3-2.7-10c0-0.2,0-0.4,0-0.6c-0.6,1.6-1,3.6-1,5.7c0,5.5,2.4,10,5.3,10v0
				c0.8,0,1.5-0.2,2.2-0.4c-0.1-0.1-0.1-0.1-0.2-0.2C120.9,98.1,119.5,96.3,118.8,93.6z"/>
			<path d="M122.5,98.2C122.5,98.2,122.4,98.2,122.5,98.2c0,0,0.1,0.1,0.1,0.2c0.3-0.1,0.7-0.3,1-0.5
				C123.2,98.1,122.9,98.2,122.5,98.2z"/>
			<path class="st155" d="M118.8,93.6c-0.4-1.4-0.6-3.1-0.6-4.8c0-5.2,1.9-9.4,4.3-9.4c0.4,0,0.8,0.1,1.1,0.3
				c-1-0.6-2.1-0.9-3.2-0.9c-1.8,0-3.3,1.7-4.3,4.2c0,0.2,0,0.4,0,0.6C116.1,87.3,117,90.7,118.8,93.6z"/>
			<path class="st53" d="M123.6,97.9c0.1,0,0.2-0.1,0.2-0.2C123.8,97.8,123.7,97.8,123.6,97.9z"/>
			<path class="st53" d="M123.6,79.7c0.1,0,0.2,0.1,0.2,0.2C123.8,79.8,123.7,79.8,123.6,79.7z"/>
			<path class="st42" d="M118.2,86.8c-0.1,0.6-0.1,1.3-0.1,2c0,5.2,1.9,9.4,4.3,9.4c0.4,0,0.8-0.1,1.1-0.3c0.1,0,0.2-0.1,0.2-0.2
				c1.1-0.8,1.9-2.4,2.4-4.4c-0.3,0-0.6,0.1-0.9,0.1C122,93.4,119.2,90.6,118.2,86.8z"/>
			<path class="st21" d="M123.8,79.9c-0.1-0.1-0.2-0.1-0.2-0.2c-0.4-0.2-0.7-0.3-1.1-0.3c-2.1,0-3.8,3.2-4.2,7.4
				c1,3.8,3.8,6.5,7.2,6.5c0.3,0,0.6,0,0.9-0.1c0.3-1.3,0.5-2.9,0.5-4.5C126.8,84.6,125.6,81.1,123.8,79.9z"/>
			<path class="st1" d="M119.8,87l5,4.3c1.2-1.6,0.5-3.8,0.5-3.8L119.8,87z"/>
			<line class="st161" x1="120.2" y1="76.1" x2="120.2" y2="77.7"/>
			<line class="st161" x1="115.5" y1="79.9" x2="116.2" y2="80.8"/>
			<line class="st161" x1="115.5" y1="97.6" x2="116.2" y2="96.6"/>
			<line class="st161" x1="120.2" y1="99.9" x2="120.2" y2="101.5"/>
			<line class="st161" x1="114.5" y1="88.8" x2="113.5" y2="88.8"/>
		</g>
		<g>
			<polygon class="st11" points="74.7,120.4 57.8,122.4 57.8,63.9 74.5,65.8 			"/>
			<g>
				<polygon class="st15" points="57.8,67 66.4,68.8 57.7,69 				"/>
				<polygon class="st15" points="57.8,70.2 66.4,71.9 57.7,72.2 				"/>
				<polygon class="st15" points="57.8,79.7 64.5,81.1 57.7,81.7 				"/>
				<polygon class="st15" points="57.8,86.1 66.5,87.2 57.8,88.1 				"/>
				<polygon class="st15" points="57.8,89.3 67.7,90.3 57.8,91.3 				"/>
				<polygon class="st15" points="57.8,92.5 66.5,93.3 57.8,94.4 				"/>
				<polygon class="st15" points="57.7,105.2 65.5,105.6 57.8,107.1 				"/>
				<polygon class="st15" points="57.7,108.3 66.5,108.7 57.8,110.3 				"/>
				<polygon class="st15" points="57.7,117.9 68.3,117.9 57.9,119.8 				"/>
				<g>
					<polygon class="st15" points="74.5,74.7 70,73.3 74.6,72.7 					"/>
					<polygon class="st15" points="74.5,76.7 68.8,75.2 74.6,74.7 					"/>
					<polygon class="st15" points="74.5,84.7 66.9,83.3 74.6,82.7 					"/>
					<polygon class="st15" points="74.6,86.7 70.1,85.5 74.6,84.7 					"/>
					<polygon class="st15" points="74.6,96.7 70.2,95.7 74.6,94.7 					"/>
					<polygon class="st15" points="74.6,100 68.9,99 74.6,98 					"/>
					<polygon class="st15" points="74.7,111.5 70.3,110.7 74.6,109.5 					"/>
					<polygon class="st15" points="74.7,114.8 68.7,114.1 74.6,112.8 					"/>
				</g>
			</g>
			<polygon class="st63" points="74.7,120.4 57.8,122.4 57.8,63.9 74.5,65.8 			"/>
		</g>
		<g>
			<polygon class="st14" points="57.8,63.9 40.3,68.8 40,118.3 57.8,122.4 			"/>
			<g>
				<polygon class="st16" points="57.2,68.3 57.6,70.4 48.3,70.5 48.3,70.5 				"/>
				<polygon class="st16" points="57.2,71.6 57.6,73.7 48.3,73.8 48.3,73.8 				"/>
				<polygon class="st16" points="57.6,94.8 57.3,96.9 48.2,94.9 48.2,94.9 				"/>
				<polygon class="st16" points="57.6,98.8 57.3,100.9 48.2,98.9 48.2,98.9 				"/>
				<polygon class="st16" points="57.9,114.2 57.4,116.3 48.6,113.5 48.6,113.5 				"/>
			</g>
			<g>
				<polygon class="st38" points="46.1,119.6 50.1,120.5 50.1,66 46.1,67.2 				"/>
				<line class="st63" x1="46.1" y1="67.2" x2="46.1" y2="119.6"/>
				<line class="st63" x1="50.1" y1="66" x2="50.1" y2="120.5"/>
			</g>
			<polygon class="st63" points="57.8,63.9 40.3,68.8 40,118.3 57.8,122.4 			"/>
		</g>
		<g>
			<path class="st11" d="M52.1,84l-14.6-0.7c0,13.5,0,27.1,0,40.6c0,0.3,0,0.5,0.1,0.8l14.6-1.8L52.1,84z"/>
			<g>
				<polygon class="st14" points="51.9,85.9 51.8,88 43.6,86.3 43.6,86.3 				"/>
				<polygon class="st14" points="51.9,88.8 51.8,90.9 43.6,89.2 43.6,89.2 				"/>
				<polygon class="st14" points="51.8,100.6 51.9,102.8 43.6,102.1 43.6,102.1 				"/>
				<polygon class="st14" points="51.9,113.9 52,116.1 43.6,115.4 43.6,115.4 				"/>
				<polygon class="st14" points="52,117.1 52.2,119 45.6,118.4 45.6,118.4 				"/>
			</g>
			<g>
				<polygon class="st14" points="38,122.8 37.7,120.9 45.5,120.7 45.5,120.7 				"/>
				<polygon class="st14" points="37.9,107.9 37.8,105.7 46.2,106.4 46.2,106.4 				"/>
				<polygon class="st14" points="38,110.1 37.8,108.5 44.2,108.6 44.2,108.6 				"/>
				<polygon class="st14" points="38,93.6 37.9,91.8 45,92.7 45,92.7 				"/>
			</g>
			<path class="st63" d="M52.1,84l-14.6-0.7c0,13.5,0,27.1,0,40.6c0,0.3,0,0.5,0.1,0.8l14.6-1.8L52.1,84z"/>
		</g>
	</g>
</g>
</svg>
