<?xml version="1.0" encoding="utf-8"?>
<!-- Generator: Adobe Illustrator 21.1.0, SVG Export Plug-In . SVG Version: 6.00 Build 0)  -->
<svg version="1.1" xmlns="http://www.w3.org/2000/svg" xmlns:xlink="http://www.w3.org/1999/xlink" x="0px" y="0px"
	 viewBox="0 0 150 150" style="enable-background:new 0 0 150 150;" xml:space="preserve">
<style type="text/css">
	.st0{fill:#E6E6E6;}
	.st1{fill:#FFFFFF;}
	.st2{fill:none;stroke:#FCDFE0;stroke-width:2;stroke-linecap:round;stroke-linejoin:round;stroke-miterlimit:10;}
	.st3{fill:#F7A0A3;}
	.st4{fill:#F26065;}
	.st5{fill:none;stroke:#EF4046;stroke-width:2;stroke-linecap:round;stroke-linejoin:round;stroke-miterlimit:10;}
	.st6{fill:#FCDFE0;}
	.st7{fill:#FABFC1;}
	.st8{fill:url(#SVGID_1_);}
	.st9{fill:#F48084;}
	.st10{fill:url(#SVGID_2_);}
	.st11{fill:#EF4046;}
	.st12{fill:url(#SVGID_3_);}
	.st13{fill:none;stroke:#EF4046;stroke-width:3;stroke-linecap:round;stroke-linejoin:round;stroke-miterlimit:10;}
	.st14{fill:#C7353A;}
	.st15{fill:#9F2B2F;}
	.st16{fill:#782023;}
	.st17{fill:#501517;}
	.st18{fill:#280B0C;}
	.st19{fill:none;stroke:#E6E6E6;stroke-width:2;stroke-linecap:round;stroke-linejoin:round;stroke-miterlimit:10;}
	.st20{fill:#CCCCCC;}
	.st21{fill:#808080;}
	.st22{fill:none;stroke:#000000;stroke-width:2;stroke-linecap:round;stroke-linejoin:round;stroke-miterlimit:10;}
	.st23{fill:#999999;}
	.st24{fill:url(#SVGID_4_);}
	.st25{fill:none;stroke:#501517;stroke-width:2;stroke-linecap:round;stroke-linejoin:round;stroke-miterlimit:10;}
	.st26{fill:url(#SVGID_5_);}
	.st27{fill:#FFFFFF;stroke:#000000;stroke-width:2;stroke-linecap:round;stroke-linejoin:round;stroke-miterlimit:10;}
	.st28{fill:url(#SVGID_6_);}
	.st29{fill:url(#SVGID_7_);}
	.st30{fill:#ED1C24;}
	.st31{fill:#8CC63F;}
	.st32{fill:#39B54A;}
	.st33{fill:#006837;}
	.st34{fill:#F15A24;}
	.st35{fill:#009245;}
	.st36{fill:url(#SVGID_8_);}
	.st37{fill:url(#SVGID_9_);}
	.st38{fill:#B3B3B3;}
	.st39{fill:#F2F2F2;}
	.st40{fill:#F0F0F0;}
	.st41{fill:#8C8C8C;}
	.st42{fill:#666666;}
	.st43{fill:#D9D9D9;}
	.st44{fill:#EDEDED;}
	.st45{fill:url(#SVGID_10_);}
	.st46{fill:url(#SVGID_11_);}
	.st47{fill:url(#SVGID_12_);}
	.st48{opacity:0.2;fill:#EF4046;}
	.st49{fill:url(#SVGID_13_);}
	.st50{fill:url(#SVGID_14_);}
	.st51{fill:url(#SVGID_15_);}
	.st52{fill:url(#SVGID_16_);}
	.st53{fill:#4D4D4D;}
	.st54{fill:url(#SVGID_17_);}
	.st55{fill:url(#SVGID_18_);}
	.st56{fill:url(#SVGID_19_);}
	.st57{fill:url(#SVGID_20_);}
	.st58{fill:url(#SVGID_21_);}
	.st59{fill:url(#SVGID_22_);}
	.st60{fill:none;stroke:#000000;stroke-width:1.5;stroke-linecap:round;stroke-linejoin:round;stroke-miterlimit:10;}
	.st61{fill:url(#SVGID_23_);}
	.st62{fill:url(#SVGID_24_);}
	.st63{fill:none;stroke:#000000;stroke-linecap:round;stroke-linejoin:round;stroke-miterlimit:10;}
	.st64{fill:url(#SVGID_25_);}
	.st65{fill:url(#SVGID_26_);}
	.st66{clip-path:url(#SVGID_28_);}
	.st67{fill:#EC4048;}
	.st68{clip-path:url(#SVGID_30_);}
	.st69{clip-path:url(#SVGID_32_);}
	.st70{clip-path:url(#SVGID_34_);}
	.st71{clip-path:url(#SVGID_36_);}
	.st72{display:none;fill:#FABFC1;}
	.st73{clip-path:url(#SVGID_38_);}
	.st74{fill:url(#SVGID_39_);}
	.st75{fill:url(#SVGID_40_);}
	.st76{fill:#FAFAFA;}
	.st77{fill:none;stroke:#FFFFFF;stroke-miterlimit:10;stroke-dasharray:3,3;}
	.st78{fill:none;stroke:#EF4046;stroke-width:2;stroke-linecap:round;stroke-miterlimit:10;}
	.st79{opacity:0.1;}
	.st80{opacity:0.5;fill:#FFFFFF;}
	
		.st81{fill:none;stroke:#FFFFFF;stroke-width:3;stroke-linecap:round;stroke-linejoin:round;stroke-miterlimit:10;stroke-dasharray:0,5;}
	.st82{display:none;fill:none;stroke:#000000;stroke-width:1.5;stroke-linecap:round;stroke-linejoin:round;stroke-miterlimit:10;}
	.st83{fill:#C7353A;stroke:#000000;stroke-width:1.5;stroke-linecap:round;stroke-linejoin:round;stroke-miterlimit:10;}
	.st84{fill:#EF4046;stroke:#000000;stroke-width:1.5;stroke-linecap:round;stroke-linejoin:round;stroke-miterlimit:10;}
	.st85{fill:#C7353A;stroke:#000000;stroke-width:1.5;stroke-miterlimit:10;}
	.st86{fill:#EF4046;stroke:#000000;stroke-width:1.5;stroke-miterlimit:10;}
	.st87{fill:#FFFFFF;stroke:#000000;stroke-width:1.5;stroke-linecap:round;stroke-linejoin:round;stroke-miterlimit:10;}
	.st88{fill:#9F2B2F;stroke:#000000;stroke-width:1.5;stroke-linecap:round;stroke-linejoin:round;stroke-miterlimit:10;}
	.st89{opacity:0.5;fill:#C7353A;}
	.st90{fill:none;stroke:#000000;stroke-width:1.5;stroke-linejoin:round;stroke-miterlimit:10;}
	.st91{opacity:0.5;}
	.st92{fill:#EBEBEB;}
	.st93{fill:#B3B3B3;stroke:#000000;stroke-width:1.5;stroke-linejoin:round;stroke-miterlimit:10;}
	.st94{fill:#FFFFFF;stroke:#000000;stroke-width:1.5;stroke-linejoin:round;stroke-miterlimit:10;}
	.st95{fill:#EF4046;stroke:#000000;stroke-width:1.5;stroke-linejoin:round;stroke-miterlimit:10;}
	.st96{fill:#E6E6E6;stroke:#000000;stroke-width:1.5;stroke-linejoin:round;stroke-miterlimit:10;}
	.st97{fill:#C7353A;stroke:#000000;stroke-miterlimit:10;}
	.st98{fill:#EF4046;stroke:#000000;stroke-miterlimit:10;}
	.st99{fill:#C7353A;stroke:#000000;stroke-linecap:round;stroke-linejoin:round;stroke-miterlimit:10;}
	.st100{fill:#EF4046;stroke:#000000;stroke-linecap:round;stroke-linejoin:round;stroke-miterlimit:10;}
	.st101{fill:#FFFFFF;stroke:#000000;stroke-linecap:round;stroke-linejoin:round;stroke-miterlimit:10;}
	.st102{fill:none;stroke:#000000;stroke-linejoin:round;stroke-miterlimit:10;}
	.st103{fill:#B3B3B3;stroke:#000000;stroke-linejoin:round;stroke-miterlimit:10;}
	.st104{fill:#FFFFFF;stroke:#000000;stroke-linejoin:round;stroke-miterlimit:10;}
	.st105{fill:#EF4046;stroke:#000000;stroke-linejoin:round;stroke-miterlimit:10;}
	.st106{fill:#E6E6E6;stroke:#000000;stroke-linejoin:round;stroke-miterlimit:10;}
	.st107{display:none;fill:none;stroke:#000000;stroke-miterlimit:10;}
	.st108{fill:#EF4046;stroke:#999999;stroke-width:1.5;stroke-linecap:round;stroke-linejoin:round;stroke-miterlimit:10;}
	.st109{fill:none;stroke:#999999;stroke-width:1.5;stroke-miterlimit:10;}
	.st110{fill:#E6E6E6;stroke:#999999;stroke-width:1.5;stroke-linejoin:round;stroke-miterlimit:10;}
	.st111{fill:#F7A0A3;stroke:#999999;stroke-width:1.5;stroke-linecap:round;stroke-linejoin:round;stroke-miterlimit:10;}
	.st112{fill:#E6E6E6;stroke:#666666;stroke-width:1.5;stroke-linejoin:round;stroke-miterlimit:10;}
	.st113{fill:#EF4046;stroke:#666666;stroke-width:1.5;stroke-linecap:round;stroke-linejoin:round;stroke-miterlimit:10;}
	.st114{fill:none;stroke:#666666;stroke-width:1.5;stroke-miterlimit:10;}
	.st115{fill:#E6E6E6;stroke:#4D4D4D;stroke-width:1.5;stroke-linejoin:round;stroke-miterlimit:10;}
	.st116{fill:#EF4046;stroke:#4D4D4D;stroke-width:1.5;stroke-linecap:round;stroke-linejoin:round;stroke-miterlimit:10;}
	.st117{fill:none;stroke:#4D4D4D;stroke-width:1.5;stroke-miterlimit:10;}
	.st118{fill:none;stroke:#000000;stroke-width:1.5;stroke-miterlimit:10;}
	.st119{fill:none;stroke:#EF4046;stroke-width:1.5;stroke-miterlimit:10;}
	.st120{fill:#F7A0A3;stroke:#EF4046;stroke-width:1.5;stroke-linejoin:round;stroke-miterlimit:10;}
	.st121{fill:none;stroke:#B33035;stroke-width:1.5;stroke-linecap:round;stroke-linejoin:round;stroke-miterlimit:10;}
	.st122{fill:none;stroke:#782023;stroke-width:1.5;stroke-linecap:round;stroke-linejoin:round;stroke-miterlimit:10;}
	.st123{fill:none;stroke:#3C1012;stroke-width:1.5;stroke-linecap:round;stroke-linejoin:round;stroke-miterlimit:10;}
	.st124{fill:#F8CCCD;}
	.st125{fill:#F6D9DA;}
	.st126{fill:#F4E5E6;}
	.st127{fill:#FDE7E8;}
	.st128{fill:#FEEFF0;}
	.st129{fill:#FEF7F7;}
	.st130{fill:#EA9396;}
	.st131{fill:#E0A6A8;}
	.st132{fill:#D6B9BA;}
	.st133{fill:#EAD5D5;}
	.st134{fill:#EFC3C4;}
	.st135{fill:#F3B2B4;}
	.st136{clip-path:url(#SVGID_42_);}
	.st137{clip-path:url(#SVGID_44_);}
	.st138{clip-path:url(#SVGID_46_);}
	.st139{fill:#F7A0A3;stroke:#C7353A;stroke-linejoin:round;stroke-miterlimit:10;}
	.st140{fill:none;stroke:#C7353A;stroke-miterlimit:10;}
	.st141{fill:none;stroke:#B33035;stroke-linecap:round;stroke-linejoin:round;stroke-miterlimit:10;}
	.st142{fill:none;stroke:#782023;stroke-linecap:round;stroke-linejoin:round;stroke-miterlimit:10;}
	.st143{fill:none;stroke:#3C1012;stroke-linecap:round;stroke-linejoin:round;stroke-miterlimit:10;}
	.st144{fill:none;stroke:#000000;stroke-miterlimit:10;}
	.st145{clip-path:url(#SVGID_48_);}
	.st146{clip-path:url(#SVGID_50_);}
	.st147{clip-path:url(#SVGID_52_);}
	.st148{clip-path:url(#SVGID_54_);}
	.st149{clip-path:url(#SVGID_56_);}
	.st150{clip-path:url(#SVGID_58_);}
	.st151{clip-path:url(#SVGID_60_);}
	.st152{clip-path:url(#SVGID_62_);}
	.st153{clip-path:url(#SVGID_64_);}
	.st154{clip-path:url(#SVGID_66_);}
	.st155{fill:#333333;}
	.st156{fill:#B3B3B3;stroke:#000000;stroke-width:1.5;stroke-linecap:round;stroke-linejoin:round;stroke-miterlimit:10;}
	.st157{fill:#808080;stroke:#000000;stroke-width:1.5;stroke-linecap:round;stroke-linejoin:round;stroke-miterlimit:10;}
	.st158{fill:#CCCCCC;stroke:#000000;stroke-width:1.5;stroke-linecap:round;stroke-linejoin:round;stroke-miterlimit:10;}
	.st159{fill:#F2F2F2;stroke:#000000;stroke-width:1.5;stroke-linecap:round;stroke-linejoin:round;stroke-miterlimit:10;}
	.st160{fill:none;}
	.st161{fill:none;stroke:#FFFFFF;stroke-linecap:round;stroke-miterlimit:10;}
	.st162{fill:#B3B3B3;stroke:#000000;stroke-linecap:round;stroke-linejoin:round;stroke-miterlimit:10;}
	.st163{fill:#808080;stroke:#000000;stroke-linecap:round;stroke-linejoin:round;stroke-miterlimit:10;}
	.st164{fill:#CCCCCC;stroke:#000000;stroke-linecap:round;stroke-linejoin:round;stroke-miterlimit:10;}
	.st165{fill:#F2F2F2;stroke:#000000;stroke-linecap:round;stroke-linejoin:round;stroke-miterlimit:10;}
</style>
<g id="INCOME_icon">
</g>
<g id="CRM_icon">
</g>
<g id="SUPPORT_icon">
</g>
<g id="NEW_CUSTOMER_icon">
	<g>
		<circle class="st7" cx="75" cy="75" r="62.5"/>
		<g>
			<defs>
				<circle id="SVGID_45_" cx="75" cy="75" r="62.5"/>
			</defs>
			<clipPath id="SVGID_1_">
				<use xlink:href="#SVGID_45_"  style="overflow:visible;"/>
			</clipPath>
			<g style="clip-path:url(#SVGID_1_);">
				<path class="st139" d="M87.8,34.9c0-4.1-4.4-7.5-7.9-7.5c-0.2,0-0.3,0-0.5,0c-2.9,0-5.9,0-8.8,0c-0.2,0-0.3,0-0.5,0
					c-3.5,0-7.9,3.4-7.9,7.5c0,3.4,0.7,6.8,1.3,10.2c0.2,5.8,0.7,11.6,1.2,17.4c3.2,2.8,6.7,4.4,10.3,4.4s7.1-1.6,10.3-4.4
					c0.5-5.8,1-11.6,1.2-17.4C87.1,41.7,87.8,38.3,87.8,34.9z"/>
				<path class="st7" d="M79.9,27.4c-3.3,0-6.5,0-9.8,0c-1.2,0-2.6,0.6-3.8,1.5c0.3,1.9,4.1,3.3,8.8,3.3s8.5-1.5,8.8-3.3
					C82.5,27.9,81.2,27.4,79.9,27.4z"/>
				<path class="st9" d="M67.9,61.3c-0.3-5.5-0.4-11.1-0.8-16.6c-0.3-3.3-0.9-6.5-0.9-9.7c0-4,3-7.2,5.5-7.2c-0.1,0-0.1,0-0.2,0
					c-0.1,0-0.3,0-0.4,0c-2.9,0-6.5,3.2-6.4,7.2c0,3.2,0.8,6.5,1.1,9.7c0.5,5.5,0.5,11.1,0.9,16.6c2.6,2.7,5.4,4.2,8.4,4.2
					C72.5,65.5,70.1,64,67.9,61.3z"/>
				<path class="st6" d="M79,27.7c-0.1,0-0.3,0-0.4,0c-0.1,0-0.1,0-0.2,0c2.4,0,5.5,3.2,5.5,7.2c0,3.2-0.7,6.5-0.9,9.7
					c-0.4,5.5-0.5,11.1-0.8,16.6c-2.2,2.7-4.6,4.2-7.1,4.2c3,0,5.8-1.5,8.4-4.2c0.4-5.5,0.4-11.1,0.9-16.6c0.3-3.3,1.1-6.5,1.1-9.7
					C85.5,30.9,81.9,27.7,79,27.7z"/>
				<path class="st140" d="M87.8,34.9c0-4.1-4.4-7.5-7.9-7.5c-0.2,0-0.3,0-0.5,0c-2.9,0-5.9,0-8.8,0c-0.2,0-0.3,0-0.5,0
					c-3.5,0-7.9,3.4-7.9,7.5c0,3.4,1,6.8,1.3,10.2c0.6,5.8,0.7,11.6,1.2,17.4c3.2,2.8,6.7,4.4,10.3,4.4s7.1-1.6,10.3-4.4
					c0.5-5.8,0.5-11.6,1.2-17.4C86.8,41.7,87.8,38.3,87.8,34.9z"/>
				<circle class="st139" cx="75" cy="22.7" r="6.2"/>
				<circle class="st140" cx="75" cy="22.7" r="6.2"/>
				<ellipse class="st7" cx="75" cy="19.6" rx="3.3" ry="2.1"/>
				<path class="st9" d="M76.2,27.1c-3.1,0-5.6-2.5-5.6-5.6c0-0.3,0-0.5,0.1-0.8c-0.3,0.6-0.4,1.3-0.4,2c0,2.7,2.2,4.8,4.8,4.8
					c0.8,0,1.5-0.2,2.1-0.5C76.8,27.1,76.5,27.1,76.2,27.1z"/>
				<path class="st6" d="M73.8,18.2c3.1,0,5.6,2.5,5.6,5.6c0,0.4,0,0.7-0.1,1.1c0.4-0.7,0.6-1.4,0.6-2.3c0-2.7-2.2-4.9-4.9-4.9
					c-0.7,0-1.5,0.2-2.1,0.5C73.2,18.3,73.5,18.2,73.8,18.2z"/>
			</g>
			<g style="clip-path:url(#SVGID_1_);">
				<path class="st135" d="M113,46.1c0.1-4.8-5.1-8.8-9.2-8.8c-0.2,0-0.4,0-0.6,0c-3.4,0-6.9,0-10.3,0c-0.2,0-0.4,0-0.6,0
					c-4.1,0-9.3,4-9.2,8.8c0.1,4,0.8,7.9,1.6,11.9c0.2,6.8,0.8,13.6,1.3,20.4c3.7,3.3,7.8,5.1,12,5.1s8.3-1.8,12-5.1
					c0.6-6.8,1.2-13.6,1.3-20.4C112.1,54,112.9,50.1,113,46.1z"/>
				<path class="st124" d="M103.8,37.3c-3.8,0-7.6,0-11.5,0c-1.5,0-3,0.7-4.5,1.8C88.1,41.3,92.6,43,98,43c5.5,0,9.9-1.7,10.2-3.9
					C106.8,37.9,105.2,37.3,103.8,37.3z"/>
				<path class="st130" d="M89.7,76.9c-0.4-6.5-0.4-13-0.9-19.4c-0.3-3.8-1.1-7.6-1.1-11.4c0-4.6,3.5-8.4,6.4-8.4
					c-0.1,0-0.2,0-0.2,0c-0.2,0-0.3,0-0.5,0c-3.3,0-7.6,3.8-7.5,8.4c0,3.8,0.9,7.6,1.3,11.4c0.6,6.5,0.6,13,1.1,19.4
					c3,3.1,6.3,4.9,9.8,4.9C95.1,81.8,92.3,80,89.7,76.9z"/>
				<path class="st127" d="M102.7,37.7c-0.2,0-0.3,0-0.5,0c-0.1,0-0.2,0-0.2,0c2.8,0,6.4,3.8,6.4,8.4c0,3.8-0.8,7.6-1.1,11.4
					c-0.5,6.5-0.5,13-0.9,19.4c-2.6,3.1-5.4,4.9-8.3,4.9c3.5,0,6.8-1.7,9.8-4.9c0.5-6.5,0.5-13,1.1-19.4c0.3-3.8,1.2-7.6,1.3-11.4
					C110.3,41.5,106,37.7,102.7,37.7z"/>
				<path class="st141" d="M113,46.1c0.1-4.8-5.1-8.8-9.2-8.8c-0.2,0-0.4,0-0.6,0c-3.4,0-6.9,0-10.3,0c-0.2,0-0.4,0-0.6,0
					c-4.1,0-9.3,4-9.2,8.8c0.1,4,1.1,7.9,1.6,11.9c0.7,6.7,0.8,13.6,1.3,20.4c3.7,3.3,7.8,5.1,12,5.1s8.3-1.8,12-5.1
					c0.6-6.8,0.6-13.6,1.3-20.4C111.8,54,112.9,50.1,113,46.1z"/>
				<circle class="st135" cx="98" cy="31.8" r="7.3"/>
				<circle class="st141" cx="98" cy="31.8" r="7.3"/>
				<ellipse class="st124" cx="98" cy="28.2" rx="3.8" ry="2.4"/>
				<path class="st130" d="M99.4,37c-3.6,0-6.6-2.9-6.6-6.6c0-0.3,0-0.6,0.1-0.9c-0.3,0.7-0.5,1.5-0.5,2.3c0,3.1,2.5,5.6,5.6,5.6
					c0.9,0,1.7-0.2,2.5-0.6C100.1,37,99.8,37,99.4,37z"/>
				<path class="st127" d="M96.6,26.6c3.6,0,6.6,2.9,6.6,6.6c0,0.4,0,0.9-0.1,1.3c0.4-0.8,0.7-1.7,0.7-2.6c0-3.1-2.5-5.7-5.7-5.7
					c-0.9,0-1.7,0.2-2.4,0.6C95.9,26.6,96.3,26.6,96.6,26.6z"/>
			</g>
			<g style="clip-path:url(#SVGID_1_);">
				<path class="st135" d="M66.9,46.1c0.1-4.8-5.1-8.8-9.2-8.8c-0.2,0-0.4,0-0.6,0c-3.4,0-6.9,0-10.3,0c-0.2,0-0.4,0-0.6,0
					c-4.1,0-9.3,4-9.2,8.8c0.1,4,0.8,7.9,1.6,11.9c0.2,6.8,0.8,13.6,1.3,20.4c3.7,3.3,7.8,5.1,12,5.1s8.3-1.8,12-5.1
					c0.6-6.8,1.2-13.6,1.3-20.4C66.1,54,66.9,50.1,66.9,46.1z"/>
				<path class="st124" d="M57.7,37.3c-3.8,0-7.6,0-11.5,0c-1.5,0-3,0.7-4.5,1.8C42,41.3,46.5,43,52,43s9.9-1.7,10.2-3.9
					C60.8,37.9,59.2,37.3,57.7,37.3z"/>
				<path class="st130" d="M43.6,76.9c-0.4-6.5-0.4-13-0.9-19.4c-0.3-3.8-1.1-7.6-1.1-11.4c0-4.6,3.5-8.4,6.4-8.4
					c-0.1,0-0.2,0-0.2,0c-0.2,0-0.3,0-0.5,0c-3.3,0-7.6,3.8-7.5,8.4c0,3.8,0.9,7.6,1.3,11.4c0.6,6.5,0.6,13,1.1,19.4
					c3,3.1,6.3,4.9,9.8,4.9C49,81.8,46.2,80,43.6,76.9z"/>
				<path class="st127" d="M56.6,37.7c-0.2,0-0.3,0-0.5,0c-0.1,0-0.2,0-0.2,0c2.8,0,6.4,3.8,6.4,8.4c0,3.8-0.8,7.6-1.1,11.4
					c-0.5,6.5-0.5,13-0.9,19.4c-2.6,3.1-5.4,4.9-8.3,4.9c3.5,0,6.8-1.7,9.8-4.9c0.5-6.5,0.5-13,1.1-19.4c0.3-3.8,1.2-7.6,1.3-11.4
					C64.2,41.5,60,37.7,56.6,37.7z"/>
				<path class="st141" d="M66.9,46.1c0.1-4.8-5.1-8.8-9.2-8.8c-0.2,0-0.4,0-0.6,0c-3.4,0-6.9,0-10.3,0c-0.2,0-0.4,0-0.6,0
					c-4.1,0-9.3,4-9.2,8.8c0.1,4,1.1,7.9,1.6,11.9c0.7,6.7,0.8,13.6,1.3,20.4c3.7,3.3,7.8,5.1,12,5.1s8.3-1.8,12-5.1
					c0.6-6.8,0.6-13.6,1.3-20.4C65.8,54,66.9,50.1,66.9,46.1z"/>
				<circle class="st135" cx="52" cy="31.8" r="7.3"/>
				<circle class="st141" cx="52" cy="31.8" r="7.3"/>
				<ellipse class="st124" cx="52" cy="28.2" rx="3.8" ry="2.4"/>
				<path class="st130" d="M53.3,37c-3.6,0-6.6-2.9-6.6-6.6c0-0.3,0-0.6,0.1-0.9c-0.3,0.7-0.5,1.5-0.5,2.3c0,3.1,2.5,5.6,5.6,5.6
					c0.9,0,1.7-0.2,2.5-0.6C54.1,37,53.7,37,53.3,37z"/>
				<path class="st127" d="M50.5,26.6c3.6,0,6.6,2.9,6.6,6.6c0,0.4,0,0.9-0.1,1.3c0.4-0.8,0.7-1.7,0.7-2.6c0-3.1-2.5-5.7-5.7-5.7
					c-0.9,0-1.7,0.2-2.4,0.6C49.9,26.6,50.2,26.6,50.5,26.6z"/>
			</g>
			<g style="clip-path:url(#SVGID_1_);">
				<g>
					<path class="st134" d="M93.7,68.1c0.1-6-6.4-11-11.5-11c-0.2,0-0.5,0-0.7,0c-4.3,0-8.6,0-12.9,0c-0.2,0-0.5,0-0.7,0
						c-5.1,0-11.6,4.9-11.5,11c0.1,5,1.1,9.9,2,14.9c0.2,8.5,1,16.9,1.7,25.4c4.6,4.1,9.7,6.4,15,6.4c5.3,0,10.4-2.3,15-6.4
						c0.7-8.5,1.4-16.9,1.7-25.4C92.6,78,93.6,73,93.7,68.1z"/>
					<path class="st125" d="M82.2,57.1c-4.8,0-9.5,0-14.3,0c-1.8,0-3.8,0.8-5.6,2.2c0.4,2.7,5.9,4.9,12.8,4.9s12.4-2.2,12.8-4.9
						C86,57.9,84,57.1,82.2,57.1z"/>
					<path class="st131" d="M64.6,106.5c-0.5-8.1-0.5-16.2-1.2-24.3c-0.4-4.8-1.3-9.5-1.4-14.2c0-5.8,4.4-10.5,8-10.5
						c-0.1,0-0.2,0-0.3,0c-0.2,0-0.4,0-0.6,0c-4.2,0-9.4,4.7-9.4,10.5c0.1,4.7,1.2,9.4,1.6,14.2c0.7,8.1,0.8,16.2,1.4,24.3
						c3.8,3.9,7.9,6.1,12.2,6.1C71.3,112.6,67.8,110.4,64.6,106.5z"/>
					<path class="st128" d="M80.8,57.6c-0.2,0-0.4,0-0.6,0c-0.1,0-0.2,0-0.3,0c3.6,0,8,4.7,8,10.5c0,4.7-1,9.4-1.4,14.2
						c-0.6,8.1-0.7,16.2-1.2,24.3c-3.2,3.9-6.7,6.1-10.4,6.1c4.3,0,8.5-2.2,12.2-6.1c0.6-8.1,0.6-16.2,1.4-24.3
						c0.4-4.8,1.5-9.5,1.6-14.2C90.3,62.3,85,57.6,80.8,57.6z"/>
					<path class="st142" d="M93.7,68.1c0.1-6-6.4-11-11.5-11c-0.2,0-0.5,0-0.7,0c-4.3,0-8.6,0-12.9,0c-0.2,0-0.5,0-0.7,0
						c-5.1,0-11.6,4.9-11.5,11c0.1,5,1.4,9.9,2,14.9c0.9,8.4,1,16.9,1.7,25.4c4.6,4.1,9.7,6.4,15,6.4c5.3,0,10.4-2.3,15-6.4
						c0.7-8.5,0.8-17,1.7-25.4C92.2,77.9,93.6,73,93.7,68.1z"/>
					<circle class="st134" cx="75" cy="50.3" r="9.1"/>
					<circle class="st142" cx="75" cy="50.3" r="9.1"/>
					<ellipse class="st125" cx="75" cy="45.7" rx="4.8" ry="3"/>
					<path class="st131" d="M76.7,56.7c-4.5,0-8.2-3.7-8.2-8.2c0-0.4,0-0.8,0.1-1.1c-0.4,0.9-0.6,1.9-0.6,2.9c0,3.9,3.2,7,7,7
						c1.1,0,2.1-0.3,3.1-0.7C77.6,56.7,77.2,56.7,76.7,56.7z"/>
					<path class="st128" d="M73.2,43.8c4.5,0,8.2,3.7,8.2,8.2c0,0.5-0.1,1.1-0.2,1.6c0.5-1,0.8-2.1,0.8-3.3c0-3.9-3.2-7.1-7.1-7.1
						c-1.1,0-2.1,0.3-3,0.7C72.4,43.8,72.8,43.8,73.2,43.8z"/>
				</g>
				<g>
					<path class="st134" d="M134,68.1c0.1-6-6.4-11-11.5-11c-0.2,0-0.5,0-0.7,0c-4.3,0-8.6,0-12.9,0c-0.2,0-0.5,0-0.7,0
						c-5.1,0-11.6,4.9-11.5,11c0.1,5,1.1,9.9,2,14.9c0.2,8.5,1,16.9,1.7,25.4c4.6,4.1,9.7,6.4,15,6.4s10.4-2.3,15-6.4
						c0.7-8.5,1.4-16.9,1.7-25.4C133,78,133.9,73,134,68.1z"/>
					<path class="st125" d="M122.5,57.1c-4.8,0-9.5,0-14.3,0c-1.8,0-3.8,0.8-5.6,2.2c0.4,2.7,5.9,4.9,12.8,4.9
						c6.8,0,12.4-2.2,12.8-4.9C126.3,57.9,124.3,57.1,122.5,57.1z"/>
					<path class="st131" d="M104.9,106.5c-0.5-8.1-0.5-16.2-1.2-24.3c-0.4-4.8-1.3-9.5-1.4-14.2c0-5.8,4.4-10.5,8-10.5
						c-0.1,0-0.2,0-0.3,0c-0.2,0-0.4,0-0.6,0c-4.2,0-9.4,4.7-9.4,10.5c0.1,4.7,1.2,9.4,1.6,14.2c0.7,8.1,0.8,16.2,1.4,24.3
						c3.8,3.9,7.9,6.1,12.2,6.1C111.7,112.6,108.2,110.4,104.9,106.5z"/>
					<path class="st128" d="M121.2,57.6c-0.2,0-0.4,0-0.6,0c-0.1,0-0.2,0-0.3,0c3.6,0,8,4.7,8,10.5c0,4.7-1,9.4-1.4,14.2
						c-0.6,8.1-0.7,16.2-1.2,24.3c-3.2,3.9-6.7,6.1-10.4,6.1c4.3,0,8.5-2.2,12.2-6.1c0.6-8.1,0.6-16.2,1.4-24.3
						c0.4-4.8,1.5-9.5,1.6-14.2C130.6,62.3,125.4,57.6,121.2,57.6z"/>
					<path class="st142" d="M134,68.1c0.1-6-6.4-11-11.5-11c-0.2,0-0.5,0-0.7,0c-4.3,0-8.6,0-12.9,0c-0.2,0-0.5,0-0.7,0
						c-5.1,0-11.6,4.9-11.5,11c0.1,5,1.4,9.9,2,14.9c0.9,8.4,1,16.9,1.7,25.4c4.6,4.1,9.7,6.4,15,6.4s10.4-2.3,15-6.4
						c0.7-8.5,0.8-17,1.7-25.4C132.6,77.9,133.9,73,134,68.1z"/>
					<circle class="st134" cx="115.4" cy="50.3" r="9.1"/>
					<circle class="st142" cx="115.4" cy="50.3" r="9.1"/>
					<ellipse class="st125" cx="115.4" cy="45.7" rx="4.8" ry="3"/>
					<path class="st131" d="M117.1,56.7c-4.5,0-8.2-3.7-8.2-8.2c0-0.4,0-0.8,0.1-1.1c-0.4,0.9-0.6,1.9-0.6,2.9c0,3.9,3.2,7,7,7
						c1.1,0,2.1-0.3,3.1-0.7C118,56.7,117.5,56.7,117.1,56.7z"/>
					<path class="st128" d="M113.6,43.8c4.5,0,8.2,3.7,8.2,8.2c0,0.5-0.1,1.1-0.2,1.6c0.5-1,0.8-2.1,0.8-3.3c0-3.9-3.2-7.1-7.1-7.1
						c-1.1,0-2.1,0.3-3,0.7C112.7,43.8,113.1,43.8,113.6,43.8z"/>
				</g>
				<g>
					<path class="st134" d="M53.3,68.1c0.1-6-6.4-11-11.5-11c-0.2,0-0.5,0-0.7,0c-4.3,0-8.6,0-12.9,0c-0.2,0-0.5,0-0.7,0
						c-5.1,0-11.6,4.9-11.5,11c0.1,5,1.1,9.9,2,14.9c0.2,8.5,1,16.9,1.7,25.4c4.6,4.1,9.7,6.4,15,6.4s10.4-2.3,15-6.4
						c0.7-8.5,1.4-16.9,1.7-25.4C52.3,78,53.2,73,53.3,68.1z"/>
					<path class="st125" d="M41.8,57.1c-4.8,0-9.5,0-14.3,0c-1.8,0-3.8,0.8-5.6,2.2c0.4,2.7,5.9,4.9,12.8,4.9S47,62,47.4,59.3
						C45.6,57.9,43.6,57.1,41.8,57.1z"/>
					<path class="st131" d="M24.2,106.5c-0.5-8.1-0.5-16.2-1.2-24.3c-0.4-4.8-1.3-9.5-1.4-14.2c0-5.8,4.4-10.5,8-10.5
						c-0.1,0-0.2,0-0.3,0c-0.2,0-0.4,0-0.6,0c-4.2,0-9.4,4.7-9.4,10.5c0.1,4.7,1.2,9.4,1.6,14.2c0.7,8.1,0.8,16.2,1.4,24.3
						c3.8,3.9,7.9,6.1,12.2,6.1C31,112.6,27.5,110.4,24.2,106.5z"/>
					<path class="st128" d="M40.5,57.6c-0.2,0-0.4,0-0.6,0c-0.1,0-0.2,0-0.3,0c3.6,0,8,4.7,8,10.5c0,4.7-1,9.4-1.4,14.2
						c-0.6,8.1-0.7,16.2-1.2,24.3c-3.2,3.9-6.7,6.1-10.4,6.1c4.3,0,8.5-2.2,12.2-6.1c0.6-8.1,0.6-16.2,1.4-24.3
						c0.4-4.8,1.5-9.5,1.6-14.2C49.9,62.3,44.7,57.6,40.5,57.6z"/>
					<path class="st142" d="M53.3,68.1c0.1-6-6.4-11-11.5-11c-0.2,0-0.5,0-0.7,0c-4.3,0-8.6,0-12.9,0c-0.2,0-0.5,0-0.7,0
						c-5.1,0-11.6,4.9-11.5,11c0.1,5,1.4,9.9,2,14.9c0.9,8.4,1,16.9,1.7,25.4c4.6,4.1,9.7,6.4,15,6.4s10.4-2.3,15-6.4
						c0.7-8.5,0.8-17,1.7-25.4C51.9,77.9,53.2,73,53.3,68.1z"/>
					<circle class="st134" cx="34.6" cy="50.3" r="9.1"/>
					<circle class="st142" cx="34.6" cy="50.3" r="9.1"/>
					<ellipse class="st125" cx="34.6" cy="45.7" rx="4.8" ry="3"/>
					<path class="st131" d="M36.4,56.7c-4.5,0-8.2-3.7-8.2-8.2c0-0.4,0-0.8,0.1-1.1c-0.4,0.9-0.6,1.9-0.6,2.9c0,3.9,3.2,7,7,7
						c1.1,0,2.1-0.3,3.1-0.7C37.3,56.7,36.8,56.7,36.4,56.7z"/>
					<path class="st128" d="M32.9,43.8c4.5,0,8.2,3.7,8.2,8.2c0,0.5-0.1,1.1-0.2,1.6c0.5-1,0.8-2.1,0.8-3.3c0-3.9-3.2-7.1-7.1-7.1
						c-1.1,0-2.1,0.3-3,0.7C32,43.8,32.4,43.8,32.9,43.8z"/>
				</g>
			</g>
			<g style="clip-path:url(#SVGID_1_);">
				<g>
					<path class="st133" d="M74.1,90.7c0.1-7.5-8-13.7-14.4-13.7c-0.3,0-0.6,0-0.9,0c-5.4,0-10.7,0-16.1,0c-0.3,0-0.6,0-0.9,0
						c-6.4,0-14.5,6.2-14.4,13.7c0.1,6.2,1.3,12.4,2.5,18.6c0.3,10.6,1.2,21.2,2.1,31.7c5.8,5.1,12.1,8,18.8,8s13-2.8,18.8-8
						c0.9-10.6,1.8-21.2,2.1-31.7C72.8,103,74,96.9,74.1,90.7z"/>
					<path class="st126" d="M59.7,76.9c-6,0-11.9,0-17.9,0c-2.3,0-4.7,1-7,2.8c0.5,3.4,7.4,6.1,15.9,6.1s15.5-2.7,15.9-6.1
						C64.5,78,62,76.9,59.7,76.9z"/>
					<path class="st132" d="M37.8,138.7c-0.6-10.1-0.7-20.2-1.5-30.3c-0.5-6-1.6-11.8-1.7-17.7c-0.1-7.2,5.5-13.1,10-13.1
						c-0.1,0-0.2,0-0.4,0c-0.2,0-0.5,0-0.7,0c-5.2,0-11.8,5.9-11.7,13.1c0.1,5.9,1.5,11.8,2,17.7c0.9,10.1,1,20.2,1.7,30.3
						c4.7,4.9,9.9,7.6,15.3,7.6C46.2,146.3,41.8,143.6,37.8,138.7z"/>
					<path class="st129" d="M58.1,77.6c-0.2,0-0.5,0-0.7,0c-0.1,0-0.2,0-0.4,0c4.4,0,10,5.9,10,13.1c-0.1,5.9-1.2,11.8-1.7,17.7
						c-0.8,10.1-0.8,20.2-1.5,30.3c-4,4.9-8.4,7.6-13,7.6c5.4,0,10.6-2.7,15.3-7.6c0.7-10.1,0.8-20.2,1.7-30.3
						c0.5-6,1.9-11.8,2-17.7C69.9,83.5,63.3,77.6,58.1,77.6z"/>
					<path class="st143" d="M74.1,90.7c0.1-7.5-8-13.7-14.4-13.7c-0.3,0-0.6,0-0.9,0c-5.4,0-10.7,0-16.1,0c-0.3,0-0.6,0-0.9,0
						c-6.4,0-14.5,6.2-14.4,13.7c0.1,6.2,1.8,12.3,2.5,18.6c1.1,10.5,1.2,21.2,2.1,31.7c5.8,5.1,12.1,8,18.8,8s13-2.8,18.8-8
						c0.9-10.6,1-21.2,2.1-31.7C72.3,103,74,96.9,74.1,90.7z"/>
					<circle class="st133" cx="50.8" cy="68.4" r="11.4"/>
					<circle class="st143" cx="50.8" cy="68.4" r="11.4"/>
					<ellipse class="st126" cx="50.8" cy="62.8" rx="6" ry="3.8"/>
					<path class="st132" d="M53,76.5c-5.7,0-10.3-4.6-10.3-10.3c0-0.5,0-0.9,0.1-1.4c-0.5,1.1-0.8,2.3-0.8,3.6
						c0,4.9,3.9,8.8,8.8,8.8c1.4,0,2.7-0.3,3.8-0.9C54.1,76.4,53.5,76.5,53,76.5z"/>
					<path class="st129" d="M48.6,60.3c5.7,0,10.3,4.6,10.3,10.3c0,0.7-0.1,1.3-0.2,2c0.6-1.2,1-2.6,1-4.1c0-4.9-4-8.9-8.9-8.9
						c-1.4,0-2.6,0.3-3.8,0.9C47.5,60.4,48,60.3,48.6,60.3z"/>
				</g>
				<g>
					<path class="st133" d="M122.5,90.7c0.1-7.5-8-13.7-14.4-13.7c-0.3,0-0.6,0-0.9,0c-5.4,0-10.7,0-16.1,0c-0.3,0-0.6,0-0.9,0
						c-6.4,0-14.5,6.2-14.4,13.7c0.1,6.2,1.3,12.4,2.5,18.6c0.3,10.6,1.2,21.2,2.1,31.7c5.8,5.1,12.1,8,18.8,8s13-2.8,18.8-8
						c0.9-10.6,1.8-21.2,2.1-31.7C121.2,103,122.4,96.9,122.5,90.7z"/>
					<path class="st126" d="M108.1,76.9c-6,0-11.9,0-17.9,0c-2.3,0-4.7,1-7,2.8c0.5,3.4,7.4,6.1,15.9,6.1s15.5-2.7,15.9-6.1
						C112.9,78,110.4,76.9,108.1,76.9z"/>
					<path class="st132" d="M86.2,138.7c-0.6-10.1-0.7-20.2-1.5-30.3c-0.5-6-1.6-11.8-1.7-17.7c-0.1-7.2,5.5-13.1,10-13.1
						c-0.1,0-0.2,0-0.4,0c-0.2,0-0.5,0-0.7,0c-5.2,0-11.8,5.9-11.7,13.1c0.1,5.9,1.5,11.8,2,17.7c0.9,10.1,1,20.2,1.7,30.3
						c4.7,4.9,9.9,7.6,15.3,7.6C94.6,146.3,90.2,143.6,86.2,138.7z"/>
					<path class="st129" d="M106.5,77.6c-0.2,0-0.5,0-0.7,0c-0.1,0-0.2,0-0.4,0c4.4,0,10,5.9,10,13.1c-0.1,5.9-1.2,11.8-1.7,17.7
						c-0.8,10.1-0.8,20.2-1.5,30.3c-4,4.9-8.4,7.6-13,7.6c5.4,0,10.6-2.7,15.3-7.6c0.7-10.1,0.8-20.2,1.7-30.3
						c0.5-6,1.9-11.8,2-17.7C118.3,83.5,111.7,77.6,106.5,77.6z"/>
					<path class="st143" d="M122.5,90.7c0.1-7.5-8-13.7-14.4-13.7c-0.3,0-0.6,0-0.9,0c-5.4,0-10.7,0-16.1,0c-0.3,0-0.6,0-0.9,0
						c-6.4,0-14.5,6.2-14.4,13.7c0.1,6.2,1.8,12.3,2.5,18.6c1.1,10.5,1.2,21.2,2.1,31.7c5.8,5.1,12.1,8,18.8,8s13-2.8,18.8-8
						c0.9-10.6,1-21.2,2.1-31.7C120.7,103,122.4,96.9,122.5,90.7z"/>
					<circle class="st133" cx="99.2" cy="68.4" r="11.4"/>
					<circle class="st143" cx="99.2" cy="68.4" r="11.4"/>
					<ellipse class="st126" cx="99.2" cy="62.8" rx="6" ry="3.8"/>
					<path class="st132" d="M101.3,76.5c-5.7,0-10.3-4.6-10.3-10.3c0-0.5,0-0.9,0.1-1.4c-0.5,1.1-0.8,2.3-0.8,3.6
						c0,4.9,3.9,8.8,8.8,8.8c1.4,0,2.7-0.3,3.8-0.9C102.5,76.4,101.9,76.5,101.3,76.5z"/>
					<path class="st129" d="M97,60.3c5.7,0,10.3,4.6,10.3,10.3c0,0.7-0.1,1.3-0.2,2c0.6-1.2,1-2.6,1-4.1c0-4.9-4-8.9-8.9-8.9
						c-1.4,0-2.6,0.3-3.8,0.9C95.9,60.4,96.4,60.3,97,60.3z"/>
				</g>
			</g>
		</g>
		<g>
			<path class="st0" d="M87.1,97.5c-8.1,0-16.2,0-24.2,0c-8.7,0-19.6,8.4-19.5,18.6c0.1,8.5,1.8,16.9,3.4,25.4
				C55.5,145,65,147,75,147s19.5-2,28.3-5.5c1.6-8.5,3.3-16.9,3.4-25.4C106.7,105.8,95.8,97.5,87.1,97.5z"/>
			<path class="st39" d="M87.1,97.5c-8.1,0-16.2,0-24.2,0c-3.1,0-6.4,1.1-9.5,2.9c0.6,3.5,10.1,6.2,21.6,6.2s21-2.8,21.6-6.2
				C93.6,98.5,90.2,97.5,87.1,97.5z"/>
			<path class="st20" d="M52.3,116.1c-0.1-10.2,7.8-18.6,14-18.6c-0.8,0-1.5,0-2.3,0c-7.9,0-17.9,8.4-17.8,18.6
				c0.1,8.5,1.7,16.9,3.1,25.4c8,3.5,16.6,5.5,25.7,5.5c-7.2,0-14-2-20.3-5.5C53.6,133,52.4,124.6,52.3,116.1z"/>
			<path class="st1" d="M86,97.5c-0.8,0-1.5,0-2.3,0c6.2,0,14.1,8.4,14,18.6c-0.1,8.5-1.3,16.9-2.4,25.4C89,145,82.2,147,75,147
				c9.1,0,17.8-2,25.7-5.5c1.4-8.5,3-16.9,3.1-25.4C103.9,105.8,94,97.5,86,97.5z"/>
			<polygon class="st100" points="77,112.6 81.1,106.7 68.9,106.7 73.1,112.6 68.1,136.5 75,141.5 81.9,136.5 			"/>
			<path class="st144" d="M87.1,97.5c-8.1,0-16.2,0-24.2,0c-8.7,0-19.6,8.4-19.5,18.6c0.1,8.5,1.8,16.9,3.4,25.4
				C55.5,145,65,147,75,147s19.5-2,28.3-5.5c1.6-8.5,3.3-16.9,3.4-25.4C106.7,105.8,95.8,97.5,87.1,97.5z"/>
			<g>
				<circle class="st106" cx="75" cy="86" r="15.4"/>
				<ellipse class="st39" cx="75" cy="78.3" rx="8.1" ry="5.1"/>
				<path class="st20" d="M78.2,98.1c-8.5,0-15.4-6.9-15.4-15.4c0-0.7,0.1-1.4,0.2-2.1c-0.7,1.7-1.2,3.5-1.2,5.4
					c0,7.3,5.9,13.2,13.2,13.2c2.1,0,4-0.5,5.7-1.3C79.9,98,79.1,98.1,78.2,98.1z"/>
				<path class="st1" d="M71.6,73.8c8.5,0,15.4,6.9,15.4,15.4c0,1-0.1,2-0.3,3c1-1.9,1.5-4,1.5-6.2c0-7.4-6-13.3-13.3-13.3
					c-2,0-4,0.5-5.7,1.3C70.1,73.8,70.8,73.8,71.6,73.8z"/>
			</g>
		</g>
	</g>
</g>
<g id="PARTNERS_EXPERIENCE_icon">
</g>
<g id="COST_REDUCE_icon">
</g>
</svg>
