<?xml version="1.0" encoding="utf-8"?>
<!-- Generator: Adobe Illustrator 21.1.0, SVG Export Plug-In . SVG Version: 6.00 Build 0)  -->
<svg version="1.1" xmlns="http://www.w3.org/2000/svg" xmlns:xlink="http://www.w3.org/1999/xlink" x="0px" y="0px"
	 viewBox="0 0 150 150" style="enable-background:new 0 0 150 150;" xml:space="preserve">
<style type="text/css">
	.st0{fill:#E6E6E6;}
	.st1{fill:#FFFFFF;}
	.st2{fill:none;stroke:#FCDFE0;stroke-width:2;stroke-linecap:round;stroke-linejoin:round;stroke-miterlimit:10;}
	.st3{fill:#F7A0A3;}
	.st4{fill:#F26065;}
	.st5{fill:none;stroke:#EF4046;stroke-width:2;stroke-linecap:round;stroke-linejoin:round;stroke-miterlimit:10;}
	.st6{fill:#FCDFE0;}
	.st7{fill:#FABFC1;}
	.st8{fill:url(#SVGID_1_);}
	.st9{fill:#F48084;}
	.st10{fill:url(#SVGID_2_);}
	.st11{fill:#EF4046;}
	.st12{fill:url(#SVGID_3_);}
	.st13{fill:none;stroke:#EF4046;stroke-width:3;stroke-linecap:round;stroke-linejoin:round;stroke-miterlimit:10;}
	.st14{fill:#C7353A;}
	.st15{fill:#9F2B2F;}
	.st16{fill:#782023;}
	.st17{fill:#501517;}
	.st18{fill:#280B0C;}
	.st19{fill:none;stroke:#E6E6E6;stroke-width:2;stroke-linecap:round;stroke-linejoin:round;stroke-miterlimit:10;}
	.st20{fill:#CCCCCC;}
	.st21{fill:#808080;}
	.st22{fill:none;stroke:#000000;stroke-width:2;stroke-linecap:round;stroke-linejoin:round;stroke-miterlimit:10;}
	.st23{fill:#999999;}
	.st24{fill:url(#SVGID_4_);}
	.st25{fill:none;stroke:#501517;stroke-width:2;stroke-linecap:round;stroke-linejoin:round;stroke-miterlimit:10;}
	.st26{fill:url(#SVGID_5_);}
	.st27{fill:#FFFFFF;stroke:#000000;stroke-width:2;stroke-linecap:round;stroke-linejoin:round;stroke-miterlimit:10;}
	.st28{fill:url(#SVGID_6_);}
	.st29{fill:url(#SVGID_7_);}
	.st30{fill:#ED1C24;}
	.st31{fill:#8CC63F;}
	.st32{fill:#39B54A;}
	.st33{fill:#006837;}
	.st34{fill:#F15A24;}
	.st35{fill:#009245;}
	.st36{fill:url(#SVGID_8_);}
	.st37{fill:url(#SVGID_9_);}
	.st38{fill:#B3B3B3;}
	.st39{fill:#F2F2F2;}
	.st40{fill:#F0F0F0;}
	.st41{fill:#8C8C8C;}
	.st42{fill:#666666;}
	.st43{fill:#D9D9D9;}
	.st44{fill:#EDEDED;}
	.st45{fill:url(#SVGID_10_);}
	.st46{fill:url(#SVGID_11_);}
	.st47{fill:url(#SVGID_12_);}
	.st48{opacity:0.2;fill:#EF4046;}
	.st49{fill:url(#SVGID_13_);}
	.st50{fill:url(#SVGID_14_);}
	.st51{fill:url(#SVGID_15_);}
	.st52{fill:url(#SVGID_16_);}
	.st53{fill:#4D4D4D;}
	.st54{fill:url(#SVGID_17_);}
	.st55{fill:url(#SVGID_18_);}
	.st56{fill:url(#SVGID_19_);}
	.st57{fill:url(#SVGID_20_);}
	.st58{fill:url(#SVGID_21_);}
	.st59{fill:url(#SVGID_22_);}
	.st60{fill:none;stroke:#000000;stroke-width:1.5;stroke-linecap:round;stroke-linejoin:round;stroke-miterlimit:10;}
	.st61{fill:url(#SVGID_23_);}
	.st62{fill:url(#SVGID_24_);}
	.st63{fill:none;stroke:#000000;stroke-linecap:round;stroke-linejoin:round;stroke-miterlimit:10;}
	.st64{fill:url(#SVGID_25_);}
	.st65{fill:url(#SVGID_26_);}
	.st66{clip-path:url(#SVGID_28_);}
	.st67{fill:#EC4048;}
	.st68{clip-path:url(#SVGID_30_);}
	.st69{clip-path:url(#SVGID_32_);}
	.st70{clip-path:url(#SVGID_34_);}
	.st71{clip-path:url(#SVGID_36_);}
	.st72{display:none;fill:#FABFC1;}
	.st73{clip-path:url(#SVGID_38_);}
	.st74{fill:url(#SVGID_39_);}
	.st75{fill:url(#SVGID_40_);}
	.st76{fill:#FAFAFA;}
	.st77{fill:none;stroke:#FFFFFF;stroke-miterlimit:10;stroke-dasharray:3,3;}
	.st78{fill:none;stroke:#EF4046;stroke-width:2;stroke-linecap:round;stroke-miterlimit:10;}
	.st79{opacity:0.1;}
	.st80{opacity:0.5;fill:#FFFFFF;}
	
		.st81{fill:none;stroke:#FFFFFF;stroke-width:3;stroke-linecap:round;stroke-linejoin:round;stroke-miterlimit:10;stroke-dasharray:0,5;}
	.st82{display:none;fill:none;stroke:#000000;stroke-width:1.5;stroke-linecap:round;stroke-linejoin:round;stroke-miterlimit:10;}
	.st83{fill:#C7353A;stroke:#000000;stroke-width:1.5;stroke-linecap:round;stroke-linejoin:round;stroke-miterlimit:10;}
	.st84{fill:#EF4046;stroke:#000000;stroke-width:1.5;stroke-linecap:round;stroke-linejoin:round;stroke-miterlimit:10;}
	.st85{fill:#C7353A;stroke:#000000;stroke-width:1.5;stroke-miterlimit:10;}
	.st86{fill:#EF4046;stroke:#000000;stroke-width:1.5;stroke-miterlimit:10;}
	.st87{fill:#FFFFFF;stroke:#000000;stroke-width:1.5;stroke-linecap:round;stroke-linejoin:round;stroke-miterlimit:10;}
	.st88{fill:#9F2B2F;stroke:#000000;stroke-width:1.5;stroke-linecap:round;stroke-linejoin:round;stroke-miterlimit:10;}
	.st89{opacity:0.5;fill:#C7353A;}
	.st90{fill:none;stroke:#000000;stroke-width:1.5;stroke-linejoin:round;stroke-miterlimit:10;}
	.st91{opacity:0.5;}
	.st92{fill:#EBEBEB;}
	.st93{fill:#B3B3B3;stroke:#000000;stroke-width:1.5;stroke-linejoin:round;stroke-miterlimit:10;}
	.st94{fill:#FFFFFF;stroke:#000000;stroke-width:1.5;stroke-linejoin:round;stroke-miterlimit:10;}
	.st95{fill:#EF4046;stroke:#000000;stroke-width:1.5;stroke-linejoin:round;stroke-miterlimit:10;}
	.st96{fill:#E6E6E6;stroke:#000000;stroke-width:1.5;stroke-linejoin:round;stroke-miterlimit:10;}
	.st97{fill:#C7353A;stroke:#000000;stroke-miterlimit:10;}
	.st98{fill:#EF4046;stroke:#000000;stroke-miterlimit:10;}
	.st99{fill:#C7353A;stroke:#000000;stroke-linecap:round;stroke-linejoin:round;stroke-miterlimit:10;}
	.st100{fill:#EF4046;stroke:#000000;stroke-linecap:round;stroke-linejoin:round;stroke-miterlimit:10;}
	.st101{fill:#FFFFFF;stroke:#000000;stroke-linecap:round;stroke-linejoin:round;stroke-miterlimit:10;}
	.st102{fill:none;stroke:#000000;stroke-linejoin:round;stroke-miterlimit:10;}
	.st103{fill:#B3B3B3;stroke:#000000;stroke-linejoin:round;stroke-miterlimit:10;}
	.st104{fill:#FFFFFF;stroke:#000000;stroke-linejoin:round;stroke-miterlimit:10;}
	.st105{fill:#EF4046;stroke:#000000;stroke-linejoin:round;stroke-miterlimit:10;}
	.st106{fill:#E6E6E6;stroke:#000000;stroke-linejoin:round;stroke-miterlimit:10;}
	.st107{display:none;fill:none;stroke:#000000;stroke-miterlimit:10;}
	.st108{fill:#EF4046;stroke:#999999;stroke-width:1.5;stroke-linecap:round;stroke-linejoin:round;stroke-miterlimit:10;}
	.st109{fill:none;stroke:#999999;stroke-width:1.5;stroke-miterlimit:10;}
	.st110{fill:#E6E6E6;stroke:#999999;stroke-width:1.5;stroke-linejoin:round;stroke-miterlimit:10;}
	.st111{fill:#F7A0A3;stroke:#999999;stroke-width:1.5;stroke-linecap:round;stroke-linejoin:round;stroke-miterlimit:10;}
	.st112{fill:#E6E6E6;stroke:#666666;stroke-width:1.5;stroke-linejoin:round;stroke-miterlimit:10;}
	.st113{fill:#EF4046;stroke:#666666;stroke-width:1.5;stroke-linecap:round;stroke-linejoin:round;stroke-miterlimit:10;}
	.st114{fill:none;stroke:#666666;stroke-width:1.5;stroke-miterlimit:10;}
	.st115{fill:#E6E6E6;stroke:#4D4D4D;stroke-width:1.5;stroke-linejoin:round;stroke-miterlimit:10;}
	.st116{fill:#EF4046;stroke:#4D4D4D;stroke-width:1.5;stroke-linecap:round;stroke-linejoin:round;stroke-miterlimit:10;}
	.st117{fill:none;stroke:#4D4D4D;stroke-width:1.5;stroke-miterlimit:10;}
	.st118{fill:none;stroke:#000000;stroke-width:1.5;stroke-miterlimit:10;}
	.st119{fill:none;stroke:#EF4046;stroke-width:1.5;stroke-miterlimit:10;}
	.st120{fill:#F7A0A3;stroke:#EF4046;stroke-width:1.5;stroke-linejoin:round;stroke-miterlimit:10;}
	.st121{fill:none;stroke:#B33035;stroke-width:1.5;stroke-linecap:round;stroke-linejoin:round;stroke-miterlimit:10;}
	.st122{fill:none;stroke:#782023;stroke-width:1.5;stroke-linecap:round;stroke-linejoin:round;stroke-miterlimit:10;}
	.st123{fill:none;stroke:#3C1012;stroke-width:1.5;stroke-linecap:round;stroke-linejoin:round;stroke-miterlimit:10;}
	.st124{fill:#F8CCCD;}
	.st125{fill:#F6D9DA;}
	.st126{fill:#F4E5E6;}
	.st127{fill:#FDE7E8;}
	.st128{fill:#FEEFF0;}
	.st129{fill:#FEF7F7;}
	.st130{fill:#EA9396;}
	.st131{fill:#E0A6A8;}
	.st132{fill:#D6B9BA;}
	.st133{fill:#EAD5D5;}
	.st134{fill:#EFC3C4;}
	.st135{fill:#F3B2B4;}
	.st136{clip-path:url(#SVGID_42_);}
	.st137{clip-path:url(#SVGID_44_);}
	.st138{clip-path:url(#SVGID_46_);}
	.st139{fill:#F7A0A3;stroke:#C7353A;stroke-linejoin:round;stroke-miterlimit:10;}
	.st140{fill:none;stroke:#C7353A;stroke-miterlimit:10;}
	.st141{fill:none;stroke:#B33035;stroke-linecap:round;stroke-linejoin:round;stroke-miterlimit:10;}
	.st142{fill:none;stroke:#782023;stroke-linecap:round;stroke-linejoin:round;stroke-miterlimit:10;}
	.st143{fill:none;stroke:#3C1012;stroke-linecap:round;stroke-linejoin:round;stroke-miterlimit:10;}
	.st144{fill:none;stroke:#000000;stroke-miterlimit:10;}
	.st145{clip-path:url(#SVGID_48_);}
	.st146{clip-path:url(#SVGID_50_);}
	.st147{clip-path:url(#SVGID_52_);}
	.st148{clip-path:url(#SVGID_54_);}
	.st149{clip-path:url(#SVGID_56_);}
	.st150{clip-path:url(#SVGID_58_);}
	.st151{clip-path:url(#SVGID_60_);}
	.st152{clip-path:url(#SVGID_62_);}
	.st153{clip-path:url(#SVGID_64_);}
	.st154{clip-path:url(#SVGID_66_);}
	.st155{fill:#333333;}
	.st156{fill:#B3B3B3;stroke:#000000;stroke-width:1.5;stroke-linecap:round;stroke-linejoin:round;stroke-miterlimit:10;}
	.st157{fill:#808080;stroke:#000000;stroke-width:1.5;stroke-linecap:round;stroke-linejoin:round;stroke-miterlimit:10;}
	.st158{fill:#CCCCCC;stroke:#000000;stroke-width:1.5;stroke-linecap:round;stroke-linejoin:round;stroke-miterlimit:10;}
	.st159{fill:#F2F2F2;stroke:#000000;stroke-width:1.5;stroke-linecap:round;stroke-linejoin:round;stroke-miterlimit:10;}
	.st160{fill:none;}
	.st161{fill:none;stroke:#FFFFFF;stroke-linecap:round;stroke-miterlimit:10;}
	.st162{fill:#B3B3B3;stroke:#000000;stroke-linecap:round;stroke-linejoin:round;stroke-miterlimit:10;}
	.st163{fill:#808080;stroke:#000000;stroke-linecap:round;stroke-linejoin:round;stroke-miterlimit:10;}
	.st164{fill:#CCCCCC;stroke:#000000;stroke-linecap:round;stroke-linejoin:round;stroke-miterlimit:10;}
	.st165{fill:#F2F2F2;stroke:#000000;stroke-linecap:round;stroke-linejoin:round;stroke-miterlimit:10;}
</style>
<g id="INCOME_icon">
</g>
<g id="CRM_icon">
</g>
<g id="SUPPORT_icon">
	<g>
		<circle class="st7" cx="75" cy="71.6" r="62.5"/>
		<circle class="st81" cx="75" cy="71.6" r="53.4"/>
		<polygon class="st7" points="45.6,33.3 36.7,23.2 15.5,58.1 19.8,60.2 28.3,62.5 46.2,46.3 		"/>
		<polygon class="st7" points="54.1,14 57.8,27.2 68.6,37.6 80.5,29.8 95.4,15.8 67.3,13 		"/>
		<polygon class="st7" points="107,22.3 98.3,33.8 106.4,46.1 117.1,54.7 123.3,55.7 129.4,52 123.1,36.7 109.8,21.7 		"/>
		<g>
			<g>
				<path class="st97" d="M121.8,41.2c0.3-1,1.5-0.8,2.7-0.7c1.2,0,2.4,0,2.9-1.6c0.4-1.2-0.5-2.4-1.6-2.8c-2.3-0.7-3.5,1.9-5.3,1.3
					c-1-0.3-1.4-1.3-1-2.5c0.9-2.9,5-3.4,7.5-2.6c3.5,1.1,5.9,4.3,4.7,7.9c-1,3-3.4,4.2-6.5,4l-0.3,1c-0.3,1.1-1.4,1.6-2.6,1.3
					c-1.2-0.4-1.7-1.4-1.4-2.5L121.8,41.2z M119,49.5c0.4-1.2,1.6-1.8,2.8-1.5c1.2,0.4,1.8,1.6,1.5,2.8s-1.6,1.8-2.8,1.5
					C119.3,52,118.7,50.7,119,49.5z"/>
			</g>
			<g>
				<path class="st98" d="M110.1,38.8c0-1.4,1.6-1.7,3.2-2.1c1.6-0.4,3.2-1.1,3.2-3.4c0-1.7-1.6-3-3.3-3c-3.3,0-3.8,3.9-6.4,3.9
					c-1.4,0-2.4-1.1-2.4-2.8c0-4.1,5.2-6.5,8.8-6.5c5.1,0,9.4,3.2,9.4,8.4c0,4.4-2.8,6.9-6.8,8v1.4c0,1.6-1.2,2.7-2.8,2.7
					c-1.8,0-2.8-1.1-2.8-2.7V38.8z M109.9,50.8c0-1.7,1.4-3.1,3.1-3.1c1.7,0,3.1,1.4,3.1,3.1c0,1.7-1.4,3.1-3.1,3.1
					C111.2,53.9,109.9,52.5,109.9,50.8z"/>
			</g>
		</g>
		<g>
			<path class="st99" d="M63.8,10.2h13.1c2.8,0,5,2.2,5,5v5.6c0,2.8-2.2,5-5,5h-8.6c-2.8,2.8-7.5,3.1-7.5,3.1c0.7-0.8,1-2.2,1.2-3.5
				c-1.9-0.7-3.2-2.5-3.2-4.7v-5.6C58.8,12.5,61.1,10.2,63.8,10.2z"/>
			<path class="st100" d="M80.7,7H67.7c-2.8,0-5,2.2-5,5v5.6c0,2.8,2.2,5,5,5h8.6c2.8,2.8,7.5,3.1,7.5,3.1c-0.7-0.8-1-2.2-1.2-3.5
				c1.9-0.7,3.2-2.5,3.2-4.7V12C85.8,9.3,83.5,7,80.7,7z"/>
			<g>
				<path class="st1" d="M81.2,12.3H67.3c-0.4,0-0.7-0.3-0.7-0.7v-0.1c0-0.4,0.3-0.7,0.7-0.7h13.9c0.4,0,0.7,0.3,0.7,0.7v0.1
					C81.8,12,81.5,12.3,81.2,12.3z"/>
				<path class="st1" d="M81.2,15.4H67.3c-0.4,0-0.7-0.3-0.7-0.7v-0.1c0-0.4,0.3-0.7,0.7-0.7h13.9c0.4,0,0.7,0.3,0.7,0.7v0.1
					C81.8,15.1,81.5,15.4,81.2,15.4z"/>
				<path class="st1" d="M77.2,18.6h-10c-0.4,0-0.7-0.3-0.7-0.7v-0.1c0-0.4,0.3-0.7,0.7-0.7h10c0.4,0,0.7,0.3,0.7,0.7V18
					C77.9,18.3,77.6,18.6,77.2,18.6z"/>
			</g>
		</g>
		<g>
			<g>
				<path class="st99" d="M44.3,49.9H23.6c-1.2,0-2.3-1-2.3-2.3V34.6c0-1.2,1-2.3,2.3-2.3h20.6c1.2,0,2.3,1,2.3,2.3v13.1
					C46.5,48.9,45.5,49.9,44.3,49.9z"/>
				<polyline class="st63" points="46.5,47.8 33.9,39.2 21.4,47.8 				"/>
				<polyline class="st99" points="21.4,35.2 33.9,43.9 46.5,35.2 				"/>
			</g>
			<path class="st100" d="M40.6,38.3L40.6,38.3L40.6,38.3c-0.1-0.1-0.1-0.1-0.2-0.1l-11.6-7.9l-11.6,7.9c-0.1,0-0.1,0.1-0.2,0.1l0,0
				h0c-0.5,0.4-0.8,1-0.8,1.6v13.5c0,1.1,0.9,2.1,2.1,2.1h21c1.1,0,2.1-0.9,2.1-2.1V40C41.4,39.3,41.1,38.7,40.6,38.3z"/>
			<rect x="21.3" y="27.6" class="st101" width="15.2" height="24.1"/>
			<polygon class="st11" points="39.8,52.5 17.8,52.5 17.8,41.7 28.8,50.2 39.8,41.7 			"/>
			<polyline class="st63" points="41.4,40.8 28.8,50.2 16.3,40.8 			"/>
			<polyline class="st100" points="16.3,53.4 28.8,45.7 41.4,53.4 			"/>
			<g>
				<path class="st20" d="M33.5,32.4h-9.2c-0.4,0-0.7-0.3-0.7-0.7v-0.1c0-0.4,0.3-0.7,0.7-0.7h9.2c0.4,0,0.7,0.3,0.7,0.7v0.1
					C34.1,32.1,33.8,32.4,33.5,32.4z"/>
				<path class="st20" d="M33.5,35.6h-9.2c-0.4,0-0.7-0.3-0.7-0.7v-0.1c0-0.4,0.3-0.7,0.7-0.7h9.2c0.4,0,0.7,0.3,0.7,0.7v0.1
					C34.1,35.3,33.8,35.6,33.5,35.6z"/>
				<path class="st20" d="M33.5,38.8h-9.2c-0.4,0-0.7-0.3-0.7-0.7v-0.1c0-0.4,0.3-0.7,0.7-0.7h9.2c0.4,0,0.7,0.3,0.7,0.7v0.1
					C34.1,38.5,33.8,38.8,33.5,38.8z"/>
				<path class="st20" d="M30.7,42h-6.5c-0.4,0-0.7-0.3-0.7-0.7v-0.1c0-0.4,0.3-0.7,0.7-0.7h6.5c0.4,0,0.7,0.3,0.7,0.7v0.1
					C31.4,41.7,31.1,42,30.7,42z"/>
			</g>
		</g>
		<g>
			<path class="st11" d="M64.7,51.8c1.5-3.5,4.5-4.9,10.2-5.2c5.4-0.2,10.8,1.8,14.9,5.9c4.1,4.1,6.5,5.7,6.6,9.9
				c0.1,2.1-0.3,3.7,2.7,5.1s3.8,0.2,3.4,3.7c-0.4,3.5,3.7,3.7,3,7.4c-0.7,3.7,0.9,6.8,2.6,8.3c1.7,1.5,1.5,3.5,0.6,5.2
				c-0.9,1.7-3.7,3.5-1.7,5.6c2,2,2.2,5.4-0.4,7c-2.6,1.7-5.4,0.9-4.4,5c0.9,4.1,2.4,8.1-1.5,7.2s-9.5,0.4-12.1,2.2
				c-2.6,1.9-27.7-2.4-27.7-2.4s-14.2,0.7-13.7-2.6c0.6-3.3,0.8-4.5-1.6-5.6c-4.7-2.1-0.5-2.1-3.7-7.2c-1.9-3.1,1.2-4.6,2.5-7
				c1.3-2.5-6.2-3.9-1.7-9.6c0.9-1.1,5.3-3.1,3-7.6c-0.4-0.8-1.1-4.6,1.1-5.7c2.2-1.1,1.4-2.6,2.1-5.1c0.6-2.3,1.5-3.1,4.5-4.3
				C55.4,61.2,55.9,49.9,64.7,51.8z"/>
			<path class="st89" d="M58.8,85.8c0,0,4.3,12.7,0,18.6c-5.3,7.3-11.4,8.2-11.4,8.2l-0.3,1.5l4.6,4.4l49.3,1l2.1-5.3
				c0,0-20.1-6-15.6-23.4L58.8,85.8z"/>
			<path class="st102" d="M64.7,51.8c1.5-3.5,4.5-4.9,10.2-5.2c5.4-0.2,10.8,1.8,14.9,5.9c4.1,4.1,6.5,5.7,6.6,9.9
				c0.1,2.1-0.3,3.7,2.7,5.1s3.8,0.2,3.4,3.7c-0.4,3.5,3.7,3.7,3,7.4c-0.7,3.7,0.9,6.8,2.6,8.3c1.7,1.5,1.5,3.5,0.6,5.2
				c-0.9,1.7-3.7,3.5-1.7,5.6c2,2,2.2,5.4-0.4,7c-2.6,1.7-5.4,0.9-4.4,5c0.9,4.1,2.4,8.1-1.5,7.2s-9.5,0.4-12.1,2.2
				c-2.6,1.9-27.7-2.4-27.7-2.4s-14.2,0.7-13.7-2.6c0.6-3.3,0.8-4.5-1.6-5.6c-4.7-2.1-0.5-2.1-3.7-7.2c-1.9-3.1,1.2-4.6,2.5-7
				c1.3-2.5-6.2-3.9-1.7-9.6c0.9-1.1,5.3-3.1,3-7.6c-0.4-0.8-1.1-4.6,1.1-5.7c2.2-1.1,1.4-2.6,2.1-5.1c0.6-2.3,1.5-3.1,4.5-4.3
				C55.4,61.2,55.9,49.9,64.7,51.8z"/>
			<g class="st91">
				<g>
					<g>
						<g>
							<path class="st14" d="M53.4,79.6c0.3,0.5,0.4,1.2,0.1,1.8c-0.2,0.6-0.6,0.9-0.9,1.2c-0.6,0.6-1.1,1.1-1.6,1.5
								c-0.9,0.8-1.6,1.3-1.7,1.2c-0.1-0.1,0.3-0.8,1-1.8c0.4-0.5,0.8-1.1,1.4-1.7c0.3-0.3,0.5-0.6,0.6-0.9c0.1-0.2,0.1-0.5-0.1-0.8
								c-0.3-0.7-1-1.2-1.6-2c-0.3-0.4-0.5-0.9-0.5-1.3c0-0.5,0.1-0.9,0.2-1.2c0.3-0.7,0.8-1,1.2-1.2c0.4-0.1,0.6-0.1,0.6,0
								c0.1,0.2-0.7,0.5-1,1.5c-0.1,0.5-0.1,1,0.4,1.6c0.2,0.3,0.5,0.5,0.8,0.9C52.8,78.6,53.1,79,53.4,79.6z"/>
						</g>
					</g>
				</g>
				<g>
					<g>
						<g>
							<path class="st14" d="M52,97.2c-0.4,0.7-0.9,1-1.2,1.3c-0.4,0.3-0.7,0.6-0.8,0.8c-0.3,0.5-0.1,1.2,0.2,1.7
								c0.3,0.5,0.8,0.8,1.1,1c0.3,0.2,0.5,0.4,0.4,0.5c0,0.1-0.3,0.1-0.7,0c-0.4-0.1-1-0.3-1.6-0.9c-0.3-0.3-0.6-0.7-0.7-1.2
								c-0.1-0.5-0.2-1.1,0.1-1.7c0.6-1.1,1.7-1.6,2-2.2c0.1-0.3,0.1-0.5-0.1-0.8c-0.2-0.3-0.5-0.6-0.8-0.8
								c-0.7-0.5-1.5-1.1-1.9-1.9c-0.3-0.9,0-1.6,0.4-1.9c0.4-0.3,0.7-0.2,0.7-0.2c0,0.1-0.2,0.2-0.3,0.5c-0.1,0.3-0.1,0.8,0.1,1.2
								c0.3,0.4,0.9,0.8,1.7,1.3c0.4,0.3,0.9,0.6,1.2,1.2C52.2,95.5,52.4,96.5,52,97.2z"/>
						</g>
					</g>
				</g>
				<g>
					<g>
						<g>
							<path class="st14" d="M57.9,90.5c0.2,0.4,0.3,0.9,0.2,1.4c-0.1,0.5-0.3,0.8-0.4,1.1c-0.4,0.6-0.8,1-1,1.3
								c-0.5,0.7-0.8,1.6-1,2.2c-0.1,0.7,0,1.2,0.2,1.5c0.2,0.3,0.4,0.5,0.3,0.6c0,0.1-0.3,0.2-0.8-0.2c-0.4-0.3-0.8-1.1-0.8-2
								c0-0.9,0.2-2,0.9-3c0.3-0.5,0.7-0.9,0.9-1.3c0.2-0.4,0.3-0.7,0.1-0.9c-0.1-0.2-0.6-0.5-1.1-0.9c-0.5-0.3-1.1-1-1.3-1.6
								c-0.4-1.3,0.1-2.5,0.6-3.2c0.5-0.7,1-1.2,1.4-1.4c0.4-0.3,0.6-0.4,0.7-0.3c0.1,0.1,0,0.3-0.2,0.7c-0.2,0.4-0.6,0.9-0.9,1.6
								c-0.3,0.6-0.4,1.5-0.2,2.2c0.1,0.4,0.3,0.6,0.8,0.8C56.8,89.4,57.4,89.6,57.9,90.5z"/>
						</g>
					</g>
				</g>
				<g>
					<g>
						<g>
							<path class="st14" d="M51.4,106.7c0.5,0.9,0.4,1.9,0.3,2.7c-0.2,0.8-0.4,1.4-0.6,1.9c-0.4,1-0.4,1.6-0.5,1.7
								c-0.1,0-0.4-0.7-0.2-1.9c0.1-1.1,0.8-2.7,0.1-3.8c-0.2-0.3-0.4-0.5-0.7-0.7c-0.3-0.2-0.6-0.2-0.9-0.3c-0.7-0.1-1.5-0.3-2-0.8
								c-0.5-0.5-0.5-1.2-0.3-1.5c0.2-0.3,0.5-0.3,0.5-0.3c0,0.1-0.1,0.2-0.1,0.4c0,0.2,0.1,0.6,0.4,0.8c0.3,0.2,0.9,0.3,1.6,0.4
								c0.4,0.1,0.8,0.1,1.3,0.4C50.7,105.9,51.1,106.3,51.4,106.7z"/>
						</g>
					</g>
				</g>
				<g>
					<g>
						<g>
							<path class="st14" d="M58.1,68.4c-0.3,0.5-0.7,0.8-1,1c-0.4,0.2-0.7,0.3-1,0.4c-0.3,0.1-0.5,0.2-0.7,0.3
								c-0.2,0.1-0.3,0.2-0.5,0.3c-0.5,0.6-0.7,1.4-0.5,2.1c0.1,0.7,0.4,1.3,0.6,1.7c0.2,0.4,0.3,0.7,0.2,0.7
								c-0.1,0.1-0.4,0-0.7-0.3c-0.4-0.3-0.9-0.9-1.3-1.8c-0.3-0.9-0.4-2.3,0.5-3.4c0.2-0.3,0.6-0.6,0.9-0.7
								c0.3-0.2,0.6-0.3,0.9-0.4c0.6-0.2,1-0.4,1.1-0.6c0-0.1,0.1-0.2,0-0.3c0-0.2-0.1-0.4-0.3-0.5c-0.3-0.4-0.8-0.9-1.1-1.6
								c-0.6-1.4,0-2.8,0.8-3.5c0.8-0.7,1.6-0.8,2.1-0.8c0.5,0,0.8,0.2,0.8,0.3c0,0.1-0.3,0.2-0.7,0.4c-0.4,0.2-1,0.5-1.3,1
								c-0.4,0.5-0.6,1.4-0.2,2c0.2,0.3,0.5,0.7,1,1.2c0.2,0.3,0.4,0.6,0.6,1.1C58.3,67.3,58.3,67.9,58.1,68.4z"/>
						</g>
					</g>
				</g>
				<g>
					<g>
						<g>
							<path class="st14" d="M87.8,64.6c-0.5,0.3-0.8,0.7-1,1c-0.2,0.3-0.2,0.7-0.2,1.1c0.1,0.8,0.7,1.2,1.2,1.2
								c0.6,0,1.1-0.2,1.4-0.5c0.3-0.3,0.4-0.5,0.5-0.5c0.1,0,0.2,0.3,0,0.8c-0.2,0.5-0.8,1.1-1.8,1.3c-0.5,0.1-1.1,0-1.6-0.4
								c-0.5-0.4-0.9-0.9-1.1-1.6c-0.2-0.7-0.1-1.4,0.2-2.1c0.4-0.7,0.9-1.2,1.4-1.5c1.1-0.7,1.8-1.3,1.9-2c0.1-0.7-0.2-1.4-0.7-1.7
								c-0.5-0.3-1.1-0.3-1.4-0.2c-0.4,0.1-0.6,0.2-0.7,0.2c-0.1-0.1,0-0.4,0.4-0.7c0.4-0.3,1.2-0.6,2.2-0.3c1,0.3,1.9,1.5,1.7,2.9
								c-0.1,0.7-0.5,1.4-0.9,1.9C88.8,63.9,88.3,64.2,87.8,64.6z"/>
						</g>
					</g>
				</g>
				<g>
					<g>
						<g>
							<path class="st14" d="M95,72.1c0.1,0.2,0.4,0.3,0.7,0.4c0.3,0.1,0.8,0,1.2,0c0.5,0,1,0,1.4,0.3c0.2,0.1,0.5,0.4,0.6,0.6
								c0.1,0.3,0.1,0.4,0.1,0.6c0.2,1.3,0.2,2.1,0,2.1c-0.2,0-0.5-0.7-0.9-1.9c-0.1-0.2-0.1-0.3-0.1-0.4c0-0.1-0.1-0.1-0.2-0.1
								c-0.2-0.1-0.5-0.1-0.9-0.1c-0.4,0-0.8,0.1-1.4,0.1c-0.5-0.1-1.2-0.3-1.7-0.9c-0.2-0.3-0.3-0.7-0.2-1c0-0.3,0.1-0.6,0.2-0.8
								c0.2-0.5,0.3-0.9,0.4-1.2c0.2-0.7,0.1-1.3-0.2-1.8c-0.5-0.9-1.4-1-1.4-1.2c0-0.1,0.2-0.2,0.6-0.2c0.4,0,1,0.2,1.5,0.8
								c0.5,0.6,0.8,1.6,0.6,2.5c-0.1,0.5-0.3,1-0.4,1.3C94.9,71.7,94.9,72,95,72.1z"/>
						</g>
					</g>
				</g>
				<g>
					<g>
						<g>
							<path class="st14" d="M97.3,80.9c-0.2,0.2-0.5,0.5-0.7,0.6c-0.2,0.1-0.3,0.3-0.4,0.3c0,0,0,0,0,0.1c0,0.1,0.1,0.2,0.2,0.3
								c0.2,0.2,0.6,0.4,1,0.6c0.1,0.1,0.2,0.1,0.3,0.2c0.1,0.1,0.3,0.2,0.4,0.4c0.2,0.3,0.2,0.6,0.1,0.9c-0.1,0.1-0.1,0.3-0.2,0.4
								l-0.1,0.2L97.7,85c-0.1,0.1-0.2,0.2-0.3,0.3c-0.2,0.2-0.4,0.3-0.6,0.5c-0.3,0.2-0.5,0.3-0.6,0.3c-0.1-0.1,0-0.3,0.2-0.6
								c0.1-0.2,0.2-0.4,0.4-0.6c0.1-0.2,0.4-0.6,0.4-0.6c0-0.1,0-0.1-0.1-0.1c0,0,0,0-0.1,0l-0.2-0.1c-0.3-0.2-0.8-0.3-1.3-0.7
								c-0.2-0.2-0.5-0.5-0.6-0.8c-0.2-0.4-0.2-0.9,0.1-1.3c0.2-0.4,0.5-0.6,0.8-0.7c0.2-0.2,0.3-0.2,0.5-0.4
								c0.3-0.3,0.4-0.6,0.3-0.7c0-0.1-0.3-0.3-0.6-0.4c-0.4-0.1-0.8-0.2-1.3-0.3c-0.5-0.1-0.9-0.4-1.2-0.7
								c-0.3-0.3-0.5-0.8-0.5-1.2c0-0.4,0.2-0.7,0.4-0.8c0.4-0.3,0.8-0.1,0.7-0.1c0,0.1-0.2,0.2-0.3,0.4c-0.1,0.1-0.1,0.3-0.1,0.5
								c0,0.1,0.2,0.3,0.4,0.5c0.4,0.3,1.1,0.3,2.1,0.4c0.3,0.1,0.6,0.1,0.9,0.3c0.3,0.2,0.6,0.5,0.8,0.9c0.2,0.4,0.1,0.9,0,1.3
								C97.7,80.4,97.5,80.7,97.3,80.9z"/>
						</g>
					</g>
				</g>
				<g>
					<g>
						<g>
							<path class="st14" d="M103.7,90.8c-0.3,0.4-0.7,0.7-1.1,0.9c-0.3,0.2-0.6,0.3-0.9,0.4c-0.5,0.2-0.7,0.4-0.9,0.8
								c-0.4,0.8-0.4,1.7-0.2,2.4c0.4,1.4,1.4,2,1.3,2.2c0,0.1-0.4,0.1-0.8-0.1c-0.5-0.2-1.1-0.8-1.6-1.7c-0.4-0.9-0.7-2.2-0.1-3.5
								c0.1-0.3,0.4-0.7,0.7-1c0.3-0.3,0.7-0.5,1-0.7c0.6-0.3,1.2-0.5,1.3-0.7c0.1-0.1,0.1-0.2,0.1-0.3c0-0.1-0.1-0.3-0.2-0.5
								c-0.2-0.4-0.6-0.7-1-1.1c-0.4-0.4-0.9-0.9-1.2-1.5c-0.3-0.6-0.3-1.3-0.1-1.9c0.4-1,1.1-1.5,1.5-1.7c0.4-0.3,0.7-0.3,0.8-0.3
								c0.1,0.1-0.1,0.3-0.3,0.7c-0.2,0.4-0.7,1-0.8,1.6c-0.1,0.6,0.2,1.1,1.1,1.8c0.4,0.3,1,0.8,1.4,1.5c0.2,0.3,0.4,0.7,0.4,1.2
								C104.1,89.7,104,90.3,103.7,90.8z"/>
						</g>
					</g>
				</g>
				<g>
					<g>
						<g>
							<path class="st14" d="M95.2,93.9c0.7,0.4,1.5,0.8,2.1,1.6c0.3,0.4,0.4,0.9,0.4,1.3c0,0.4-0.1,0.8-0.3,1.1
								c-0.3,0.6-0.7,0.9-0.9,1.1c-0.3,0.2-0.4,0.3-0.5,0.2c-0.2-0.1,0.3-0.7,0.7-1.7c0.2-0.5,0.1-1-0.2-1.4
								c-0.4-0.4-1.1-0.8-1.9-1.3c-0.4-0.3-0.8-0.6-1.1-1c-0.3-0.4-0.4-1-0.4-1.4c0-0.9,0.5-1.7,0.9-2.1c0.9-0.9,1.6-1.1,1.7-1
								c0.1,0.1-0.4,0.7-1,1.5c-0.3,0.4-0.5,1-0.5,1.6C94.1,93,94.5,93.5,95.2,93.9z"/>
						</g>
					</g>
				</g>
				<g>
					<g>
						<g>
							<path class="st14" d="M96.2,107.7c0.8,1.5,0.6,3.3-0.1,4.5c-0.2,0.3-0.5,0.7-0.9,0.9c-0.4,0.2-0.8,0.3-1.1,0.3
								c-0.7,0-1.2-0.1-1.7-0.4c-0.5-0.2-0.9-0.5-1.1-0.8c-0.3-0.3-0.5-0.5-0.6-0.9c-0.1-0.2,0-0.4,0.1-0.6c0.1-0.1,0.2-0.2,0.4-0.2
								c0.3,0,0.3,0.2,0.3,0.2c0,0-0.1,0.1-0.1,0.1c0,0,0,0.1,0,0.1c0,0,0,0,0,0l0,0l0,0c0.1,0,0,0,0.1,0l0,0l0,0l0.1,0
								c0.1,0.1,0.3,0.3,0.6,0.4c0.3,0.2,0.6,0.3,0.9,0.4c0.4,0.1,0.8,0.1,1.2,0.1c0.4-0.1,0.5-0.1,0.7-0.5c0.4-0.8,0.5-2,0-2.9
								c-0.5-0.9-1.5-1.6-2.4-2.5c-0.9-0.9-1.7-2-1.6-3.2c0.1-1.2,0.8-1.9,1.3-2.1c0.6-0.2,0.9-0.1,0.9,0c0,0.1-0.3,0.2-0.5,0.5
								c-0.3,0.3-0.5,0.9-0.4,1.5c0.1,0.6,0.6,1.4,1.5,2C94,105.5,95.3,106.2,96.2,107.7z"/>
						</g>
					</g>
				</g>
				<g>
					<g>
						<g>
							<path class="st14" d="M98,103.5c-0.3,1,0,2.1,0.3,2.8c0.3,0.7,0.5,1.2,0.4,1.3c-0.1,0.1-0.5-0.3-0.9-1
								c-0.4-0.7-0.9-1.9-0.5-3.3c0.4-1.3,1.4-2.2,2.2-2.5c0.8-0.3,1.4-0.2,1.4-0.1c0,0.1-0.5,0.2-1.1,0.6
								C99.1,101.7,98.3,102.4,98,103.5z"/>
						</g>
					</g>
				</g>
				<g>
					<g>
						<g>
							<path class="st14" d="M61.5,79.4c0.4,0.4,0.9,0.9,1.1,1.6c0.2,0.6,0.2,1.3,0.1,1.8c-0.2,1.1-0.7,1.9-1,2.5
								c-0.7,1.2-0.8,2-1,2.1c-0.1,0-0.2-0.2-0.2-0.7c0-0.4,0.1-1.1,0.3-1.8c0.4-1.4,1.3-3.3-0.2-4.4c-0.7-0.6-1.8-1.3-2.2-2.5
								c-0.4-1.1-0.1-2.3,0.4-2.9c0.5-0.7,1.2-1,1.6-1c0.4-0.1,0.7,0,0.7,0.1c0.1,0.2-0.9,0.4-1.5,1.5c-0.3,0.5-0.3,1.2,0,1.9
								C59.8,78.1,60.6,78.6,61.5,79.4z"/>
						</g>
					</g>
				</g>
				<g>
					<g>
						<g>
							<path class="st14" d="M58.9,107.1c0.5,0.5,0.7,1.2,0.7,1.9c0,0.7-0.2,1.3-0.6,1.8c-0.4,0.5-0.9,0.8-1.2,1
								c-0.3,0.2-0.4,0.4-0.5,0.7c-0.2,0.5-0.2,1.1-0.3,1.5c0,0.4-0.1,0.6-0.2,0.7c-0.1,0-0.2-0.2-0.4-0.6c-0.1-0.4-0.3-1-0.1-1.9
								c0.1-0.4,0.3-0.9,0.7-1.3c0.4-0.4,0.7-0.6,0.9-0.8c0.4-0.6,0.4-1.4-0.1-2c-0.5-0.6-1.5-1-2.4-1.5c-0.4-0.3-0.9-0.4-1.3-1
								c-0.4-0.6-0.3-1.2-0.2-1.7c0.2-0.4,0.5-0.8,0.8-0.9c0.3-0.2,0.5-0.3,0.7-0.4c0.4-0.1,0.7-0.1,0.7,0c0,0.1-0.1,0.3-0.4,0.5
								c-0.3,0.3-0.7,0.6-0.8,1.1c0,0.3,0,0.5,0.1,0.6c0.1,0.1,0.5,0.3,0.9,0.5C56.8,105.7,57.9,106,58.9,107.1z"/>
						</g>
					</g>
				</g>
				<g>
					<g>
						<g>
							<path class="st14" d="M63.7,58.3c0.3,0.4,0.7,0.8,0.9,1.3c0.3,0.5,0.3,1.3,0,1.8c-0.3,0.5-0.7,0.8-0.9,1.1
								c-0.3,0.2-0.6,0.5-0.8,0.7c-1,0.8-1.7,1.2-1.8,1.1c-0.1-0.1,0.4-0.8,1.2-1.7c0.4-0.5,1.1-1.1,1.3-1.5
								c0.1-0.2,0.1-0.5-0.1-0.8c-0.2-0.3-0.4-0.6-0.8-1c-0.3-0.4-0.7-0.9-0.9-1.5c-0.2-0.6-0.1-1.4,0.4-1.8
								c0.4-0.4,0.8-0.6,1.2-0.8c0.4-0.1,0.8-0.2,1.1-0.3c1.5-0.1,2.2,0.5,2.1,0.6c-0.1,0.2-0.9,0-2,0.3c-0.3,0.1-0.6,0.2-0.9,0.3
								c-0.3,0.2-0.6,0.4-0.8,0.6C63,56.9,63,57,63.1,57.3C63.2,57.6,63.4,58,63.7,58.3z"/>
						</g>
					</g>
				</g>
				<g>
					<g>
						<g>
							<path class="st14" d="M72.5,50.5c0.8,0.2,1.6,0.5,2.2,0.8c0.6,0.3,1.1,0.4,1.5,0.3c0.4-0.1,0.7-0.4,0.8-0.5
								c0.1-0.2,0.1-0.4,0.2-0.4c0.1,0,0.2,0.1,0.2,0.5c0,0.4-0.3,0.9-0.9,1.1c-0.6,0.3-1.4,0.2-2.1-0.1c-0.7-0.2-1.3-0.5-2.1-0.7
								c-1.5-0.4-2.8-0.2-3.6,0.3c-0.8,0.5-1.2,1-1.3,1c-0.1,0,0-0.8,0.9-1.6c0.4-0.4,1.1-0.7,1.8-0.8
								C70.9,50.2,71.7,50.3,72.5,50.5z"/>
						</g>
					</g>
				</g>
				<g>
					<g>
						<g>
							<path class="st14" d="M78.5,53.9c0.8-0.4,1.6-0.9,2.5-1.2c0.9-0.3,1.8-0.4,2.5-0.1c0.7,0.2,1.2,0.7,1.3,1.1
								c0.2,0.4,0.1,0.6,0,0.6c-0.2,0.1-0.5-0.7-1.6-0.9c-0.5-0.1-1.1,0-1.8,0.4c-0.7,0.3-1.4,0.8-2.4,1.3c-0.9,0.5-2.1,0.6-3,0.4
								c-0.9-0.2-1.6-0.5-2.2-0.7c-1.2-0.6-1.8-1-1.8-1.1c0.1-0.2,0.9,0,2.1,0.3C75.4,54.2,77,54.7,78.5,53.9z"/>
						</g>
					</g>
				</g>
			</g>
			<path class="st1" d="M84.7,113.7c-3.1-2.2-2.7-13.9-2.7-13.9H67c0,0,0.4,11.7-2.7,13.9c-4.5,3.2-14.7-1.6-21.1,4.9
				c-3,3.1-2.7,10.7-2.1,15.4c10,5.7,21.6,9,33.9,9c11.9,0,23.1-3.1,32.9-8.4c0.6-4.7,1-12.8-2.1-16C99.4,112,89.2,116.9,84.7,113.7
				z"/>
			<path class="st0" d="M105.8,118.6c-4.5-4.6-10.8-3.6-15.7-3.7l0.3,0.7l0.2,5.4l-5.8,2.1l4.1,3.8l-14.3,11.1l0,0l0,0l0,0l0,0
				l-14.3-11.1l4.1-3.8l-5.8-2.1l0.2-5.4l0.3-0.7c-4.9,0.1-11.3-0.9-15.7,3.7c-3,3.1-2.7,10.7-2.1,15.4c10,5.7,21.6,9,33.9,9
				c11.9,0,23.1-3.1,32.9-8.4C108.4,129.9,108.9,121.8,105.8,118.6z"/>
			<polygon class="st39" points="50.3,129.4 49.1,137.9 56.3,140 			"/>
			<polygon class="st39" points="99.6,129.4 100.8,137.9 93.7,140 			"/>
			<path class="st63" d="M84.7,113.7c-3.1-2.2-2.7-13.9-2.7-13.9H67c0,0,0.4,11.7-2.7,13.9c-4.5,3.2-14.7-1.6-21.1,4.9
				c-3,3.1-2.7,10.7-2.1,15.4c10,5.7,21.6,9,33.9,9c11.9,0,23.1-3.1,32.9-8.4c0.6-4.7,1-12.8-2.1-16C99.4,112,89.2,116.9,84.7,113.7
				z"/>
			<path class="st92" d="M65.4,112.4l9.2,25.6l9.2-25.6c0,0-5.7,12.7-9.2,12.7C70.9,125.1,65.4,112.4,65.4,112.4z"/>
			<path class="st103" d="M57.5,74.5c-4,0-7.3,3.1-7.3,7c0,3.9,3.3,7,7.3,7V74.5z"/>
			<path class="st103" d="M91.6,74.5c4,0,7.3,3.1,7.3,7c0,3.9-3.3,7-7.3,7V74.5z"/>
			<path class="st104" d="M92.3,81.5c0,13.8-11.3,25-17.7,25c-5.7,0-17.7-11.2-17.7-25s7.9-25,17.7-25S92.3,67.7,92.3,81.5z"/>
			<path class="st20" d="M56.8,83.8c0,0,2.6-13.8,12.2-15S86,67.8,92.2,81.3l-0.7-15.2L70,57.7L57.2,70.5L56.8,83.8z"/>
			<path class="st105" d="M67.8,59.7c0,0,0.3,5.8-3,8c-3.4,2.2-7.6,5.7-8,14.5c0,0-4-14.1,1.6-21.2C64.1,53.8,67.4,56.6,67.8,59.7z"
				/>
			<path class="st105" d="M70,64.3c0,0-0.3,2.6-1.9,3.3c-1.6,0.7-3.7,1.9-4.6,5.8c0,0-0.7-6.5,2.3-9.2C68.8,61.4,70,62.9,70,64.3z"
				/>
			<path class="st105" d="M65.4,59.2c-0.2,1.8,0.6,5.4,3.7,6.5c3.1,1.1,10.2-0.9,15.1,1.9c2.8,1.6,5.8,4.7,8,13.7
				c0,0,1.4-11.9-0.2-17.3c-1.4-4.6-5-11.6-14.5-12C68.7,51.7,65.9,54.5,65.4,59.2z"/>
			<path class="st102" d="M53.5,87.3c0,0-0.9,11.8,20.6,10.1"/>
			<path d="M77.1,99.7h-5.2c-1.1,0-1.9-0.9-1.9-1.9v-1.1c0-1.1,0.9-1.9,1.9-1.9h5.2c1.1,0,1.9,0.9,1.9,1.9v1.1
				C79.1,98.8,78.2,99.7,77.1,99.7z"/>
			<g>
				<path class="st106" d="M84.8,86.3c-2,0.5-4.6,0.5-5.8-0.2c-1.5-0.7-2.6-2.6-2.6-4.5c0-1.7,1.6-2.8,3.4-2.9
					c1.6-0.1,3.7-0.4,5.5,0c1.7,0.3,3.3,1.7,3.2,3.7C88.3,85.1,86.5,85.9,84.8,86.3z"/>
				<path class="st106" d="M64.3,86.3c2,0.5,4.6,0.5,5.8-0.2c1.5-0.7,2.6-2.6,2.6-4.5c0-1.7-1.6-2.8-3.4-2.9c-1.6-0.1-3.7-0.4-5.5,0
					c-1.7,0.3-3.3,1.7-3.2,3.7C60.7,85.1,62.6,85.9,64.3,86.3z"/>
			</g>
			<line class="st102" x1="72.7" y1="81.7" x2="76.4" y2="81.7"/>
			<line class="st102" x1="88.4" y1="81.5" x2="92.4" y2="79.7"/>
			<line class="st102" x1="60.7" y1="81.5" x2="56.7" y2="79.7"/>
			<polygon class="st38" points="85.9,106.1 74.5,138 88.9,126.8 84.8,123 90.6,121 90.4,115.6 			"/>
			<polygon class="st38" points="63.1,106.1 74.5,138 60.2,126.8 64.3,123 58.5,121 58.7,115.6 			"/>
			<path class="st23" d="M58.5,120.7c0,0,0.7-4.1,4.1-3.8s8.2,10.6,8.2,10.6l-7.7-21.4l-4.4,9.5L58.5,120.7z"/>
			<path class="st23" d="M90.6,120.7c0,0-0.7-4.1-4.1-3.8s-8.2,10.6-8.2,10.6l7.7-21.4l4.4,9.5L90.6,120.7z"/>
			<polygon class="st63" points="85.9,106.1 74.5,138 88.9,126.8 84.8,123 90.6,121 90.4,115.6 			"/>
			<polygon class="st63" points="63.1,106.1 74.5,138 60.2,126.8 64.3,123 58.5,121 58.7,115.6 			"/>
			<g>
				<g>
					<g>
						<g>
							<path class="st14" d="M74.8,55.2c1.6-0.1,3.1,0.2,4.1,0.5c1,0.4,1.6,0.7,1.5,0.9c-0.1,0.3-2.5-0.6-5.6-0.4
								c-3,0.2-5.3,1.3-5.5,1c-0.1-0.1,0.4-0.6,1.4-1C71.7,55.8,73.2,55.3,74.8,55.2z"/>
						</g>
					</g>
				</g>
				<g>
					<g>
						<g>
							<path class="st14" d="M73,58.7c2.1-0.2,3.8,0.5,3.7,0.6c-0.1,0.2-1.6-0.2-3.6,0c-2,0.2-3.4,0.9-3.5,0.7
								C69.4,59.9,70.9,58.9,73,58.7z"/>
						</g>
					</g>
				</g>
				<g>
					<g>
						<g>
							<path class="st14" d="M85.2,60.6c1.4,1.2,2.2,2.6,2.7,3.7c0.5,1,0.7,1.7,0.6,1.8c-0.1,0.1-0.6-0.5-1.2-1.4
								c-0.7-0.9-1.6-2.1-2.8-3.2c-1.2-1.1-2.5-1.8-3.6-2.2c-1-0.4-1.7-0.5-1.7-0.7c0-0.1,0.7-0.3,1.9-0.1
								C82.3,58.7,83.8,59.4,85.2,60.6z"/>
						</g>
					</g>
				</g>
				<g>
					<g>
						<g>
							<path class="st14" d="M59.3,63.4c1.1-1.5,2.6-2.2,2.7-2.1c0.1,0.2-1.1,1-2.2,2.4c-1.1,1.4-1.6,2.8-1.7,2.8
								C57.9,66.5,58.2,64.9,59.3,63.4z"/>
						</g>
					</g>
				</g>
				<g>
					<g>
						<g>
							<path class="st14" d="M60,69.1c-1.2,2.2-1.8,4.2-2,4.1c-0.2,0,0-2.2,1.3-4.6c1.3-2.3,3.1-3.7,3.2-3.5
								C62.7,65.4,61.3,66.9,60,69.1z"/>
						</g>
					</g>
				</g>
			</g>
			
				<ellipse transform="matrix(0.8098 -0.5867 0.5867 0.8098 -36.3987 53.8604)" class="st1" cx="64.9" cy="83.1" rx="1.1" ry="1.8"/>
			
				<ellipse transform="matrix(0.8098 -0.5867 0.5867 0.8098 -33.3847 62.8246)" class="st1" cx="80.2" cy="82.9" rx="1.1" ry="1.8"/>
			<g>
				
					<ellipse transform="matrix(0.2282 -0.9736 0.9736 0.2282 -39.1809 187.5235)" class="st1" cx="98.7" cy="118.5" rx="1.3" ry="5.6"/>
				
					<ellipse transform="matrix(0.9736 -0.2282 0.2282 0.9736 -25.706 14.6159)" class="st1" cx="50.4" cy="118.5" rx="5.6" ry="1.3"/>
			</g>
		</g>
	</g>
</g>
<g id="NEW_CUSTOMER_icon">
</g>
<g id="PARTNERS_EXPERIENCE_icon">
</g>
<g id="COST_REDUCE_icon">
</g>
</svg>
