<svg id="Layer_1" data-name="Layer 1" xmlns="http://www.w3.org/2000/svg" viewBox="0 0 190 76"><defs><style>.cls-1{fill:#51ad32;}.cls-2{fill:#009a3e;}.cls-3,.cls-4{fill:#fff;}.cls-3{fill-rule:evenodd;}</style></defs><title>00_all_in_one_logos_partners</title><rect class="cls-1" x="1.5" y="8.63" width="187" height="58.73"/><path class="cls-2" d="M10.7,50.36a9.76,9.76,0,0,0,9.75,9.7H45.34a9.76,9.76,0,0,0,9.76-9.7V25.64a9.76,9.76,0,0,0-9.76-9.71H20.45a9.76,9.76,0,0,0-9.75,9.71V50.36Z"/><path class="cls-3" d="M44.12,30.56h-3.7V26.85a7.53,7.53,0,1,0-15.06,0v3.71H21.68a7.47,7.47,0,1,0,0,14.92h3.68v3.68a7.53,7.53,0,1,0,15.06,0V45.48h3.7A7.47,7.47,0,1,0,44.12,30.56ZM29.45,26.85a3.45,3.45,0,0,1,6.9,0v3.71h-6.9V26.85Zm6.9,7.73v6.86h-6.9V34.57h6.9ZM21.68,41.44a3.43,3.43,0,1,1,0-6.86h3.68v6.86H21.68Zm14.67,7.72a3.45,3.45,0,0,1-6.9,0V45.48h6.9v3.68Zm7.77-7.72h-3.7V34.57h3.7A3.43,3.43,0,1,1,44.12,41.44Z"/><path class="cls-4" d="M77.74,46.39v7.52l1,0L78.6,58.54H76.85l-0.08-2.95h-6L70.7,58.54H68.95L68.88,54l0.8-.06a6.55,6.55,0,0,0,.9-1.89A11.59,11.59,0,0,0,71,48.7V46.39h6.71Zm-4.7,3a11,11,0,0,1-.39,2.85A8.92,8.92,0,0,1,72,53.87h3.52V48.11H73v1.27Z"/><path class="cls-4" d="M88.27,50.89a4.53,4.53,0,0,1-4.66,4.89A4.42,4.42,0,0,1,79.06,51a4.52,4.52,0,0,1,4.7-4.88A4.39,4.39,0,0,1,88.27,50.89ZM81.43,51c0,1.78.88,3.12,2.26,3.12s2.21-1.28,2.21-3.15c0-1.44-.63-3.1-2.2-3.1S81.43,49.46,81.43,51Z"/><path class="cls-4" d="M97.18,43.84l-2,.38a4.69,4.69,0,0,0-3,1.43,5.27,5.27,0,0,0-1,2.63H91.2a3.38,3.38,0,0,1,3.05-1.89c2.37,0,4,1.74,4,4.57,0,3-1.77,4.84-4.45,4.84-3.19,0-4.53-2.8-4.53-6.1a7.74,7.74,0,0,1,1.7-5.36,5.87,5.87,0,0,1,3.86-1.91l2.5-.43ZM93.72,48a1.83,1.83,0,0,0-1.64,1,3.55,3.55,0,0,0-.47,1.87c0,1.36.61,3.23,2.16,3.23s2.1-1.57,2.1-3.06S95.38,48,93.72,48Z"/><path class="cls-4" d="M99.62,49.45c0-1.21,0-2.19-.07-3.06h2l0.11,1.42h0a3.52,3.52,0,0,1,3.11-1.62c2.09,0,3.82,1.81,3.82,4.68,0,3.32-2.07,4.93-4.14,4.93a3,3,0,0,1-2.55-1.23h0v4.76H99.62V49.45Zm2.29,2.28a3.39,3.39,0,0,0,.06.64A2.1,2.1,0,0,0,104,54c1.46,0,2.31-1.23,2.31-3,0-1.62-.78-2.95-2.25-2.95A2.18,2.18,0,0,0,102,49.74a3.14,3.14,0,0,0-.08.58v1.42Z"/><path class="cls-4" d="M119.14,50.91a4.53,4.53,0,0,1-4.66,4.89,4.42,4.42,0,0,1-4.55-4.74,4.51,4.51,0,0,1,4.69-4.87A4.39,4.39,0,0,1,119.14,50.91Zm-6.84.1c0,1.77.88,3.11,2.25,3.11s2.22-1.28,2.22-3.15c0-1.43-.63-3.1-2.2-3.1S112.31,49.47,112.31,51Z"/><path class="cls-4" d="M126.63,46.39v1.83h-3.71v7.36h-2.29v-9.2h6Z"/><path class="cls-4" d="M136.45,50.91a4.53,4.53,0,0,1-4.66,4.89,4.42,4.42,0,0,1-4.55-4.74,4.51,4.51,0,0,1,4.7-4.87A4.39,4.39,0,0,1,136.45,50.91Zm-6.84.1c0,1.77.87,3.11,2.25,3.11s2.22-1.28,2.22-3.15c0-1.43-.63-3.1-2.2-3.1S129.61,49.47,129.61,51Z"/><path class="cls-4" d="M150.42,46.44v7.7l1,0-0.11,4.7H149.5l-0.08-3h-6.1l-0.12,3h-1.79l-0.08-4.68,0.82-.06a6.64,6.64,0,0,0,.92-1.94,11.8,11.8,0,0,0,.48-3.4V46.44h6.87Zm-4.81,3.06a11.26,11.26,0,0,1-.4,2.92,8.66,8.66,0,0,1-.68,1.68h3.6V48.2h-2.52v1.3Z"/><path class="cls-4" d="M155.12,46.44V50h3.59v-3.6h2.35v9.42H158.7v-4h-3.59v4h-2.35V46.44h2.35Z"/><path class="cls-4" d="M170.8,55.86h-2.33V52.13H167.6a1.82,1.82,0,0,0-1.43.62A6,6,0,0,0,165,55.09c-0.12.27-.23,0.48-0.38,0.77h-2.5a5.43,5.43,0,0,0,.57-1.07,7.89,7.89,0,0,1,1.37-2.7,2.15,2.15,0,0,1,1.13-.62V51.41a2.47,2.47,0,0,1-2.42-2.34,2.35,2.35,0,0,1,1.41-2.16,7.52,7.52,0,0,1,3.29-.6,24.1,24.1,0,0,1,3.3.22v9.34Zm-2.33-8a8.56,8.56,0,0,0-1.16-.08c-1,0-2.08.35-2.08,1.41s1.16,1.41,2.08,1.41c0.56,0,.86,0,1.16,0V47.89Z"/><path class="cls-4" d="M83.68,34.3a30.41,30.41,0,0,0,.26,4.31H81.05l-0.26-2.27H80.68A6.56,6.56,0,0,1,75.28,39a5.08,5.08,0,0,1-5.41-5.16c0-4.34,3.8-6.71,10.64-6.68V26.8c0-1.45-.41-4.15-4-4.12A8.43,8.43,0,0,0,71.84,24l-0.73-2.19A11.3,11.3,0,0,1,77,20.27c5.41,0,6.72,3.75,6.72,7.31V34.3Zm-3.1-4.86c-3.51-.07-7.49.55-7.49,4a2.84,2.84,0,0,0,3,3.12,4.48,4.48,0,0,0,4.35-3,3.82,3.82,0,0,0,.14-1V29.44Z"/><path class="cls-4" d="M102.76,20.64v18H99.54V23.2H91.32V38.61H88.11v-18h14.65Z"/><path class="cls-4" d="M119.83,20.64V23.2h-5.52V38.61h-3.22V23.2h-5.51V20.64h14.25Z"/><path class="cls-4" d="M124,30.21c0.07,4.41,2.81,6.23,6.06,6.23a11.39,11.39,0,0,0,4.9-.92l0.58,2.34A14.24,14.24,0,0,1,129.58,39c-5.44,0-8.69-3.68-8.69-9.09s3.15-9.65,8.3-9.65c5.81,0,7.31,5.12,7.31,8.42a7.84,7.84,0,0,1-.11,1.52H124Zm9.43-2.34c0-2-.84-5.27-4.46-5.27-3.29,0-4.68,3-4.94,5.27h9.39Z"/><path class="cls-4" d="M143.66,20.64v7.8h0.76l6.62-7.8h3.91l-7.67,8.09c2.85,0.34,4.57,2.27,6,5.5a38.37,38.37,0,0,0,1.86,4.38h-3.36a28.23,28.23,0,0,1-1.65-3.67c-1.2-2.9-2.85-4.23-5.81-4.23h-0.62v7.91h-3.18v-18h3.18Z"/><path class="cls-4" d="M170.77,34.3a30.09,30.09,0,0,0,.26,4.31h-2.89l-0.25-2.27h-0.11A6.56,6.56,0,0,1,162.37,39,5.08,5.08,0,0,1,157,33.85c0-4.34,3.79-6.71,10.63-6.68V26.8c0-1.45-.4-4.15-4-4.12A8.41,8.41,0,0,0,158.93,24l-0.73-2.19A11.28,11.28,0,0,1,164,20.27c5.41,0,6.72,3.75,6.72,7.31V34.3Zm-3.11-4.86c-3.5-.07-7.49.55-7.49,4a2.84,2.84,0,0,0,3,3.12,4.47,4.47,0,0,0,4.35-3,3.68,3.68,0,0,0,.14-1V29.44Z"/></svg>