<svg id="Layer_1" data-name="Layer 1" xmlns="http://www.w3.org/2000/svg" viewBox="0 0 190 76"><defs><style>.cls-1{fill:#606269;}.cls-2{fill:#f16522;}</style></defs><title>00_all_in_one_logos_partners</title><path class="cls-1" d="M92.48,48.83A24,24,0,1,0,94,1c1,0.25,6.49,1.74,7.66,7.42a10.91,10.91,0,0,1-4.63,11.67,8.31,8.31,0,0,1-.85,4.3,1.77,1.77,0,0,1-.52-0.11A11.22,11.22,0,0,0,96,22.48a8.65,8.65,0,0,0,0-1.81,18.14,18.14,0,0,1-7.26,2,9.87,9.87,0,0,1-6.85-1.94A6.91,6.91,0,0,1,81,11.36c2.84-3.31,9.43-4,13.71,1.71a11.82,11.82,0,0,1,2.2,5.78c5.25-4.47,1.49-14.06-5.32-15.12C83.69,2.51,77.91,7.32,75.1,11.42A24,24,0,0,0,92.48,48.83Zm-1.19-14.2c0.32-1.45,1.4-2.33,2.42-2S95.29,34.51,95,36s-1.4,2.33-2.42,2S91,36.08,91.29,34.63ZM93.17,42a1.73,1.73,0,0,1-.64-2.06,1.27,1.27,0,0,1,1.55-1.11,1.73,1.73,0,0,1,.64,2.06A1.27,1.27,0,0,1,93.17,42Zm3.08,2.17a1,1,0,0,1-1.25.95,1.49,1.49,0,0,1-.52-1.74,1,1,0,0,1,1.25-.95A1.49,1.49,0,0,1,96.26,44.14Zm2.45-4.2c-0.25,1.24-1.13,2-2,1.71s-1.3-1.55-1-2.79,1.13-2,2-1.71S99,38.69,98.71,39.94ZM99,28.7c0.34-1.57,1.46-2.52,2.52-2.12s1.64,2,1.31,3.55-1.46,2.52-2.52,2.12S98.67,30.27,99,28.7Zm-0.54,3.42a2.3,2.3,0,0,1,1.06,2.65C99.3,36,98.46,36.6,97.65,36.32a2.17,2.17,0,0,1-1.07-2.55C96.8,32.58,97.65,31.84,98.47,32.12Zm-5.14-3.74c0.27-1.87,1.47-3.08,2.69-2.7s2,2.2,1.72,4.08-1.47,3.08-2.69,2.7S93.06,30.25,93.32,28.38Zm-5,1.11C88.63,28,89.79,27,90.85,27.44s1.64,2,1.28,3.51S90.63,33.41,89.56,33,87.92,31,88.28,29.49Z"/><ellipse class="cls-2" cx="110" cy="63.38" rx="1.86" ry="1.33" transform="translate(42.29 170.77) rotate(-87.71)"/><path class="cls-2" d="M50.22,73.67a2,2,0,0,1-1.32.38c-1.53-.21-2.22-2.29-2.49-5,1.29,0.75,2,1.22,2,1.22a0.26,0.26,0,0,0,.3-0.22,0.41,0.41,0,0,0-.12-0.37,26.49,26.49,0,0,0-2.25-1.5,56.2,56.2,0,0,1,.44-10.3c0.13-.47-1.92-2.07-2.49-0.66-0.21.52-.78,2-0.74,1.9a54.81,54.81,0,0,1-3.26,6.3h0l0,0,0,0a20.83,20.83,0,0,0-11.68-1C26.14,65,23,66.75,23.09,70.1c0.15,3.76,3.75,4.75,8,4.62,1.53,0,6.26.34,10.72-7.68,0.06-.08,0,0,0.1-0.11,0.68,0.27,1.59.66,2.19,0.94,0.05,2,.23,6.25,3.8,6.86A3.52,3.52,0,0,0,50.47,74C50.56,73.86,50.31,73.71,50.22,73.67Zm-10.76-7A33.26,33.26,0,0,1,36,71.49a6.76,6.76,0,0,1-4.93,2.43c-3.77,0-5.32-1.75-5.39-3.82-0.12-3.63,2.46-4.89,5.67-5.12a22.89,22.89,0,0,1,8.46,1.14,5.74,5.74,0,0,0-.35.59h0Zm2.87-.5c0.12-.19.22-0.38,0.3-0.54,0.46-.76,1-1.83,1.35-2.55,0,1.66,0,3.36,0,3.83C43.52,66.7,42.88,66.46,42.33,66.22Z"/><path class="cls-2" d="M166.85,71.93a0.25,0.25,0,0,0-.31,0,4.34,4.34,0,0,1-3.68,2,2.24,2.24,0,0,1-2.06-1.19h0l-0.1-.15a1.07,1.07,0,0,1-.15-0.31c0-.1-0.09-0.2-0.13-0.3-0.61-1.66-.28-4.54,2-4.61,1.58,0,1.24,2.55.37,3.37a5.2,5.2,0,0,1-2.25,1.48v0.06a0.88,0.88,0,0,0,.14.31l0,0h0l0.08,0.12c1.4-.74,3.46-1.64,4.18-2.93a2,2,0,0,0-1.19-2.93c-4.58-1.3-6.89,2.47-5.43,6.37a3.29,3.29,0,0,1-2.45.49c-0.93-.1-2.35-0.74-2.9-3.51a31.79,31.79,0,0,1-.18-7.46c4.56,0,9.07-.11,9.84-0.51,0.64-.66.75-1.17,0.46-1-0.84.24-4.39,0.32-10.2,0.18,0-1.93.14-3.3,0.07-3.44-0.27-.51-1.35-1.67-2.19-1.44-0.05.07-.08,2.68-0.12,4.81-3.9-.16-7.39-0.74-7.65-0.64-1,0-1.82,1.53-1.46,1.81a3.68,3.68,0,0,0,1.37.16c0.09,0,3.58,0,7.71,0-0.27,2.11.31,9.93-4.4,10.86-1.69,0-1.06-6.6-2.44-6.93a1.52,1.52,0,0,0-1.69.65c-1,1.2-2,4.42-4.06,5.66-0.52.31-.91-0.55-0.93-1.6,0-2.84.09-4.82-1.27-4.78-1.83-.14-1.87,1.91-3.17,3.95-1.29,2.2-2.24,3.35-3.2,2.52-1.62-1.4-.91-6.49-4.21-6.43a2.91,2.91,0,0,0-2,.81,30.08,30.08,0,0,0-2.59,3.6c-0.17.26-.34,0.59-0.55-0.12a22.79,22.79,0,0,0,0-2.62,1.62,1.62,0,0,0-2.72-1.26c-1,.89-3,6-5.36,6a0.67,0.67,0,0,1-.77-0.69c0-1.53.36-4.05-.27-5.13a1.71,1.71,0,0,0-1.5-.62c-1.95.1-2.8,4.69-4.56,6-0.65.5-1.34-.21-2-1.27-0.43-.73-1.19-3.21-2.27-4.06a1.13,1.13,0,0,0-1.68.23c-1.32,1.56-2.49,3.75-2.82,3.74s-1.75-4.72-3.27-4.77c-1.88-.06-3.28,2.84-3.28,2.84s-0.68-3-1.83-2.45a10.37,10.37,0,0,0-3.2,2.52,0.4,0.4,0,0,0-.12.43,0.22,0.22,0,0,0,.31.06s2.06-2.35,2.75-.87c0.42,0.9-.94,3.67-0.94,3.67s1.22,2,2,1.92c0.48-.06,1.52-6.89,3.11-6,0.81,0.47,2,4.82,3.42,5.42a0.78,0.78,0,0,0,.78-0.39c2-2.95,2.79-5,3.3-3.95,0.82,1.64,2.24,4.83,3.8,4.77,3.21-.11,4.66-5.6,5.15-5.76,1.43-.48.24,2.26,0.75,4.78a1.4,1.4,0,0,0,1.45,1.16C114,74.78,117,68.44,117,68.44s0.49-.42.56,0.6c0,0.79-.54,5,0.76,5.59,1,0.51,2.48-1.76,3.18-3S123,69,123.84,68.51a0.67,0.67,0,0,1,.93.13c0.34,0.34.71,4.13,2.4,5.6a2.62,2.62,0,0,0,1.63.57c3.08,0,5.15-5,5.15-5s0.42-.71.47-0.19-0.25,5.25,1.69,5.23c3.54,0,5.76-5.2,5.76-5.2s0.32-.7.46,0.11a26.56,26.56,0,0,0,.54,3.28,2.58,2.58,0,0,0,3.18,1.71c3.94-1,4.5-5.18,4.5-5.18s-0.43,5.21,4,5.07a9.88,9.88,0,0,0,4.13-1s0.65,1.44,3.54,1.26a6.21,6.21,0,0,0,4.62-2.62A0.43,0.43,0,0,0,166.85,71.93Z"/><path class="cls-2" d="M78.32,72.55a1.66,1.66,0,0,1-1.25.84c-1.56-.26-0.19-5.53-0.19-5.53s-0.83-1.53-2-1.11a4.41,4.41,0,0,0-.55,1,3.83,3.83,0,0,0-1.07-1,5,5,0,0,0-6.36,2.36c-1.33,2.38-1.94,5.67-4.69,4.95-1-.27-1.65-1.69-2-3.15l0.08-.13c1.46-.68,2.59-1.89,3.6-4.23a12.7,12.7,0,0,0,.75-3.5c0.22-4-.78-5.27-1.44-6a2.73,2.73,0,0,0-1.61-.53s-4.38-.49-4.38,9.77c0,7.58,4.5,8.37,4.5,8.37s2.75,1,4.43-2.37c-0.09,1.06,1.15,2.35,2.68,2.5A4.92,4.92,0,0,0,74,71.3s-0.51,3.28,1.75,3.43a3.29,3.29,0,0,0,2.89-1.81,0.49,0.49,0,0,0,0-.37A0.28,0.28,0,0,0,78.32,72.55ZM59.46,66.12s0-9.23,2-9c0.6,0.06,1.58,2.32,1.15,6.32-0.72,6.38-2.53,6.81-2.62,6.81C59.55,69.8,59.46,66.12,59.46,66.12Zm12.94,6.35a2.73,2.73,0,0,1-3.14,1.08c-0.95-.61-0.9-2.54-0.06-3.87,1.3-2.08,2.82-2.59,3.75-2.12S74.07,70.45,72.41,72.47Z"/></svg>