<svg id="Layer_1" data-name="Layer 1" xmlns="http://www.w3.org/2000/svg" viewBox="0 0 190 76"><defs><style>.cls-1{fill:#e00027;}</style></defs><title>00_all_in_one_logos_partners</title><path class="cls-1" d="M88.28,55.09a3.33,3.33,0,0,1-3.17-2.32c-2.2-6.88-6.75-21.1-7.19-22.45h0a4.25,4.25,0,0,0-8,0c-0.36,1.1-4.88,15.11-7.26,22.48a3.33,3.33,0,1,1-6.34-2.05c0.29-.89,7-21.7,7.29-22.57l0-.08A10.92,10.92,0,0,1,84.16,28l0.06,0.18c0.3,0.89,7.17,22.38,7.23,22.6a3.34,3.34,0,0,1-3.18,4.35"/><path class="cls-1" d="M127.92,55.14a3.33,3.33,0,0,1-3.17-2.32c-2.2-6.88-6.75-21.1-7.19-22.45h0a4.25,4.25,0,0,0-8,0c-0.36,1.1-4.88,15.11-7.26,22.48A3.33,3.33,0,1,1,96,50.75c0.29-.89,7-21.7,7.29-22.57l0-.08A10.92,10.92,0,0,1,123.8,28l0.06,0.18c0.3,0.89,7.17,22.38,7.23,22.6a3.34,3.34,0,0,1-3.18,4.35"/><path class="cls-1" d="M151.68,55.17a17.13,17.13,0,1,1,17.19-17.11,17.17,17.17,0,0,1-17.19,17.11m0-27.84a10.71,10.71,0,1,0,10.73,10.72,10.74,10.74,0,0,0-10.73-10.72"/><path class="cls-1" d="M49.56,26.57c-2.16-4.05-6.67-5.84-11.22-5.16H38.26c-1,.17-11.41,1.57-13.49,1.94A3.34,3.34,0,0,0,26,29.93c5.64-1,12.47-1.76,13.4-1.93,1.76-.25,3.5.15,4.33,1.71a4.14,4.14,0,0,1,.5,2v1.44l-7.62,1.23-4.48.72C26.4,36,21.14,38,21.13,46c0,5.88,4.77,9,9.49,9h2.2l12.08,0H45.1a5.86,5.86,0,0,0,5.72-5.82l0-13.17s0-.08,0-0.12V31.7A10.91,10.91,0,0,0,49.56,26.57ZM44.15,47.92a0.49,0.49,0,0,1-.49.49H30.82a3,3,0,0,1-3-3,3.31,3.31,0,0,1,2.6-3.24L44.15,40v7.95Z"/><circle class="cls-1" cx="151.71" cy="38.04" r="5.22"/></svg>