<?xml version="1.0" encoding="UTF-8"?>
<!-- Generator: Adobe Illustrator 21.1.0, SVG Export Plug-In . SVG Version: 6.00 Build 0)  -->
<svg version="1.1" id="eye" xmlns="http://www.w3.org/2000/svg" xmlns:xlink="http://www.w3.org/1999/xlink" x="0px" y="0px" viewBox="0 0 538.6 215.4" style="enable-background:new 0 0 538.6 215.4;" xml:space="preserve">
<style type="text/css">
	.st0{fill:#EA0D8D;}
</style>
<g id="XMLID_24_">
	<g id="XMLID_95_">
		<circle id="XMLID_100_" class="st0" cx="109.5" cy="64" r="13.9"/>
		<path id="XMLID_97_" class="st0" d="M32.5,91.4C18.7,97.2,8.9,111,8.9,126.9c0,21.3,17.3,38.6,38.6,38.6s38.6-17.3,38.6-38.6    c0-10.1-3.9-19.3-10.3-26.2L51.3,75l22.4,0.1c6.9,0,12.6-5.6,12.6-12.6v0c0-6.9-5.6-12.6-12.6-12.6H22.1    c-6.9,0-12.6,5.6-12.6,12.6v0c0,3,1.1,5.8,2.9,8L32.5,91.4z M47.6,141.2c-7.9,0-14.3-6.4-14.3-14.3s6.4-14.3,14.3-14.3    s14.3,6.4,14.3,14.3S55.4,141.2,47.6,141.2z"/>
		<path id="XMLID_96_" class="st0" d="M109.5,86.2L109.5,86.2c-6.9,0-12.6,5.6-12.6,12.6v53.7c0,6.9,5.6,12.6,12.6,12.6h0    c6.9,0,12.6-5.6,12.6-12.6V98.7C122.1,91.8,116.5,86.2,109.5,86.2z"/>
	</g>
	<g id="XMLID_60_">
		<path id="XMLID_92_" class="st0" d="M173.4,99.1V50.4h37.5v12.2h-22.4v3.9h7.2c5.9,0,10.7,1.5,14.2,4.5c3.6,3,5.3,7,5.3,11.8    c0,4.8-1.8,8.7-5.4,11.8c-3.6,3.1-8.2,4.6-14.1,4.6H173.4z M188.4,86.7h6.1c3.3,0,5.7-1.9,5.7-4.7c0-2.9-2.4-4.9-5.7-4.9h-6.1    V86.7z"/>
		<path id="XMLID_90_" class="st0" d="M219.4,98.1V85.5c1.9,1,4.2,1.5,6.8,1.5c3,0,5.2-1.3,6.5-3.7l-17.4-33h16.4l8.4,18.7l7.6-18.7    h15.7L246,88.2c-2.3,5-5.7,8.6-9.1,10c-3.3,1.4-5.6,1.8-8,1.8C224.8,100.1,221.7,99.4,219.4,98.1z"/>
		<path id="XMLID_87_" class="st0" d="M259,108.1V86.2h4.9c3.1-5.6,4.7-14.5,4.7-26.4v-9.5h37.9v35.9h6.1v21.9h-14.1v-9H273v9H259z     M291.7,86.2v-23h-9c0,3.8-0.3,7.9-1,12.5c-0.6,4.5-1.5,7.9-2.8,10.5H291.7z"/>
		<path id="XMLID_85_" class="st0" d="M317.8,99.1V50.4h14.5v24.2l18.8-24.2h12.3v48.7h-14.3v-24l-18.5,24H317.8z"/>
		<path id="XMLID_83_" class="st0" d="M370.8,99.1V50.4h15v16.5h14.9V50.4h15v48.7h-15V79.9h-14.9v19.2H370.8z"/>
		<path id="XMLID_80_" class="st0" d="M429,56.8c4.9-4.9,11.2-7.5,18.7-7.5s13.7,2.5,18.7,7.5c4.9,4.9,7.4,10.9,7.4,17.9    s-2.4,13-7.4,18c-4.9,4.9-11.1,7.4-18.7,7.4S434,97.6,429,92.6c-4.9-4.9-7.4-10.9-7.4-17.9C421.7,67.7,424.1,61.8,429,56.8z     M447.8,86.4c3.1,0,5.7-1.1,7.7-3.3c2-2.2,3.1-5,3.1-8.4s-1-6.2-3.1-8.4c-2-2.2-4.6-3.3-7.7-3.3c-3.1,0-5.7,1.1-7.7,3.3    c-2,2.2-3.1,4.9-3.1,8.4s1,6.2,3.1,8.4C442.1,85.3,444.6,86.4,447.8,86.4z"/>
		<path id="XMLID_78_" class="st0" d="M479.9,99.1V50.4h15v18.2l13.7-18.2h17.6L508.9,73l20.7,26.1h-18.4l-16.4-21v21H479.9z"/>
		<path id="XMLID_76_" class="st0" d="M173.7,165.1v-48.7h15v48.7H173.7z"/>
		<path id="XMLID_74_" class="st0" d="M199,165.1v-48.7h37.5v12.9H214v35.9H199z"/>
		<path id="XMLID_71_" class="st0" d="M267.6,116.3c5.6,0,10,1.5,13.4,4.5c3.4,3,5.1,6.8,5.1,11.4c0,4.6-1.7,8.4-5.1,11.4    c-3.3,3-7.8,4.5-13.4,4.5h-7.5v17h-15v-48.7H267.6z M265.6,137.2c3.1,0,5.2-1.8,5.2-4.4c0-2.6-2.2-4.3-5.2-4.3h-5.4v8.7H265.6z"/>
		<path id="XMLID_68_" class="st0" d="M283.9,165.1l20.1-49h14.3l20.1,49h-16.1l-3.5-9.1h-15.9l-3.6,9.1H283.9z M307.3,144.7h7.2    l-3.6-11.6L307.3,144.7z"/>
		<path id="XMLID_66_" class="st0" d="M344.9,165.1v-48.7h15v35.9h10.1v-35.9h14.9v35.9h10.1v-35.9h14.9v48.7H344.9z"/>
		<path id="XMLID_63_" class="st0" d="M426,122.8c4.9-4.9,11.2-7.5,18.7-7.5s13.7,2.5,18.7,7.5c4.9,4.9,7.4,10.9,7.4,17.9    c0,7-2.4,13-7.4,18c-4.9,4.9-11.1,7.4-18.7,7.4s-13.8-2.5-18.7-7.5c-4.9-4.9-7.4-10.9-7.4-17.9C418.6,133.7,421,127.7,426,122.8z     M444.7,152.4c3.1,0,5.7-1.1,7.7-3.3c2-2.2,3.1-5,3.1-8.4s-1-6.2-3.1-8.4c-2-2.2-4.6-3.3-7.7-3.3s-5.7,1.1-7.7,3.3    c-2,2.2-3.1,4.9-3.1,8.4s1,6.2,3.1,8.4C439,151.3,441.6,152.4,444.7,152.4z"/>
		<path id="XMLID_61_" class="st0" d="M479.6,165.1v-48.7h15v18.2l13.7-18.2h17.6L508.6,139l20.7,26.1H511l-16.4-21v21H479.6z"/>
	</g>
</g>
</svg>