<?xml version="1.0" encoding="UTF-8"?>
<!-- Generator: Adobe Illustrator 21.1.0, SVG Export Plug-In . SVG Version: 6.00 Build 0)  -->
<svg version="1.1" id="Layer_1" xmlns="http://www.w3.org/2000/svg" xmlns:xlink="http://www.w3.org/1999/xlink" x="0px" y="0px" viewBox="0 0 190 76" style="enable-background:new 0 0 190 76;" xml:space="preserve">
<style type="text/css">
	.st0{fill:#054752;}
	.st1{fill:#2DBEFF;}
	.st2{fill:#9EF769;}
</style>
<g id="Page-1">
	<g id="blablacar-logo">
		<g id="Group">
			<path id="Shape" class="st0" d="M37.2,32.2c-1-5.6-6.2-9.3-11.8-8.4l1.6-9.4l-6-1.1c-0.5,1.1-2.8,6.3-3.8,12     c2.2,1.5,3.8,3.9,4.3,6.8c0.5,3.1-0.4,6-2.2,8.2c0.5,0.6,1,1.1,1.5,1.5c2.3,1.8,5.2,2.5,7.9,2.1C34.4,43.1,38.2,37.8,37.2,32.2z"/>
			<path id="Shape_1_" class="st1" d="M17.1,26.1l0.1-0.6c-2.1-1.4-4.8-2.1-7.5-1.6l1.6-9.4l-6-1.1c-0.5,1.2-2.9,6.6-4,12.7     c-0.8,4.9-0.8,10.1,1.8,13.7c0.6,0.8,1.2,1.5,2,2.1c2.3,1.8,5.2,2.5,7.9,2.1c2.5-0.4,4.7-1.8,6.2-3.6c-0.2-0.2-0.3-0.4-0.5-0.6     C16.3,36.2,16.3,30.9,17.1,26.1z"/>
			<path id="Shape_2_" class="st2" d="M21.6,32.2c-0.5-2.9-2.1-5.2-4.3-6.8l-0.1,0.6c-0.8,4.9-0.8,10.1,1.8,13.7     c0.2,0.2,0.3,0.4,0.5,0.6C21.2,38.2,22.1,35.3,21.6,32.2L21.6,32.2z"/>
		</g>
		<g id="Group_1_" transform="translate(343 85)">
			<path id="Shape_3_" class="st0" d="M-185.4-43h-3.6c-0.1,0-0.2,0.1-0.3,0.2c-0.5,1.3-1.2,2.4-2.2,3.2c-1,0.8-2.3,1.2-4,1.2     c-2.3,0-4.1-1-5.4-2.7c-1.3-1.7-1.9-4-1.9-6.7c0-2.7,0.7-5.1,2-6.7c1.3-1.7,3.1-2.7,5.4-2.7c1.7,0,3,0.4,4,1.2     c1,0.8,1.7,1.9,2.2,3.2c0,0.1,0.1,0.2,0.3,0.2h3.6c0.1,0,0.1,0,0.2-0.1c0.1-0.1,0.1-0.1,0.1-0.2l0-0.1c-0.5-2.4-1.7-4.4-3.4-5.8     c-1.7-1.4-4-2.2-6.8-2.2c-3.3,0-6.2,1.3-8.2,3.6c-2.1,2.3-3.3,5.6-3.3,9.5s1.3,7.2,3.3,9.5c2.1,2.3,5,3.6,8.2,3.6     c2.8,0,5.1-0.8,6.8-2.2c1.7-1.4,2.9-3.4,3.4-5.8l0-0.1c0-0.1,0-0.1-0.1-0.2C-185.3-43-185.4-43-185.4-43L-185.4-43z M-154.2-53.6     c-0.2-0.1-0.6-0.1-1.1-0.1c-0.4,0-1,0-1.6,0.2c-0.5,0.1-1.1,0.3-1.6,0.6c-0.5,0.3-1,0.7-1.4,1.1c-0.3,0.3-0.5,0.6-0.7,0.9     l-0.2,0.3v-2.4c0-0.2-0.1-0.3-0.3-0.3h-3.3c-0.2,0-0.3,0.1-0.3,0.3v17.8c0,0.2,0.1,0.3,0.3,0.3h3.4c0.2,0,0.3-0.1,0.3-0.3v-8.6     c0-1,0.1-1.9,0.3-2.6c0.2-0.7,0.6-1.3,1-1.7c0.5-0.4,1-0.8,1.6-1c0.7-0.3,1.5-0.3,2.1-0.3c0.5,0,1,0.1,1.3,0.1h0     c0.2,0,0.3-0.1,0.3-0.3v-3.6C-154-53.4-154.1-53.5-154.2-53.6z M-228.1-61L-228.1-61l-3.5,0.6c-0.1,0-0.2,0.1-0.2,0.3v24.8     c0,0.2,0.1,0.3,0.3,0.3h3.5c0.2,0,0.3-0.1,0.3-0.3v-25.4C-227.8-60.8-227.9-61-228.1-61z M-235.2-46.2c-0.5-1-1.2-1.9-2.1-2.6     l-0.3-0.2c-0.4-0.3-0.8-0.6-1.2-0.8l-0.1-0.1l0.1-0.1c0.4-0.5,0.7-1,1-1.6c0.4-0.8,0.6-1.7,0.6-2.6c0-1-0.2-1.9-0.6-2.8     c-0.4-0.9-0.9-1.6-1.6-2.2c-0.6-0.6-1.4-1-2.2-1.4c-0.9-0.3-1.9-0.5-3.2-0.5h-7.6c-0.2,0-0.3,0.1-0.3,0.3v25.4     c0,0.2,0.1,0.3,0.3,0.3h9.4c1.3,0,2.4-0.2,3.3-0.5c0.9-0.3,1.7-0.7,2.4-1.3c0.9-0.7,1.6-1.6,2.1-2.6c0.1-0.2,0.2-0.5,0.3-0.7     l0-0.1c0-0.1,0-0.1,0.1-0.2c0.3-0.8,0.4-1.6,0.4-2.4C-234.4-44.1-234.7-45.2-235.2-46.2z M-248.6-57.1h3.2c1,0,1.8,0.1,2.2,0.3     c0.5,0.2,0.9,0.4,1.1,0.7c0.6,0.6,0.8,1.3,0.8,2.1c0,0.8-0.3,1.5-0.8,2.1c-0.3,0.3-0.6,0.6-1.1,0.7c-0.4,0.1-0.9,0.2-1.5,0.3     h-3.9V-57.1z M-238.8-41.4c-0.2,0.5-0.5,0.9-0.8,1.3c-0.4,0.4-0.9,0.7-1.5,0.9c-0.6,0.2-1.4,0.3-2.6,0.3h-4.9v-8.2h4.9     c1.2,0,2,0.1,2.6,0.3c0.6,0.2,1.1,0.5,1.5,0.9c0.4,0.4,0.6,0.8,0.8,1.3s0.3,1,0.3,1.6C-238.5-42.4-238.6-41.9-238.8-41.4z      M-211.5-51.9c-1.3-1.2-3.2-1.8-5.5-1.8c-2,0-3.7,0.5-5,1.5c-1.1,0.9-1.9,1.9-2.4,3.2c-0.1,0.1,0,0.3,0.2,0.3l3.2,0.6     c0.1,0,0.2,0,0.3-0.1c0.7-1.5,1.9-2.2,3.7-2.2c1.2,0,2.2,0.3,2.9,1s1,1.6,1,2.7v0.7c-1.7-0.5-3.3-0.8-4.8-0.8     c-2.1,0-3.9,0.5-5.3,1.6s-2.1,2.6-2.1,4.5c0,1.9,0.6,3.3,1.9,4.4c1.3,1.1,2.8,1.6,4.7,1.6c2.3,0,4.2-0.7,5.7-2.1v1.4     c0,0.2,0.1,0.3,0.3,0.3h3c0.2,0,0.3-0.1,0.3-0.3v-11.6C-209.4-49-210.1-50.7-211.5-51.9L-211.5-51.9z M-214.5-39.3     c-1,0.8-2.2,1.2-3.7,1.2c-1.1,0-1.9-0.2-2.5-0.7c-0.6-0.5-0.9-1.1-0.9-2c0-0.9,0.4-1.6,1.1-2c0.7-0.5,1.6-0.7,2.7-0.7     c1.4,0,3,0.3,4.7,0.8C-213-41.3-213.5-40.2-214.5-39.3L-214.5-39.3z M-274.6-61L-274.6-61l-3.5,0.6c-0.1,0-0.2,0.1-0.2,0.3v24.8     c0,0.2,0.1,0.3,0.3,0.3h3.5c0.2,0,0.3-0.1,0.3-0.3v-25.4C-274.3-60.8-274.4-61-274.6-61z M-281.7-46.2c-0.5-1-1.2-1.9-2.1-2.6     l-0.3-0.2c-0.4-0.3-0.8-0.6-1.2-0.8l-0.1-0.1l0.1-0.1c0.4-0.5,0.7-1,1-1.6c0.4-0.8,0.6-1.7,0.6-2.6c0-1-0.2-1.9-0.6-2.8     c-0.4-0.9-0.9-1.6-1.6-2.2c-0.6-0.6-1.4-1-2.2-1.4c-0.9-0.3-1.9-0.5-3.2-0.5h-7.6c-0.2,0-0.3,0.1-0.3,0.3v25.4     c0,0.2,0.1,0.3,0.3,0.3h9.4c1.3,0,2.4-0.2,3.3-0.5c0.9-0.3,1.7-0.7,2.4-1.3c0.9-0.7,1.6-1.6,2.1-2.6c0.1-0.2,0.2-0.5,0.3-0.7     l0-0.1c0-0.1,0-0.1,0.1-0.2c0.3-0.8,0.4-1.6,0.4-2.4C-280.9-44.1-281.2-45.2-281.7-46.2L-281.7-46.2z M-295.1-57.1h3.2     c1,0,1.8,0.1,2.2,0.3c0.5,0.2,0.9,0.4,1.1,0.7c0.6,0.6,0.8,1.3,0.8,2.1c0,0.8-0.3,1.5-0.8,2.1c-0.3,0.3-0.6,0.6-1.1,0.7     c-0.4,0.1-0.9,0.2-1.5,0.3h-3.9V-57.1z M-285.3-41.4c-0.2,0.5-0.5,0.9-0.8,1.3c-0.4,0.4-0.9,0.7-1.5,0.9     c-0.6,0.2-1.4,0.3-2.6,0.3h-4.9v-8.2h4.9c1.2,0,2,0.1,2.6,0.3c0.6,0.2,1.1,0.5,1.5,0.9c0.4,0.4,0.6,0.8,0.8,1.3     c0.2,0.5,0.3,1,0.3,1.6C-285-42.4-285.1-41.9-285.3-41.4z M-258-51.9c-1.3-1.2-3.2-1.8-5.5-1.8c-2,0-3.7,0.5-5,1.5     c-1.1,0.9-1.9,1.9-2.4,3.2c-0.1,0.1,0,0.3,0.2,0.3l3.2,0.6c0.1,0,0.2,0,0.3-0.1c0.7-1.5,1.9-2.2,3.7-2.2c1.2,0,2.2,0.3,2.9,1     c0.7,0.7,1,1.6,1,2.7v0.7c-1.7-0.5-3.3-0.8-4.8-0.8c-2.1,0-3.9,0.5-5.3,1.6c-1.4,1.1-2.1,2.6-2.1,4.5c0,1.9,0.6,3.3,1.9,4.4     c1.3,1.1,2.8,1.6,4.7,1.6c2.3,0,4.2-0.7,5.7-2.1v1.4c0,0.2,0.1,0.3,0.3,0.3h3c0.2,0,0.3-0.1,0.3-0.3v-11.6     C-256-49-256.6-50.7-258-51.9L-258-51.9z M-261-39.3c-1,0.8-2.2,1.2-3.7,1.2c-1.1,0-1.9-0.2-2.5-0.7c-0.6-0.5-0.9-1.1-0.9-2     c0-0.9,0.4-1.6,1.1-2c0.7-0.5,1.6-0.7,2.7-0.7c1.4,0,3,0.3,4.7,0.8C-259.5-41.3-260-40.2-261-39.3L-261-39.3z M-169.5-51.9     c-1.3-1.2-3.2-1.8-5.5-1.8c-2,0-3.7,0.5-5,1.5c-1.1,0.9-1.9,1.9-2.4,3.2c-0.1,0.1,0,0.3,0.2,0.3l3.2,0.6c0.1,0,0.2,0,0.3-0.1     c0.7-1.5,1.9-2.2,3.7-2.2c1.2,0,2.2,0.3,2.9,1s1,1.6,1,2.7v0.7c-1.7-0.5-3.3-0.8-4.8-0.8c-2.1,0-3.9,0.5-5.3,1.6     s-2.1,2.6-2.1,4.5c0,1.9,0.6,3.3,1.9,4.4c1.3,1.1,2.8,1.6,4.7,1.6c2.3,0,4.2-0.7,5.7-2.1v1.4c0,0.2,0.1,0.3,0.3,0.3h3     c0.2,0,0.3-0.1,0.3-0.3v-11.6C-167.4-49-168.1-50.7-169.5-51.9L-169.5-51.9z M-172.5-39.3c-1,0.8-2.2,1.2-3.7,1.2     c-1.1,0-1.9-0.2-2.5-0.7c-0.6-0.5-0.9-1.1-0.9-2c0-0.9,0.4-1.6,1.1-2c0.7-0.5,1.6-0.7,2.7-0.7c1.4,0,3,0.3,4.7,0.8     C-171-41.3-171.5-40.2-172.5-39.3L-172.5-39.3z"/>
		</g>
	</g>
</g>
</svg>