<?xml version="1.0" encoding="UTF-8"?>
<!-- Generator: Adobe Illustrator 21.1.0, SVG Export Plug-In . SVG Version: 6.00 Build 0)  -->
<svg version="1.1" id="Layer_1" xmlns="http://www.w3.org/2000/svg" xmlns:xlink="http://www.w3.org/1999/xlink" x="0px" y="0px" viewBox="0 0 190 76" style="enable-background:new 0 0 190 76;" xml:space="preserve">
<style type="text/css">
	.st0{fill:#712C6A;}
	.st1{fill:#39A935;}
</style>
<g>
	<g>
		<path class="st0" d="M47.1,36.3v1.8c-3.1,3.5-6,6.4-8.7,8.7c-2.6,2.3-5.2,4-7.7,5.3c-2.5,1.2-4.9,1.8-7.3,1.8    c-2,0-3.8-0.4-5.2-1.2c-1.5-0.8-2.5-2-3.3-3.5c-0.7-1.5-1.1-3.4-1.1-5.5c0-1.7,0.3-3.4,0.8-5.3c0.5-1.9,1.3-3.7,2.3-5.7    c1-1.9,2.3-3.9,3.7-5.9c1.5-2,3.2-4.2,5.2-6.4c2.1-2.3,4.1-4.3,6.1-6c2-1.7,3.8-3,5.5-3.9c1.6-1,3.1-1.7,4.5-2.1    c1.4-0.5,2.6-0.7,3.5-0.7c0.9,0,1.7,0.2,2.4,0.7c0.7,0.4,1.2,1.1,1.5,2c0.4,0.9,0.5,1.9,0.5,3c0,2.1-0.7,4.5-2.2,7.1    c-1.4,2.6-3.2,5.1-5.4,7.5c-2.2,2.4-4.2,4.4-6.2,5.9c-2,1.5-3.4,2.3-4.2,2.3c-0.6,0-1.1-0.2-1.6-0.7c-0.5-0.5-0.7-1-0.7-1.6    c0-1.1,0.6-2.4,1.7-3.9c1.1-1.5,2.4-2.9,3.7-4.2c1.3-1.3,2.1-1.9,2.4-1.9c0.1,0,0.2,0.1,0.2,0.2c0,0.2-0.1,0.5-0.3,0.9    c-0.2,0.4-0.3,0.7-0.3,0.8c0,0.2,0.1,0.2,0.2,0.2c0.3,0,1.2-0.9,2.8-2.6c1.5-1.7,2.9-3.6,4.2-5.6c1.3-2.1,1.9-3.7,1.9-5    c0-0.5-0.1-1-0.4-1.3C45.4,11.2,45,11,44.6,11c-1.3,0-3.3,1.1-6,3.2c-2.7,2.1-5.4,4.8-8.2,8.1c-2.8,3.3-5.1,6.7-7,10.2    c-1.9,3.5-2.8,6.6-2.8,9.2c0,1.5,0.2,2.8,0.7,3.9c0.5,1,1.1,1.8,2,2.4c0.9,0.6,2,0.8,3.2,0.8c2.7,0,5.8-1.1,9.2-3.2    C39.2,43.6,43,40.5,47.1,36.3z"/>
		<path class="st0" d="M50.2,31.4c2.8-2.6,5.6-4.5,8.3-5.8c2.7-1.3,4.8-1.9,6.2-1.9c0.4,0,0.8,0.2,1.1,0.5c0.3,0.3,0.6,0.7,0.8,1.1    c0.2,0.4,0.3,0.7,0.3,1c0,0.3-0.1,0.6-0.4,0.7c-0.3,0.2-0.7,0.4-1.4,0.6c0.1,0.3,0.3,0.7,0.5,1.2c0.2,0.5,0.4,0.8,0.5,1.1    c0.1,0.3,0.2,0.5,0.2,0.8c0,0.4-0.5,1.3-1.4,2.5C64,34.5,63.3,35.4,63,36c-0.4,0.6-0.5,1.3-0.5,2.1c0,1.4,0.6,2.1,1.9,2.1    c1.3,0,3.4-1.2,6.2-3.7v1.7c-4.7,5.3-8.1,7.9-10.2,7.9c-0.7,0-1.3-0.2-1.6-0.7s-0.5-1.2-0.5-2.1c0-1.5,0.5-3.6,1.6-6.4    c-2.7,3-4.8,5.2-6.1,6.5c-1.3,1.3-2.4,1.9-3.3,1.9c-0.4,0-0.9-0.4-1.5-1.1c-0.6-0.7-1.2-1.6-1.6-2.8c-0.5-1.1-0.7-2.3-0.7-3.5    c0-0.9,0.1-1.6,0.3-2.2c0.2-0.6,0.5-1.2,1-1.8C48.3,33.2,49.1,32.4,50.2,31.4z M63.6,28.3c-4.9,2.2-8.3,4.1-10.4,5.7    c-2.1,1.6-3.1,3.2-3.1,4.8c0,0.6,0.1,1.1,0.3,1.5c0.2,0.4,0.5,0.6,0.8,0.6c0.2,0,0.6-0.1,1.1-0.4c2-1.2,3.8-2.7,5.4-4.5    C59.4,34.1,61.3,31.5,63.6,28.3z"/>
		<path class="st0" d="M70,38.6v-1.8c1-1.2,1.8-2.2,2.3-3.1c-0.6-0.2-1-0.5-1.3-0.8c-0.3-0.3-0.4-0.7-0.4-1.3c0-0.7,0.3-1.5,0.8-2.6    c0.6-1,1.3-2,2.1-2.9c0.8-0.9,1.6-1.5,2.2-1.7c0.3-0.1,0.5-0.2,0.8-0.2c0.4,0,0.6,0.2,0.6,0.5c0,0.3-0.3,1-0.9,1.9    c3.9-0.6,6.3-0.9,7.3-0.9c0.4,0,0.7,0,0.8,0.1c0.3,0.2,0.6,0.6,0.8,1.2c0.2,0.6,0.3,1.2,0.3,1.9c0,0.4-0.2,0.8-0.5,1.3    c-0.3,0.5-0.9,1.1-1.8,2c-1,1.1-1.8,2.2-2.5,3.5c-0.7,1.3-1,2.2-1,2.8c0,0.9,0.5,1.3,1.6,1.3c1.1,0,3.1-1.2,6-3.5v1.9    c-1.6,1.6-2.8,2.9-3.9,3.9c-1,0.9-1.9,1.7-2.8,2.2c-0.9,0.6-1.6,0.8-2.3,0.8c-0.8,0-1.4-0.4-2-1.1c-0.5-0.7-0.8-1.8-0.8-3.1    c0-0.8,0.2-1.7,0.6-2.8c0.4-1,1-2.2,1.8-3.4c0.8-1.2,1.7-2.4,2.7-3.6c-0.5,0.1-1.1,0.2-1.8,0.4c-0.7,0.1-1.3,0.2-2.1,0.4    c-0.7,0.1-1.3,0.2-1.7,0.3C73.8,34.6,72.2,36.7,70,38.6z"/>
		<path class="st0" d="M102.4,26.3L101,28c1.7,0.2,3.2,0.4,4.5,0.6c1.3,0.3,2.5,0.5,3.6,0.8c1.1,0.3,2.1,0.6,2.9,1    c3,1.2,4.4,3,4.4,5.2c0,1.3-0.6,2.7-1.9,4c-1.2,1.3-2.8,2.4-4.8,3.5c-2,1-4,1.8-6.1,2.4c-2.1,0.6-4,0.9-5.7,0.9    c-2.8,0-5.1-0.5-6.7-1.6c-1.6-1.1-2.4-2.5-2.4-4.3c0-1.3,0.5-2.8,1.5-4.5c1-1.7,2.5-3.9,4.5-6.4c-1.5-0.1-2.6-0.3-3.3-0.7    c-0.6-0.4-1-0.9-1-1.6c0-0.4,0.1-0.8,0.4-1c0.2-0.2,0.6-0.4,1-0.5c0.4-0.1,1.2-0.2,2.4-0.4c1.2-0.1,2.7-0.3,4.5-0.6    c2-2.5,3.9-4.4,5.5-5.7c1.6-1.3,3.4-2,5.2-2.2c0.1,0,0.3,0,0.5,0c0.2,0,0.3,0,0.3,0.1c0,0.1-0.2,0.4-0.6,0.9    c-0.4,0.5-1.1,1.3-2.1,2.3c-0.9,1.1-2.1,2.3-3.4,3.8c3.5-0.5,6.4-1,8.6-1.6c2.2-0.6,3.9-1.3,5.1-2.2c1.1-0.8,1.7-1.8,1.7-2.8    c0-1.3-0.6-2.2-1.8-2.7c-1.2-0.6-3.1-0.8-5.6-0.8c-1.4,0-3,0.1-4.8,0.4c-1.8,0.3-3.4,0.6-4.9,1c-1.5,0.4-2.7,0.7-3.9,1.1    c-1.1,0.4-1.7,0.7-1.7,0.9c0,0.1,0.1,0.1,0.2,0.2c0.9,0.3,1.4,0.6,1.4,0.8c0,0.3-1.4,0.9-4.2,1.7c-2.8,0.9-4.7,1.3-5.7,1.3    c-0.7,0-1-0.3-1-1c0-0.8,0.8-2.3,2.3-4.5c1.5-2.1,2.9-3.5,4.1-4.1c0.4-0.2,1.4-0.5,3-1c1.6-0.4,3.3-0.9,5.2-1.3    c1.9-0.4,3.8-0.8,5.7-1c1.9-0.3,3.7-0.4,5.2-0.4c3.5,0,6.2,0.6,8,1.9c1.8,1.3,2.7,2.9,2.7,4.8c0,1.3-0.4,2.5-1.2,3.7    c-0.8,1.2-2.1,2.3-3.8,3.4c-1.7,1.1-4,2-6.7,2.8C109.4,25.2,106.2,25.9,102.4,26.3z M99.4,29.9c-1,1.2-1.8,2.2-2.6,3.1    c-0.8,0.9-1.3,1.6-1.6,2.2c-0.3,0.6-0.5,1.1-0.5,1.7c0,0.9,0.5,1.7,1.4,2.4c0.9,0.7,2.3,1.1,4,1.1c1.6,0,3.3-0.3,5.2-0.9    c1.8-0.6,3.4-1.3,4.6-2.2c1.2-0.9,1.9-1.8,1.9-2.8c0-0.8-0.5-1.5-1.4-2c-0.9-0.5-2.3-1-4.2-1.4C104.3,30.6,102.1,30.3,99.4,29.9z"/>
		<path class="st0" d="M136.9,36.4v1.9c-1.2,1.1-2.2,1.9-3,2.2c-0.7,0.4-1.8,0.5-3.2,0.4c-2.4,2.9-4.6,4.3-6.4,4.3c-1,0-2-0.3-2.9-1    c-0.9-0.7-1.6-1.6-2.1-2.8c-0.5-1.2-0.8-2.5-0.8-4c0-1.2,0.4-2.5,1.2-4c0.8-1.5,1.8-2.8,3.1-4.1c1.3-1.3,2.6-2.3,4.1-3.1    c1.4-0.8,2.8-1.2,4-1.2c0.9,0,1.6,0.1,2.1,0.4c0.5,0.3,0.8,0.7,0.8,1.1c0,0.4-0.2,0.8-0.6,1.3c0.7,0.2,1.2,0.4,1.5,0.7    c0.3,0.3,0.4,1,0.4,1.9c0,0.9-0.2,2-0.6,3.4c-0.4,1.4-1,2.7-1.7,3.9l0.5,0.5h0.4c0.3,0,0.6-0.1,0.9-0.2c0.3-0.2,0.6-0.3,0.8-0.5    C135.5,37.4,136.1,37,136.9,36.4z M131.1,29c-1.6,0.9-2.9,1.8-4,2.5c-1.1,0.8-2,1.5-2.8,2.3c-0.8,0.8-1.3,1.6-1.5,2.3    c-0.5,2.1-0.7,3.2-0.7,3.4c0,1.2,0.9,1.9,2.6,1.9c0.8,0,2.2-0.7,4-2.1c-0.3-0.9-0.5-1.7-0.5-2.5c0-1.2,0.2-2.4,0.7-3.6    C129.4,32,130.1,30.6,131.1,29z"/>
		<path class="st0" d="M154.9,36.4v1.9c-1.2,1.1-2.2,1.9-3,2.2c-0.7,0.4-1.8,0.5-3.2,0.4c-2.4,2.9-4.6,4.3-6.4,4.3c-1,0-2-0.3-2.9-1    c-0.9-0.7-1.6-1.6-2.1-2.8c-0.5-1.2-0.8-2.5-0.8-4c0-1.2,0.4-2.5,1.2-4c0.8-1.5,1.8-2.8,3.1-4.1c1.3-1.3,2.6-2.3,4.1-3.1    c1.4-0.8,2.8-1.2,4-1.2c0.9,0,1.6,0.1,2.1,0.4c0.5,0.3,0.8,0.7,0.8,1.1c0,0.4-0.2,0.8-0.6,1.3c0.7,0.2,1.2,0.4,1.5,0.7    c0.3,0.3,0.4,1,0.4,1.9c0,0.9-0.2,2-0.6,3.4c-0.4,1.4-1,2.7-1.7,3.9l0.5,0.5h0.4c0.3,0,0.6-0.1,0.9-0.2c0.3-0.2,0.6-0.3,0.8-0.5    C153.6,37.4,154.1,37,154.9,36.4z M149.1,29c-1.6,0.9-2.9,1.8-4,2.5c-1.1,0.8-2,1.5-2.8,2.3c-0.8,0.8-1.3,1.6-1.5,2.3    c-0.5,2.1-0.7,3.2-0.7,3.4c0,1.2,0.9,1.9,2.6,1.9c0.8,0,2.2-0.7,4-2.1c-0.3-0.9-0.5-1.7-0.5-2.5c0-1.2,0.2-2.4,0.7-3.6    C147.4,32,148.2,30.6,149.1,29z"/>
		<path class="st0" d="M176.1,36.4v1.9c-2.1,2.5-3.9,4.3-5.3,5.6c-1.4,1.3-2.6,1.9-3.6,1.9c-0.9,0-1.7-0.3-2.5-0.8    c-0.7-0.5-1.4-1.3-2-2.2s-1.3-2.3-2.1-4c-1,1.2-1.8,2.3-2.6,3.3c-0.8,1-1.3,1.7-1.6,2c-0.3,0.3-0.6,0.5-0.8,0.5    c-0.5,0-0.9-0.3-1.1-1c-0.2-0.6-0.3-1.6-0.3-2.8c0-1.7,0.2-3.3,0.6-4.9c0.4-1.6,1-3.1,1.7-4.6c0.8-1.5,1.7-3.1,2.9-4.8    c1.2-1.7,2.5-3.5,4-5.4c2-2.6,3.8-4.7,5.3-6.3c1.5-1.6,2.8-2.9,3.9-3.7c1.1-0.8,2-1.3,2.7-1.3c0.9,0,1.3,0.4,1.3,1.2    c0,0.7-1.7,3.2-5,7.5s-8.2,10.2-14.5,17.6v2.4c4.3-4.6,7.7-7.9,10.3-10.1c2.6-2.2,4.6-3.3,6-3.3c0.6,0,1,0.3,1.3,1    c0.3,0.7,0.5,1.5,0.5,2.4c0,1.8-0.8,3.5-2.4,5.1c-1.6,1.6-4,3.4-7.3,5.4c0.6,0.8,1.1,1.5,1.5,1.8c0.4,0.4,1,0.6,1.6,0.6    c0.6,0,1.2-0.2,1.9-0.6c0.7-0.4,1.4-0.9,2.1-1.5C173.5,38.8,174.6,37.8,176.1,36.4z M164.9,37.9c0.7-0.5,1.6-1.2,2.7-2.2    c1.1-1,2-2,2.7-3.1c0.7-1.1,1.1-1.9,1.1-2.7c0-0.3-0.1-0.4-0.4-0.4c-0.7,0-1.9,0.7-3.7,2.1c-1.7,1.4-3.4,3.1-5.1,5.3    C163,36.8,163.9,37.2,164.9,37.9z"/>
	</g>
	<g>
		<path class="st1" d="M70.3,58.5c0,0.1,0,0.3-0.1,0.4c-0.1,0.1-0.2,0.2-0.3,0.3c-0.1,0.1-0.2,0.2-0.4,0.2c-0.1,0.1-0.3,0.1-0.4,0.1    l0-0.1c0.1-0.1,0.2-0.3,0.2-0.5c0-0.1,0-0.2-0.1-0.2c-0.1-0.1-0.2-0.1-0.3-0.1c-0.3,0-0.6,0.1-0.9,0.3c-0.3,0.2-0.5,0.5-0.7,0.8    c-0.2,0.3-0.4,0.7-0.5,1c-0.1,0.4-0.2,0.7-0.2,1c0,0.5,0.1,0.8,0.3,1c0.2,0.2,0.4,0.3,0.8,0.3c0.1,0,0.3,0,0.5-0.1    c0.2,0,0.3-0.1,0.5-0.2c0.1-0.1,0.3-0.1,0.4-0.2c0.1-0.1,0.3-0.2,0.4-0.3l0.1,0.2c-0.2,0.1-0.3,0.3-0.5,0.4    c-0.2,0.1-0.4,0.3-0.6,0.4c-0.2,0.1-0.4,0.2-0.7,0.3c-0.2,0.1-0.5,0.1-0.7,0.1c-0.5,0-0.8-0.1-1-0.4c-0.2-0.2-0.3-0.6-0.3-1    c0-0.3,0.1-0.7,0.2-1.1c0.2-0.4,0.4-0.8,0.6-1.2c0.3-0.4,0.6-0.7,0.9-1c0.3-0.3,0.7-0.6,1.1-0.7c0.4-0.2,0.7-0.3,1-0.3    c0.3,0,0.5,0,0.6,0.1C70.2,58.3,70.3,58.4,70.3,58.5z"/>
		<path class="st1" d="M75.9,58.5c-0.1,0.1-0.2,0.2-0.3,0.4c-0.1,0.2-0.2,0.3-0.3,0.5c-0.1,0.1-0.1,0.3-0.2,0.5    c-0.1,0.2-0.2,0.4-0.3,0.7c-0.1,0.3-0.2,0.5-0.3,0.7c-0.1,0.2-0.1,0.3-0.2,0.4c-0.1,0.4-0.2,0.6-0.2,0.7c0,0.1,0.1,0.2,0.2,0.2    c0.2,0,0.3-0.1,0.5-0.2c0.2-0.1,0.4-0.2,0.6-0.4l0.1,0.3c-0.2,0.1-0.4,0.3-0.6,0.5c-0.2,0.2-0.4,0.3-0.6,0.4    c-0.2,0.1-0.4,0.2-0.6,0.3c-0.2,0.1-0.4,0.1-0.5,0.1c-0.2,0-0.3-0.1-0.3-0.3c0-0.2,0.1-0.6,0.3-1.1l0.3-0.9h-0.1    c-0.3,0.4-0.6,0.7-0.9,1c-0.3,0.3-0.5,0.5-0.7,0.7c-0.2,0.2-0.4,0.3-0.6,0.4c-0.2,0.1-0.4,0.1-0.6,0.1c-0.4,0-0.7-0.3-0.7-0.9    c0-0.3,0-0.6,0.1-0.8c0.1-0.3,0.2-0.6,0.3-0.8c0.1-0.3,0.3-0.5,0.5-0.8c0.2-0.2,0.4-0.5,0.6-0.7c0.2-0.2,0.5-0.4,0.8-0.6    c0.3-0.2,0.6-0.4,0.9-0.5c0.3-0.2,0.6-0.3,0.9-0.4c0.3-0.1,0.6-0.1,1-0.1c0.1,0,0.3,0,0.5,0.1C75.8,58.2,75.9,58.3,75.9,58.5    L75.9,58.5z M75.1,58.7c-0.1-0.1-0.2-0.1-0.3-0.1c-0.1,0-0.2,0-0.4,0c-0.3,0-0.5,0.1-0.8,0.2c-0.3,0.1-0.5,0.3-0.8,0.6    c-0.2,0.2-0.5,0.5-0.7,0.7c-0.2,0.3-0.4,0.5-0.5,0.7c-0.2,0.3-0.3,0.6-0.4,0.9c-0.1,0.3-0.2,0.5-0.2,0.7c0,0.2,0,0.3,0.1,0.4    c0.1,0.1,0.1,0.1,0.3,0.1c0.2,0,0.4-0.1,0.6-0.3c0.2-0.2,0.5-0.4,0.7-0.6c0.2-0.2,0.4-0.5,0.6-0.8c0.2-0.3,0.3-0.5,0.4-0.6    c0.1-0.1,0.2-0.3,0.3-0.6c0.1-0.2,0.1-0.3,0.2-0.5c0.1-0.1,0.2-0.3,0.3-0.4C74.8,58.9,74.9,58.8,75.1,58.7z"/>
		<path class="st1" d="M82,58.2c0,0,0,0.1-0.1,0.4c-0.1,0.2-0.2,0.5-0.3,0.8l-0.8,2c0,0.1-0.1,0.2-0.1,0.3c0,0.1-0.1,0.2-0.1,0.4    c0,0.1-0.1,0.2-0.1,0.3c0,0.1,0,0.2,0,0.2c0,0.1,0.1,0.2,0.2,0.2c0.1,0,0.2,0,0.3-0.1c0.2-0.1,0.4-0.3,0.7-0.5l0.1,0.3    c-0.5,0.5-0.9,0.8-1.3,1c-0.3,0.2-0.6,0.3-0.8,0.3c-0.2,0-0.3-0.1-0.3-0.3c0-0.1,0-0.2,0-0.3c0-0.1,0.1-0.3,0.1-0.4    c0-0.1,0.1-0.3,0.1-0.4c0.1-0.1,0.1-0.3,0.2-0.4c0.1-0.4,0.3-0.7,0.4-0.9c0.1-0.3,0.2-0.5,0.2-0.6c0.1-0.2,0.1-0.3,0.2-0.4    c0-0.1,0.1-0.2,0.1-0.3h-0.1l-0.3,0.4c-0.2,0.3-0.5,0.6-0.8,0.9c-0.3,0.3-0.6,0.7-0.8,1c-0.3,0.3-0.6,0.6-0.8,0.9    c-0.3,0.3-0.5,0.5-0.7,0.7c-0.1,0-0.1,0.1-0.2,0.1c-0.1,0-0.2,0-0.2,0c-0.1,0-0.2,0-0.2-0.1c0-0.1-0.1-0.1-0.1-0.2    c0-0.1,0-0.2,0-0.3c0-0.1,0.1-0.3,0.1-0.4c0.1-0.4,0.3-0.8,0.5-1.2c0.2-0.4,0.3-0.8,0.5-1.1c0.1-0.3,0.2-0.7,0.3-0.9    c0.1-0.3,0.1-0.4,0.1-0.5c0-0.1,0-0.1-0.1-0.1c-0.1,0-0.3,0.1-0.6,0.2l-0.4,0.2L76.6,59c0.1-0.1,0.3-0.2,0.5-0.3    c0.2-0.1,0.4-0.2,0.6-0.3c0.2-0.1,0.4-0.2,0.6-0.3c0.2-0.1,0.4-0.1,0.5-0.1c0.1,0,0.1,0.1,0.1,0.2c0,0.1,0,0.2-0.1,0.5    c-0.1,0.2-0.2,0.5-0.3,0.8s-0.2,0.6-0.3,0.9c-0.1,0.3-0.2,0.5-0.3,0.7c-0.3,0.7-0.4,1-0.4,1.1c0,0.1,0,0.2,0.1,0.2    c0.1,0,0.2-0.1,0.3-0.2c0.2-0.1,0.3-0.3,0.5-0.5c0.2-0.2,0.4-0.4,0.6-0.7c0.2-0.3,0.4-0.5,0.6-0.7c0.2-0.2,0.4-0.4,0.5-0.6    c0.1-0.2,0.3-0.3,0.3-0.4l0.3-0.4c0.1-0.1,0.1-0.1,0.2-0.2c0.1-0.1,0.1-0.1,0.2-0.1c0.3-0.2,0.5-0.3,0.8-0.3    C82,58,82,58.1,82,58.2z"/>
		<path class="st1" d="M86.8,58.6c0,0.2-0.1,0.3-0.3,0.4c-0.2,0.1-0.4,0.1-0.6,0.1c0-0.2-0.1-0.4-0.3-0.5c-0.2-0.1-0.4-0.1-0.6-0.1    c-0.3,0-0.6,0.1-0.8,0.3c-0.2,0.2-0.2,0.4-0.2,0.6c0,0.2,0.1,0.4,0.3,0.5c0.2,0.2,0.4,0.3,0.7,0.5c0.2,0.1,0.3,0.2,0.4,0.3    c0.1,0.1,0.3,0.2,0.4,0.3c0.1,0.1,0.2,0.2,0.2,0.3c0.1,0.1,0.1,0.2,0.1,0.4c0,0.5-0.2,0.9-0.7,1.3c-0.3,0.2-0.6,0.4-0.9,0.5    c-0.3,0.1-0.7,0.2-1.2,0.2c-0.4,0-0.8-0.1-1-0.2c-0.2-0.2-0.3-0.3-0.3-0.6c0-0.2,0.1-0.4,0.3-0.5c0.2-0.1,0.4-0.2,0.7-0.2    c0.1,0.3,0.2,0.5,0.3,0.7c0.2,0.2,0.4,0.2,0.8,0.2c0.4,0,0.7-0.1,0.9-0.3c0.2-0.2,0.3-0.5,0.3-0.8c0-0.1,0-0.3-0.1-0.4    c-0.1-0.1-0.2-0.2-0.4-0.4l-0.9-0.6c-0.2-0.2-0.4-0.4-0.5-0.5c-0.1-0.2-0.1-0.3-0.1-0.5c0-0.2,0.1-0.5,0.2-0.7    c0.2-0.2,0.4-0.4,0.7-0.6c0.5-0.3,1-0.4,1.6-0.4c0.3,0,0.5,0,0.7,0.1C86.7,58.3,86.8,58.4,86.8,58.6z"/>
		<path class="st1" d="M91.5,58.5c0,0.2-0.1,0.3-0.2,0.5c-0.1,0.2-0.2,0.3-0.4,0.5c-0.2,0.2-0.3,0.3-0.5,0.5    c-0.2,0.1-0.3,0.3-0.5,0.4c-0.3,0.2-0.6,0.4-0.9,0.6c-0.3,0.2-0.7,0.3-1,0.4c0,0.1-0.1,0.2-0.1,0.4c0,0.1,0,0.2,0,0.2    c0,0.4,0.1,0.7,0.3,0.9c0.2,0.2,0.4,0.3,0.8,0.3c0.3,0,0.6-0.1,0.9-0.2c0.3-0.2,0.6-0.3,0.8-0.5l0.1,0.2c-0.1,0.1-0.3,0.3-0.5,0.4    c-0.2,0.1-0.4,0.3-0.6,0.4c-0.2,0.1-0.4,0.2-0.7,0.3c-0.2,0.1-0.5,0.1-0.7,0.1c-0.4,0-0.8-0.1-1-0.3c-0.3-0.2-0.4-0.6-0.4-1    c0-1,0.4-1.9,1.2-2.8c0.2-0.2,0.4-0.4,0.6-0.5c0.2-0.2,0.5-0.4,0.7-0.5c0.2-0.1,0.5-0.3,0.8-0.4c0.3-0.1,0.5-0.1,0.8-0.1    C91.3,58,91.5,58.2,91.5,58.5z M90.5,58.9c0-0.2-0.1-0.3-0.3-0.3c-0.2,0-0.3,0.1-0.5,0.2c-0.2,0.1-0.4,0.3-0.5,0.5    c-0.2,0.2-0.3,0.4-0.5,0.7c-0.1,0.3-0.3,0.5-0.3,0.8c0.2,0,0.5-0.1,0.7-0.2c0.3-0.1,0.5-0.3,0.7-0.4s0.4-0.4,0.6-0.6    C90.4,59.4,90.5,59.2,90.5,58.9z"/>
		<path class="st1" d="M104,58.2c0,0.1,0,0.2-0.1,0.4c0,0.2-0.1,0.3-0.2,0.5c-0.5,0.9-1.1,1.7-1.7,2.5c-0.6,0.7-1.2,1.3-1.9,1.9    c-0.1,0.1-0.3,0.2-0.5,0.3c-0.2,0.1-0.4,0.1-0.6,0.1c-0.1,0-0.1,0-0.1-0.1c0,0,0-0.1,0-0.1c0,0,0-0.1,0.1-0.3    c0-0.1,0.1-0.3,0.2-0.6c0.1-0.3,0.2-0.6,0.3-1c0.1-0.3,0.1-0.6,0.2-0.9c0.1-0.3,0.2-0.6,0.2-0.9l0,0c-0.5,0.7-1,1.3-1.3,1.8    c-0.4,0.5-0.7,0.8-0.9,1.1c-0.2,0.3-0.5,0.5-0.6,0.6c-0.2,0.1-0.3,0.3-0.4,0.4c-0.1,0.1-0.2,0.1-0.2,0.1c-0.1,0-0.2,0-0.3,0    c-0.1,0-0.2-0.1-0.2-0.2c0-0.2,0.1-0.6,0.3-1.3c0.1-0.2,0.1-0.4,0.2-0.7c0.1-0.3,0.2-0.6,0.3-0.9c0.1-0.3,0.2-0.6,0.2-0.9    c0.1-0.3,0.1-0.5,0.1-0.6c0-0.2,0-0.3-0.1-0.3c-0.1-0.1-0.2-0.1-0.3-0.1c-0.2,0-0.4,0-0.6,0.1c-0.2,0.1-0.4,0.2-0.6,0.3l0-0.2    c0.2-0.1,0.4-0.2,0.7-0.4c0.2-0.1,0.5-0.2,0.7-0.3c0.2-0.1,0.4-0.2,0.6-0.2c0.2-0.1,0.3-0.1,0.5-0.1c0.2,0,0.2,0.1,0.2,0.4    c0,0.1,0,0.3-0.1,0.6c-0.1,0.3-0.1,0.5-0.2,0.9c-0.1,0.2-0.1,0.5-0.2,0.8c-0.1,0.3-0.2,0.6-0.3,0.9c-0.1,0.3-0.2,0.6-0.2,0.8    C97,62.6,97,62.7,97,62.8c0,0.1,0,0.1,0.1,0.1c0,0,0.1,0,0.2-0.1c0.1-0.1,0.2-0.1,0.2-0.2c0.4-0.4,0.7-0.9,1.1-1.4    c0.3-0.5,0.7-1,1-1.5l0.7-1.2c0.1-0.1,0.2-0.2,0.3-0.2c0.2,0,0.3-0.1,0.4-0.1c0.1,0,0.2,0.1,0.2,0.2c0,0,0,0.1,0,0.2    c0,0.1-0.1,0.2-0.1,0.4l-0.7,2.3c-0.1,0.4-0.2,0.8-0.3,1.1c-0.1,0.3-0.1,0.4-0.1,0.5c0,0.1,0,0.1,0.1,0.1c0.1,0,0.2-0.1,0.4-0.2    c0.2-0.1,0.3-0.3,0.5-0.5c0.2-0.2,0.4-0.4,0.5-0.6c0.2-0.2,0.3-0.4,0.4-0.5c0.3-0.4,0.5-0.9,0.8-1.4c0.2-0.5,0.4-1,0.4-1.5    l0.3-0.1c0.2,0,0.3-0.1,0.4-0.1C103.9,58,104,58.1,104,58.2z"/>
		<path class="st1" d="M108.5,58.5c0,0.2-0.1,0.3-0.2,0.5c-0.1,0.2-0.2,0.3-0.4,0.5c-0.2,0.2-0.3,0.3-0.5,0.5    c-0.2,0.1-0.3,0.3-0.5,0.4c-0.3,0.2-0.6,0.4-0.9,0.6c-0.3,0.2-0.7,0.3-1,0.4c0,0.1-0.1,0.2-0.1,0.4c0,0.1,0,0.2,0,0.2    c0,0.4,0.1,0.7,0.3,0.9c0.2,0.2,0.4,0.3,0.8,0.3c0.3,0,0.6-0.1,0.9-0.2c0.3-0.2,0.6-0.3,0.8-0.5l0.1,0.2c-0.1,0.1-0.3,0.3-0.5,0.4    c-0.2,0.1-0.4,0.3-0.6,0.4c-0.2,0.1-0.4,0.2-0.7,0.3c-0.2,0.1-0.5,0.1-0.7,0.1c-0.4,0-0.8-0.1-1-0.3c-0.3-0.2-0.4-0.6-0.4-1    c0-1,0.4-1.9,1.2-2.8c0.2-0.2,0.4-0.4,0.6-0.5c0.2-0.2,0.5-0.4,0.7-0.5c0.2-0.1,0.5-0.3,0.8-0.4c0.3-0.1,0.5-0.1,0.8-0.1    C108.3,58,108.5,58.2,108.5,58.5z M107.4,58.9c0-0.2-0.1-0.3-0.3-0.3c-0.2,0-0.3,0.1-0.5,0.2c-0.2,0.1-0.4,0.3-0.5,0.5    c-0.2,0.2-0.3,0.4-0.5,0.7c-0.1,0.3-0.3,0.5-0.3,0.8c0.2,0,0.5-0.1,0.7-0.2c0.3-0.1,0.5-0.3,0.7-0.4s0.4-0.4,0.6-0.6    C107.3,59.4,107.4,59.2,107.4,58.9z"/>
		<path class="st1" d="M116.2,54.8c0,0,0,0.2-0.1,0.5c-0.1,0.3-0.2,0.6-0.3,0.9c-0.1,0.4-0.3,0.7-0.4,1.1c-0.1,0.4-0.3,0.8-0.4,1.1    c-0.2,0.6-0.4,1.1-0.6,1.6c-0.2,0.5-0.3,0.9-0.5,1.3c-0.2,0.4-0.3,0.8-0.4,1c-0.1,0.2-0.1,0.3-0.1,0.4c0,0.1,0.1,0.1,0.2,0.1    c0.1,0,0.2,0,0.3-0.1c0.2-0.1,0.4-0.3,0.7-0.5l0.1,0.3c-0.5,0.5-1,0.8-1.3,1c-0.3,0.2-0.6,0.3-0.8,0.3c-0.2,0-0.3-0.1-0.3-0.3    c0-0.1,0-0.2,0-0.3c0-0.1,0.1-0.3,0.1-0.4c0-0.1,0.1-0.3,0.1-0.4c0.1-0.1,0.1-0.3,0.2-0.4c0.2-0.5,0.4-1,0.5-1.3    c0.1-0.4,0.3-0.7,0.4-0.9c0.1-0.2,0.2-0.4,0.2-0.6c0.1-0.1,0.1-0.3,0.1-0.4c0.4-1,0.7-1.7,0.8-2.2c0.2-0.5,0.2-0.8,0.2-0.9    c0-0.1,0-0.1,0-0.2c0,0-0.1,0-0.1,0c-0.1,0-0.2,0-0.3,0.1c-0.1,0.1-0.4,0.2-0.7,0.4l-0.1-0.2c0.3-0.2,0.6-0.4,0.9-0.5    c0.3-0.1,0.6-0.3,0.9-0.4c0.2-0.1,0.3-0.1,0.4-0.1C116.1,54.7,116.2,54.7,116.2,54.8z"/>
		<path class="st1" d="M120.4,59.2c0,0.5-0.1,1-0.3,1.5c-0.2,0.5-0.5,0.9-0.8,1.4c-0.5,0.6-0.9,1.1-1.4,1.3    c-0.5,0.3-0.9,0.4-1.4,0.4c-0.8,0-1.2-0.4-1.2-1.3c0-0.3,0.1-0.6,0.2-1c0.1-0.3,0.3-0.7,0.4-1c0.2-0.3,0.4-0.6,0.7-0.9    c0.3-0.3,0.5-0.5,0.8-0.8c0.3-0.2,0.6-0.4,0.9-0.5c0.3-0.1,0.7-0.2,1-0.2c0.3,0,0.6,0.1,0.8,0.3C120.3,58.6,120.4,58.8,120.4,59.2    z M119.4,59.6c0-0.4-0.1-0.6-0.2-0.8c-0.1-0.1-0.3-0.2-0.6-0.2c-0.6,0-1.1,0.4-1.6,1.2c-0.5,0.8-0.7,1.6-0.7,2.5    c0,0.3,0.1,0.5,0.2,0.7c0.1,0.2,0.3,0.3,0.6,0.3c0.2,0,0.4-0.1,0.6-0.2c0.2-0.1,0.4-0.3,0.6-0.5c0.2-0.2,0.3-0.4,0.5-0.7    c0.1-0.3,0.3-0.5,0.3-0.8c0.1-0.3,0.2-0.5,0.2-0.8C119.4,60,119.4,59.8,119.4,59.6z"/>
		<path class="st1" d="M126.7,58.2c0,0.2-0.2,0.5-0.6,1.1c-0.2,0.3-0.5,0.6-0.7,1c-0.3,0.4-0.6,0.7-0.9,1.1    c-0.3,0.3-0.6,0.7-0.8,0.9c-0.3,0.3-0.5,0.5-0.6,0.6c-0.4,0.3-0.6,0.5-0.9,0.6c-0.2,0.1-0.5,0.2-0.7,0.2c-0.1,0-0.2-0.1-0.2-0.2    c0-0.1,0-0.3,0.1-0.5c0.1-0.2,0.1-0.5,0.2-0.8c0.1-0.2,0.1-0.4,0.2-0.7c0.1-0.3,0.2-0.6,0.3-0.9c0.1-0.3,0.2-0.6,0.2-0.9    c0.1-0.3,0.1-0.5,0.1-0.6c0-0.1,0-0.2-0.1-0.2c-0.1,0-0.2-0.1-0.3-0.1c-0.2,0-0.4,0-0.6,0.1c-0.2,0.1-0.4,0.2-0.6,0.3l0-0.2    c0.1-0.1,0.3-0.2,0.5-0.3c0.2-0.1,0.4-0.2,0.7-0.3c0.2-0.1,0.5-0.2,0.7-0.3c0.2-0.1,0.4-0.1,0.6-0.1c0.2,0,0.2,0.1,0.2,0.3    c0,0.2,0,0.4-0.1,0.7c-0.1,0.3-0.1,0.6-0.2,1c-0.1,0.4-0.2,0.7-0.3,1.1c-0.1,0.3-0.2,0.6-0.3,0.9c-0.1,0.4-0.2,0.6-0.2,0.7    c0,0,0,0.1,0.1,0.1c0.1,0,0.2-0.1,0.4-0.2c0.2-0.1,0.3-0.3,0.5-0.5c0.2-0.2,0.4-0.5,0.6-0.7c0.2-0.3,0.4-0.5,0.6-0.8    s0.4-0.5,0.5-0.8c0.2-0.3,0.3-0.5,0.4-0.7c0.1-0.2,0.2-0.3,0.2-0.5c0-0.1,0.1-0.3,0.1-0.4c0.1,0,0.2-0.1,0.3-0.1    c0.1,0,0.2-0.1,0.3-0.1C126.6,58,126.7,58.1,126.7,58.2z"/>
		<path class="st1" d="M130.9,58.5c0,0.2-0.1,0.3-0.2,0.5c-0.1,0.2-0.2,0.3-0.4,0.5c-0.2,0.2-0.3,0.3-0.5,0.5    c-0.2,0.1-0.3,0.3-0.5,0.4c-0.3,0.2-0.6,0.4-0.9,0.6c-0.3,0.2-0.7,0.3-1,0.4c0,0.1-0.1,0.2-0.1,0.4c0,0.1,0,0.2,0,0.2    c0,0.4,0.1,0.7,0.3,0.9c0.2,0.2,0.4,0.3,0.8,0.3c0.3,0,0.6-0.1,0.9-0.2c0.3-0.2,0.6-0.3,0.8-0.5l0.1,0.2c-0.1,0.1-0.3,0.3-0.5,0.4    c-0.2,0.1-0.4,0.3-0.6,0.4c-0.2,0.1-0.4,0.2-0.7,0.3c-0.2,0.1-0.5,0.1-0.7,0.1c-0.4,0-0.8-0.1-1-0.3c-0.3-0.2-0.4-0.6-0.4-1    c0-1,0.4-1.9,1.2-2.8c0.2-0.2,0.4-0.4,0.6-0.5c0.2-0.2,0.5-0.4,0.7-0.5c0.2-0.1,0.5-0.3,0.8-0.4c0.3-0.1,0.5-0.1,0.8-0.1    C130.7,58,130.9,58.2,130.9,58.5z M129.8,58.9c0-0.2-0.1-0.3-0.3-0.3c-0.2,0-0.3,0.1-0.5,0.2c-0.2,0.1-0.4,0.3-0.5,0.5    c-0.2,0.2-0.3,0.4-0.5,0.7c-0.1,0.3-0.3,0.5-0.3,0.8c0.2,0,0.5-0.1,0.7-0.2c0.3-0.1,0.5-0.3,0.7-0.4s0.4-0.4,0.6-0.6    C129.8,59.4,129.8,59.2,129.8,58.9z"/>
		<path class="st1" d="M140.4,58.2c0,0,0,0.1-0.1,0.2c-0.1,0.1-0.1,0.3-0.2,0.5l-1.4,3.7c-0.2,0.4-0.3,0.9-0.5,1.3    c-0.2,0.4-0.4,0.9-0.7,1.3c-0.2,0.4-0.5,0.8-0.8,1.2c-0.3,0.4-0.6,0.7-1,1c-0.4,0.3-0.8,0.5-1.2,0.7c-0.4,0.2-0.9,0.3-1.4,0.3    c-0.1,0-0.3,0-0.4,0c-0.1,0-0.2-0.1-0.3-0.1c-0.1-0.1-0.2-0.1-0.3-0.3c-0.1-0.1-0.1-0.2-0.1-0.4c0-0.2,0.1-0.4,0.2-0.5    c0.1-0.2,0.3-0.3,0.5-0.4h0.1c0,0.4,0.1,0.7,0.3,0.9c0.2,0.2,0.5,0.3,0.9,0.3s0.7-0.1,1.1-0.2c0.3-0.2,0.6-0.4,0.8-0.7    c0.3-0.3,0.5-0.6,0.7-1c0.2-0.4,0.4-0.8,0.6-1.2c0.2-0.4,0.4-0.9,0.5-1.4c0.2-0.5,0.4-0.9,0.5-1.4l0.9-2.2l0,0    c-0.4,0.4-0.7,0.8-1,1.2c-0.3,0.4-0.6,0.7-0.9,1c-0.3,0.3-0.6,0.6-0.8,0.9c-0.3,0.3-0.5,0.5-0.8,0.7c-0.1,0-0.1,0.1-0.2,0.1    c-0.1,0-0.2,0-0.2,0c-0.1,0-0.2,0-0.2-0.1c-0.1-0.1-0.1-0.1-0.1-0.2c0-0.1,0-0.2,0.1-0.4c0.1-0.2,0.2-0.4,0.2-0.7    c0.1-0.3,0.2-0.5,0.3-0.8c0.1-0.3,0.2-0.5,0.2-0.6c0-0.1,0.1-0.2,0.2-0.4c0.1-0.2,0.2-0.4,0.2-0.6c0.1-0.2,0.1-0.4,0.2-0.6    c0.1-0.2,0.1-0.3,0.1-0.4s0-0.1-0.1-0.1c-0.1,0-0.2,0-0.3,0.1c-0.1,0.1-0.4,0.2-0.7,0.4l-0.1-0.2c0.3-0.2,0.6-0.4,0.9-0.5    c0.3-0.1,0.6-0.3,0.9-0.4c0.2-0.1,0.3-0.1,0.4-0.1c0.1,0,0.1,0.1,0.1,0.2c0,0.1,0,0.2-0.1,0.4c-0.1,0.2-0.2,0.4-0.2,0.7    c-0.1,0.3-0.2,0.5-0.3,0.7c-0.1,0.2-0.2,0.4-0.2,0.5c-0.2,0.5-0.3,0.8-0.4,1.1c-0.1,0.3-0.1,0.4-0.1,0.5c0,0.1,0,0.1,0.1,0.1    c0.1,0,0.1-0.1,0.3-0.2c0.1-0.1,0.3-0.2,0.4-0.4c0.2-0.2,0.3-0.4,0.5-0.6c0.2-0.2,0.4-0.5,0.6-0.7c0.2-0.2,0.4-0.5,0.6-0.7    c0.2-0.2,0.3-0.4,0.5-0.6l0.3-0.4c0.1-0.1,0.1-0.1,0.2-0.2c0.1-0.1,0.1-0.1,0.2-0.1c0.3-0.2,0.5-0.3,0.8-0.3    C140.4,58,140.4,58.1,140.4,58.2z"/>
		<path class="st1" d="M145.4,59.2c0,0.5-0.1,1-0.3,1.5c-0.2,0.5-0.5,0.9-0.8,1.4c-0.5,0.6-0.9,1.1-1.4,1.3    c-0.5,0.3-0.9,0.4-1.4,0.4c-0.8,0-1.2-0.4-1.2-1.3c0-0.3,0.1-0.6,0.2-1c0.1-0.3,0.3-0.7,0.4-1c0.2-0.3,0.4-0.6,0.7-0.9    c0.3-0.3,0.5-0.5,0.8-0.8c0.3-0.2,0.6-0.4,0.9-0.5c0.3-0.1,0.7-0.2,1-0.2c0.3,0,0.6,0.1,0.8,0.3C145.3,58.6,145.4,58.8,145.4,59.2    z M144.4,59.6c0-0.4-0.1-0.6-0.2-0.8c-0.1-0.1-0.3-0.2-0.6-0.2c-0.6,0-1.1,0.4-1.6,1.2c-0.5,0.8-0.7,1.6-0.7,2.5    c0,0.3,0.1,0.5,0.2,0.7c0.1,0.2,0.3,0.3,0.6,0.3c0.2,0,0.4-0.1,0.6-0.2c0.2-0.1,0.4-0.3,0.6-0.5c0.2-0.2,0.3-0.4,0.5-0.7    c0.1-0.3,0.3-0.5,0.3-0.8c0.1-0.3,0.2-0.5,0.2-0.8C144.4,60,144.4,59.8,144.4,59.6z"/>
		<path class="st1" d="M151.5,58.2c0,0,0,0.1-0.1,0.4c-0.1,0.2-0.2,0.5-0.3,0.8l-0.8,2c0,0.1-0.1,0.2-0.1,0.3c0,0.1-0.1,0.2-0.1,0.4    c0,0.1-0.1,0.2-0.1,0.3c0,0.1,0,0.2,0,0.2c0,0.1,0.1,0.2,0.2,0.2c0.1,0,0.2,0,0.3-0.1c0.2-0.1,0.4-0.3,0.7-0.5l0.1,0.3    c-0.5,0.5-1,0.8-1.3,1c-0.3,0.2-0.6,0.3-0.8,0.3c-0.2,0-0.3-0.1-0.3-0.3c0-0.1,0-0.2,0-0.3c0-0.1,0.1-0.3,0.1-0.4    c0-0.1,0.1-0.3,0.1-0.4c0.1-0.1,0.1-0.3,0.2-0.4c0.1-0.4,0.3-0.7,0.4-0.9c0.1-0.3,0.2-0.5,0.2-0.6c0.1-0.2,0.1-0.3,0.2-0.4    c0-0.1,0.1-0.2,0.1-0.3h-0.1l-0.3,0.4c-0.2,0.3-0.5,0.6-0.8,0.9c-0.3,0.3-0.6,0.7-0.8,1c-0.3,0.3-0.6,0.6-0.8,0.9    c-0.3,0.3-0.5,0.5-0.7,0.7c-0.1,0-0.1,0.1-0.2,0.1c-0.1,0-0.2,0-0.2,0c-0.1,0-0.2,0-0.2-0.1c0-0.1-0.1-0.1-0.1-0.2    c0-0.1,0-0.2,0-0.3c0-0.1,0.1-0.3,0.1-0.4c0.1-0.4,0.3-0.8,0.5-1.2c0.2-0.4,0.3-0.8,0.5-1.1c0.1-0.3,0.2-0.7,0.3-0.9    c0.1-0.3,0.1-0.4,0.1-0.5c0-0.1,0-0.1-0.1-0.1c-0.1,0-0.3,0.1-0.6,0.2l-0.4,0.2l-0.1-0.2c0.1-0.1,0.3-0.2,0.5-0.3    c0.2-0.1,0.4-0.2,0.6-0.3c0.2-0.1,0.4-0.2,0.6-0.3c0.2-0.1,0.4-0.1,0.5-0.1c0.1,0,0.1,0.1,0.1,0.2c0,0.1,0,0.2-0.1,0.5    c-0.1,0.2-0.2,0.5-0.3,0.8c-0.1,0.3-0.2,0.6-0.3,0.9c-0.1,0.3-0.2,0.5-0.3,0.7c-0.3,0.7-0.4,1-0.4,1.1c0,0.1,0,0.2,0.1,0.2    c0.1,0,0.2-0.1,0.3-0.2c0.2-0.1,0.3-0.3,0.5-0.5c0.2-0.2,0.4-0.4,0.6-0.7c0.2-0.3,0.4-0.5,0.6-0.7c0.2-0.2,0.4-0.4,0.5-0.6    c0.1-0.2,0.3-0.3,0.3-0.4l0.3-0.4c0.1-0.1,0.1-0.1,0.2-0.2c0.1-0.1,0.1-0.1,0.2-0.1c0.3-0.2,0.5-0.3,0.8-0.3    C151.4,58,151.5,58.1,151.5,58.2z"/>
		<path class="st1" d="M157,58.4c0,0.1,0,0.2,0,0.2c0,0.1-0.1,0.2-0.1,0.2c0,0.1-0.1,0.2-0.2,0.2c-0.1,0.1-0.1,0.1-0.2,0.1    c-0.1-0.1-0.2-0.2-0.3-0.2c-0.1,0-0.3-0.1-0.4-0.1c-0.2,0-0.4,0.1-0.7,0.4c-0.3,0.2-0.5,0.5-0.8,0.9c-0.3,0.3-0.5,0.7-0.7,1.1    c-0.2,0.4-0.4,0.7-0.5,1.1l-0.2,0.5c0,0.1-0.1,0.1-0.1,0.2c0,0,0,0.1-0.1,0.1c-0.1,0.2-0.3,0.3-0.5,0.5c-0.2,0.1-0.3,0.2-0.4,0.2    c-0.1,0-0.1,0-0.1-0.1c0,0,0.1-0.3,0.4-0.9l0.5-1.2c0.1-0.1,0.1-0.3,0.2-0.6c0.1-0.2,0.2-0.5,0.3-0.7c0.1-0.2,0.2-0.5,0.2-0.7    c0.1-0.2,0.1-0.4,0.1-0.5c0-0.1,0-0.1-0.1-0.1c-0.1,0-0.2,0-0.3,0.1c-0.1,0.1-0.4,0.2-0.7,0.4l-0.1-0.2c0.1-0.1,0.3-0.2,0.5-0.3    s0.4-0.2,0.6-0.3c0.2-0.1,0.4-0.2,0.6-0.3c0.2-0.1,0.4-0.1,0.5-0.1c0.1,0,0.1,0.1,0.1,0.2c0,0.1-0.1,0.3-0.2,0.6    c-0.1,0.3-0.3,0.8-0.5,1.3h0.1c0.3-0.4,0.6-0.7,0.8-1c0.3-0.3,0.5-0.5,0.7-0.7c0.2-0.2,0.4-0.3,0.6-0.4c0.2-0.1,0.3-0.1,0.4-0.1    c0.1,0,0.2,0,0.3,0.1C157,58.1,157,58.2,157,58.4z"/>
		<path class="st1" d="M164.9,58.5c0,0.1,0,0.3-0.1,0.4c-0.1,0.1-0.2,0.2-0.3,0.3c-0.1,0.1-0.2,0.2-0.4,0.2    c-0.1,0.1-0.3,0.1-0.4,0.1l0-0.1c0.1-0.1,0.2-0.3,0.2-0.5c0-0.1,0-0.2-0.1-0.2c-0.1-0.1-0.2-0.1-0.3-0.1c-0.3,0-0.6,0.1-0.9,0.3    c-0.3,0.2-0.5,0.5-0.7,0.8c-0.2,0.3-0.4,0.7-0.5,1c-0.1,0.4-0.2,0.7-0.2,1c0,0.5,0.1,0.8,0.3,1s0.4,0.3,0.8,0.3    c0.1,0,0.3,0,0.5-0.1c0.2,0,0.3-0.1,0.5-0.2c0.1-0.1,0.3-0.1,0.4-0.2c0.1-0.1,0.3-0.2,0.4-0.3l0.1,0.2c-0.2,0.1-0.3,0.3-0.5,0.4    c-0.2,0.1-0.4,0.3-0.6,0.4c-0.2,0.1-0.4,0.2-0.7,0.3c-0.2,0.1-0.5,0.1-0.7,0.1c-0.5,0-0.8-0.1-1-0.4c-0.2-0.2-0.3-0.6-0.3-1    c0-0.3,0.1-0.7,0.2-1.1c0.2-0.4,0.4-0.8,0.6-1.2c0.3-0.4,0.6-0.7,0.9-1c0.3-0.3,0.7-0.6,1.1-0.7c0.4-0.2,0.7-0.3,1-0.3    s0.5,0,0.6,0.1C164.8,58.3,164.9,58.4,164.9,58.5z"/>
		<path class="st1" d="M170.5,58.5c-0.1,0.1-0.2,0.2-0.3,0.4c-0.1,0.2-0.2,0.3-0.3,0.5c-0.1,0.1-0.1,0.3-0.2,0.5    c-0.1,0.2-0.2,0.4-0.3,0.7c-0.1,0.3-0.2,0.5-0.3,0.7c-0.1,0.2-0.1,0.3-0.2,0.4c-0.1,0.4-0.2,0.6-0.2,0.7c0,0.1,0.1,0.2,0.2,0.2    c0.2,0,0.3-0.1,0.5-0.2c0.2-0.1,0.4-0.2,0.6-0.4l0.1,0.3c-0.2,0.1-0.4,0.3-0.6,0.5c-0.2,0.2-0.4,0.3-0.6,0.4    c-0.2,0.1-0.4,0.2-0.6,0.3c-0.2,0.1-0.4,0.1-0.5,0.1c-0.2,0-0.3-0.1-0.3-0.3c0-0.2,0.1-0.6,0.3-1.1l0.3-0.9h-0.1    c-0.3,0.4-0.6,0.7-0.9,1c-0.3,0.3-0.5,0.5-0.7,0.7c-0.2,0.2-0.4,0.3-0.6,0.4c-0.2,0.1-0.4,0.1-0.6,0.1c-0.4,0-0.7-0.3-0.7-0.9    c0-0.3,0-0.6,0.1-0.8c0.1-0.3,0.2-0.6,0.3-0.8c0.1-0.3,0.3-0.5,0.5-0.8c0.2-0.2,0.4-0.5,0.6-0.7c0.2-0.2,0.5-0.4,0.8-0.6    c0.3-0.2,0.6-0.4,0.9-0.5c0.3-0.2,0.6-0.3,0.9-0.4c0.3-0.1,0.6-0.1,1-0.1c0.1,0,0.3,0,0.5,0.1C170.4,58.2,170.5,58.3,170.5,58.5    L170.5,58.5z M169.6,58.7c-0.1-0.1-0.2-0.1-0.3-0.1c-0.1,0-0.2,0-0.4,0c-0.3,0-0.5,0.1-0.8,0.2c-0.3,0.1-0.5,0.3-0.8,0.6    c-0.2,0.2-0.5,0.5-0.7,0.7c-0.2,0.3-0.4,0.5-0.5,0.7c-0.2,0.3-0.3,0.6-0.4,0.9c-0.1,0.3-0.2,0.5-0.2,0.7c0,0.2,0,0.3,0.1,0.4    c0.1,0.1,0.1,0.1,0.3,0.1c0.2,0,0.4-0.1,0.6-0.3c0.2-0.2,0.5-0.4,0.7-0.6c0.2-0.2,0.4-0.5,0.6-0.8c0.2-0.3,0.3-0.5,0.4-0.6    c0.1-0.1,0.2-0.3,0.3-0.6c0.1-0.2,0.1-0.3,0.2-0.5c0.1-0.1,0.2-0.3,0.3-0.4C169.4,58.9,169.5,58.8,169.6,58.7z"/>
		<path class="st1" d="M176,58.4c0,0.1,0,0.2,0,0.2c0,0.1-0.1,0.2-0.1,0.2c0,0.1-0.1,0.2-0.2,0.2c-0.1,0.1-0.1,0.1-0.2,0.1    c-0.1-0.1-0.2-0.2-0.3-0.2c-0.1,0-0.3-0.1-0.4-0.1c-0.2,0-0.4,0.1-0.7,0.4c-0.3,0.2-0.5,0.5-0.8,0.9c-0.3,0.3-0.5,0.7-0.7,1.1    c-0.2,0.4-0.4,0.7-0.5,1.1l-0.2,0.5c0,0.1-0.1,0.1-0.1,0.2c0,0,0,0.1-0.1,0.1c-0.1,0.2-0.3,0.3-0.5,0.5c-0.2,0.1-0.3,0.2-0.4,0.2    c-0.1,0-0.1,0-0.1-0.1c0,0,0.1-0.3,0.4-0.9l0.5-1.2c0.1-0.1,0.1-0.3,0.2-0.6c0.1-0.2,0.2-0.5,0.3-0.7c0.1-0.2,0.2-0.5,0.2-0.7    c0.1-0.2,0.1-0.4,0.1-0.5c0-0.1,0-0.1-0.1-0.1c-0.1,0-0.2,0-0.3,0.1c-0.1,0.1-0.4,0.2-0.7,0.4l-0.1-0.2c0.1-0.1,0.3-0.2,0.5-0.3    s0.4-0.2,0.6-0.3c0.2-0.1,0.4-0.2,0.6-0.3c0.2-0.1,0.4-0.1,0.5-0.1c0.1,0,0.1,0.1,0.1,0.2c0,0.1-0.1,0.3-0.2,0.6    c-0.1,0.3-0.3,0.8-0.5,1.3h0.1c0.3-0.4,0.6-0.7,0.8-1c0.3-0.3,0.5-0.5,0.7-0.7c0.2-0.2,0.4-0.3,0.6-0.4c0.2-0.1,0.3-0.1,0.4-0.1    c0.1,0,0.2,0,0.3,0.1C176,58.1,176,58.2,176,58.4z"/>
	</g>
	<path class="st0" d="M0,65.4c0,0,0.7-0.2,2.1-0.6c1.4-0.4,3.3-1,5.9-1.7c2.5-0.7,5.6-1.5,9.2-2.4c3.6-0.9,7.6-1.9,12-2.9   c1.1-0.3,2.2-0.5,3.4-0.7c1.1-0.2,2.3-0.5,3.5-0.7c1.2-0.3,2.4-0.5,3.6-0.7c1.2-0.2,2.5-0.5,3.8-0.7c1.3-0.2,2.6-0.5,3.9-0.7   c1.3-0.2,2.6-0.5,4-0.7c1.3-0.2,2.7-0.4,4.1-0.7c0.7-0.1,1.4-0.2,2.1-0.3c0.7-0.1,1.4-0.2,2.1-0.3c2.8-0.4,5.6-0.8,8.5-1.2   c1.4-0.2,2.9-0.4,4.4-0.6c1.5-0.2,2.9-0.3,4.4-0.5c1.5-0.2,3-0.3,4.4-0.5c1.5-0.1,3-0.3,4.5-0.4c3-0.3,6-0.5,9-0.7   c0.8,0,1.5-0.1,2.3-0.1l2.3-0.1c1.5-0.1,3-0.1,4.5-0.2l1.1,0l0.3,0l0.3,0l0.6,0c0.7,0,1.5,0,2.2,0c0.7,0,1.5,0,2.2,0   c0.7,0,1.5,0,2.2,0c1.5,0,3,0,4.4,0c1.5,0,2.9,0,4.4,0.1c1.5,0,2.9,0,4.3,0.1c1.4,0.1,2.9,0.1,4.3,0.2c5.7,0.3,11.1,0.7,16.3,1.2   c5.2,0.6,10,1.3,14.5,2c0.6,0.1,1.1,0.2,1.7,0.3c0.5,0.1,1.1,0.2,1.6,0.3c0.5,0.1,1.1,0.2,1.6,0.3c0.5,0.1,1,0.2,1.5,0.3   c0.5,0.1,1,0.2,1.5,0.3c0.5,0.1,1,0.2,1.4,0.3c1,0.2,1.9,0.4,2.8,0.6c3.6,0.8,6.7,1.7,9.2,2.5c2.5,0.7,4.5,1.4,5.8,1.8   c0.7,0.2,1.2,0.4,1.5,0.5c0.3,0.1,0.5,0.2,0.5,0.2s-0.7-0.2-2.1-0.5c-1.4-0.3-3.4-0.8-6-1.3c-2.6-0.5-5.7-1.1-9.3-1.8   c-0.9-0.2-1.8-0.3-2.8-0.5c-0.5-0.1-1-0.2-1.5-0.2c-0.5-0.1-1-0.1-1.5-0.2c-0.5-0.1-1-0.1-1.5-0.2c-0.5-0.1-1-0.1-1.6-0.2   c-0.5-0.1-1.1-0.1-1.6-0.2c-0.5-0.1-1.1-0.1-1.7-0.2c-0.6-0.1-1.1-0.1-1.7-0.2c-0.6-0.1-1.1-0.1-1.7-0.2c-1.2-0.1-2.3-0.3-3.5-0.4   c-1.2-0.1-2.4-0.2-3.7-0.3c-1.2-0.1-2.5-0.2-3.8-0.3c-5.1-0.4-10.5-0.6-16.1-0.7c-5.6-0.1-11.4-0.1-17.3,0c-0.7,0-1.5,0-2.2,0.1   c-0.7,0-1.5,0-2.2,0.1c-0.7,0-1.5,0-2.2,0.1l-0.6,0l-0.3,0l-0.1,0l-0.1,0l-1.1,0.1c-1.5,0.1-3,0.1-4.5,0.2L97.1,52l-2.2,0.1   c-3,0.2-6,0.4-8.9,0.6c-1.5,0.1-3,0.2-4.4,0.4c-1.5,0.1-2.9,0.3-4.4,0.4c-1.5,0.1-2.9,0.3-4.4,0.4c-1.5,0.2-2.9,0.3-4.3,0.5   c-2.9,0.3-5.7,0.7-8.5,1c-0.7,0.1-1.4,0.2-2.1,0.3c-0.7,0.1-1.4,0.2-2.1,0.3c-1.4,0.2-2.7,0.4-4.1,0.5c-2.7,0.4-5.3,0.8-7.8,1.1   c-2.5,0.4-5,0.8-7.4,1.2c-2.4,0.4-4.7,0.8-6.9,1.1c-2.2,0.4-4.3,0.7-6.4,1.1c-2,0.4-3.9,0.7-5.7,1c-3.6,0.7-6.7,1.3-9.3,1.8   C2.9,64.8,0,65.4,0,65.4z"/>
</g>
</svg>