<?xml version="1.0" encoding="UTF-8"?>
<!-- Generator: Adobe Illustrator 21.1.0, SVG Export Plug-In . SVG Version: 6.00 Build 0)  -->
<svg version="1.1" id="Слой_1" xmlns="http://www.w3.org/2000/svg" xmlns:xlink="http://www.w3.org/1999/xlink" x="0px" y="0px" viewBox="0 0 190 76" style="enable-background:new 0 0 190 76;" xml:space="preserve">
<style type="text/css">
	.st0{fill:#00457E;}
	.st1{fill:#E11837;}
</style>
<g>
	<title>logo_eshop_автозапчасти_RGB</title>
	<path class="st0" d="M24.1,51.8c-2.9,0.9-5.9,1.4-8.9,1.4C6.6,53.2,2,48,2,41.6c0-5.9,3.9-15.1,15.3-15.1c6.7,0,11.8,3.4,11.8,11.1   c-0.1,1.6-0.3,3.2-0.6,4.8H10.3c0.1,2.7,1.5,4.9,6.9,4.9c2.8,0,5.5-0.6,8-1.8L24.1,51.8z M21.7,37.5c0-2.7-1.1-5-4.3-5   c-3.1-0.1-5.8,2-6.5,5L21.7,37.5L21.7,37.5z"/>
	<path class="st0" d="M90.6,18.4h9.2l-2.7,13.1h10.8l2.7-13.1h9.2l-7.1,34.2h-9.2l3-14.7H95.7l-3,14.7h-9.2L90.6,18.4z"/>
	<path class="st0" d="M136.1,53.2c-11.1,0-15.2-6.9-15.2-13.9c0-13,6.8-21.5,20-21.5c11.1,0,15.2,6.9,15.2,14   C156.1,44.8,149.3,53.2,136.1,53.2z M140.3,24.6c-7.1,0-10,8.2-10,14c0,4.3,1.6,7.9,6.4,7.9c7.1,0,10-8.2,10-13.9   C146.7,28.2,145.1,24.6,140.3,24.6L140.3,24.6z"/>
	<path class="st0" d="M163.8,18.4h9.1c7.5,0,15.1,0.8,15.1,9.4c0,8.5-7,12.8-15.2,12.8h-4.7l-2.6,12h-9.1L163.8,18.4z M169.5,34.2   h2.4c3.6,0,6.9-1.3,6.9-5.3c0-3.3-2.3-4-4.7-4h-2.7L169.5,34.2z"/>
	<path class="st1" d="M68.5,34.4c7.7,2.2,11.1,6.4,11,10.2c-0.7,15.3-27.6,16.6-38.6,16.1c-3-0.1-12.4-0.5-12.2-5   c0.1-1.6,2.9-5.6,4.2-6.7c1-0.7,5.6-2,6.7-1.9c0.4,0,0.6,0.1,0.6,0.6c-0.1,0.8-0.8,1.1-1.4,1.4c-0.5,0.3-0.9,0.7-1.4,1.1v0.2   c27.4,2.2,35.3-5.4,35.3-6.6c0.2-3.9-21-7.9-24.6-8.7c-3.8-0.8-7.8-2.2-7.6-6.8c0.1-2.5,1.6-8.1,2.9-10.1C46,14.3,60.2,7.6,77,8.3   c3.3,0.2,6.5,0.7,9.6,1.5c1.8,0.5,2,1.1,1.9,2.6c-0.2,5.7-2.2,6.9-6.8,8.5c-3.4,1.1-4,1.4-7.1,3.5c-0.6,0.4-1.3,0.6-2,0.7   c-0.6,0.1-1.1-0.4-1.2-1c0-0.1,0-0.2,0-0.3c0-0.2,1.6-2.5,5.8-5.1l-0.1-0.2c-19.8-0.2-28.7,6.6-28.8,8.4   C48.3,28,47.3,28.5,68.5,34.4z"/>
	<path class="st0" d="M88.8,62.5c0.3-1.8-0.2-3.5-2.9-3.5c-1.1,0-2.2,0.2-3.1,0.7l0.2,1.4c0.7-0.4,1.5-0.6,2.4-0.6   c1.5,0,1.6,0.9,1.5,1.5v0.1c-3.1,0-5.1,1-5.5,3.2c-0.2,1.1,0.5,2.2,1.6,2.5c0.2,0,0.4,0.1,0.6,0c1,0,2-0.4,2.7-1.1h0v0.9h1.9   c0-0.7,0.1-1.3,0.2-2L88.8,62.5L88.8,62.5L88.8,62.5z M86.4,64.6c0,0.2-0.1,0.3-0.1,0.5c-0.3,0.7-1,1.1-1.8,1.2   c-0.5,0.1-1-0.3-1-0.8c0-0.1,0-0.3,0-0.4c0.2-1.3,1.7-1.6,3.2-1.6L86.4,64.6L86.4,64.6L86.4,64.6z M90.1,67.5   c0.5,0.1,1.6,0.1,2.6,0.1c1.7,0,4.8-0.2,5.1-2.5c0.2-1.2-0.6-1.9-1.8-2V63c1-0.1,1.8-0.9,2-1.9c0.3-1.9-2.2-2.1-3.6-2.1   c-1,0-2.1,0.1-3.1,0.2L90.1,67.5L90.1,67.5L90.1,67.5z M93.3,60.5c0.3,0,0.7-0.1,1-0.1c1.3,0,1.8,0.4,1.7,1   c-0.1,0.8-1.1,1.1-2.2,1.1H93L93.3,60.5L93.3,60.5z M92.8,63.8h0.9c1.3,0,2.2,0.3,2.1,1.3c-0.2,0.9-1.4,1.2-2.3,1.2   c-0.3,0-0.7,0-1-0.1L92.8,63.8L92.8,63.8L92.8,63.8z M99.7,59.1l-0.3,1.6h2.5l-1.1,6.7h2.1l1.1-6.7h2.5l0.3-1.6H99.7L99.7,59.1z    M111.9,59c-2.6,0-4.8,1.9-5,4.4c-0.4,2.7,1.1,4.3,3.5,4.3c2.6,0,4.7-1.9,5-4.5C115.8,60.7,114.4,59,111.9,59L111.9,59L111.9,59z    M111.6,60.5c1.4,0,1.8,1.5,1.6,2.8c-0.3,1.7-1.3,2.9-2.5,2.9c-1.2,0-1.9-1.2-1.6-2.8C109.3,61.9,110.1,60.5,111.6,60.5L111.6,60.5   L111.6,60.5z M117.5,63.9h1c1.2,0,2.1,0.3,1.9,1.2c-0.1,0.7-0.8,1.2-2,1.2c-0.8,0-1.5-0.2-2.2-0.6l-0.7,1.3   c0.9,0.5,1.9,0.8,2.9,0.8c1.7,0,4-0.6,4.3-2.5c0.2-1.2-0.8-1.9-1.9-2v0c0.9-0.2,2-0.8,2.1-1.9c0.3-1.7-1.4-2.2-2.8-2.2   c-1.1,0-2.3,0.3-3.3,0.8l0.2,1.3c0.7-0.4,1.4-0.6,2.2-0.6c0.9,0,1.4,0.4,1.4,1c-0.1,0.6-0.8,1.1-2,1.1h-1L117.5,63.9L117.5,63.9   L117.5,63.9z M131.5,62.5c0.3-1.8-0.2-3.5-2.9-3.5c-1.1,0-2.2,0.2-3.1,0.7l0.2,1.4c0.7-0.4,1.5-0.6,2.4-0.6c1.5,0,1.6,0.9,1.5,1.5   v0.1c-3.1,0-5.1,1-5.5,3.2c-0.2,1.1,0.5,2.2,1.6,2.5c0.2,0,0.4,0.1,0.6,0c1,0,2-0.4,2.7-1.1h0v0.9h1.9c0-0.7,0.1-1.3,0.2-2   L131.5,62.5L131.5,62.5L131.5,62.5z M129.1,64.6c0,0.2-0.1,0.3-0.1,0.5c-0.3,0.7-1,1.1-1.8,1.2c-0.5,0.1-1-0.3-1-0.8   c0-0.1,0-0.3,0-0.4c0.2-1.3,1.7-1.6,3.2-1.6L129.1,64.6L129.1,64.6L129.1,64.6z M134.1,59.1l-1.3,8.4h2.1l1.1-6.7h3.1l-1.1,6.7h2.1   l1.3-8.4H134.1L134.1,59.1z M143.4,59.1l-0.5,2.9c-0.3,1.9,0.6,2.9,2.3,2.9c0.8,0,1.6-0.2,2.3-0.6h0l-0.5,3.3h2.1l1.3-8.5h-2.1   l-0.6,3.8c-0.4,0.3-1,0.4-1.5,0.4c-1.1,0-1.4-0.6-1.2-1.6l0.4-2.7L143.4,59.1L143.4,59.1z M158.8,62.5c0.3-1.8-0.2-3.5-2.9-3.5   c-1.1,0-2.2,0.2-3.1,0.7l0.2,1.4c0.7-0.4,1.5-0.6,2.4-0.6c1.5,0,1.6,0.9,1.5,1.5v0.1c-3.1,0-5.1,1-5.5,3.2   c-0.2,1.1,0.5,2.2,1.6,2.5c0.2,0,0.4,0.1,0.6,0c1,0,2-0.4,2.7-1.1h0.1v0.9h1.9c0-0.7,0.1-1.3,0.2-2L158.8,62.5L158.8,62.5   L158.8,62.5z M156.3,64.6c0,0.2-0.1,0.3-0.1,0.5c-0.3,0.7-1,1.1-1.8,1.2c-0.5,0.1-1-0.3-1-0.8c0-0.1,0-0.3,0-0.4   c0.2-1.3,1.7-1.6,3.2-1.6L156.3,64.6L156.3,64.6L156.3,64.6z M166.2,65.7c-0.5,0.2-1.1,0.3-1.7,0.3c-1.4,0-2.4-1-2.1-2.7   c0.2-1.5,1.4-2.7,3-2.7c0.5,0,1.1,0.1,1.6,0.3l0.6-1.6c-0.6-0.3-1.3-0.4-2-0.4c-2.7-0.1-5,1.8-5.4,4.5c-0.4,2.6,1,4.3,3.6,4.3   c0.8,0,1.7-0.1,2.4-0.4L166.2,65.7L166.2,65.7L166.2,65.7z M168.5,59.1l-0.3,1.6h2.5l-1,6.7h2.1l1.1-6.7h2.5l0.3-1.6H168.5z    M176.9,59.1l-1.3,8.4h2.5c0.9-1.4,1.9-2.9,2.8-4.1c0.5-0.8,0.9-1.4,1.5-2.4h0.1c-0.3,1.6-0.5,2.2-0.7,3.5l-0.5,3h2l1.3-8.4H182   l-2.7,3.9c-0.6,0.9-0.9,1.5-1.5,2.5h-0.1c0.3-1.2,0.4-2.1,0.7-3.4l0.5-3L176.9,59.1L176.9,59.1z"/>
</g>
</svg>