<svg id="Layer_1" data-name="Layer 1" xmlns="http://www.w3.org/2000/svg" viewBox="0 0 190 76"><defs><style>.cls-1,.cls-3{fill:#e3292b;}.cls-1{fill-rule:evenodd;}.cls-2{fill:#e0181d;}</style></defs><title>00_all_in_one_logos_partners</title><path class="cls-1" d="M19.8,41.24l7.71-13.72a1.78,1.78,0,0,1,1.68-1.12c1.16,0,1.54.85,2.3,1.87l7.94,10.52a0.94,0.94,0,0,1-.68.11l-7-9.16,5.53,10.94s-0.1.17-.25-0.09S29.27,29,29.18,28.84s-0.57-.35-0.9.15-8.2,12-8.2,12S19.7,41.49,19.8,41.24Z"/><path class="cls-1" d="M39.93,44.21c-1.61-.85-3.75.66-7.65,4.5-0.48.48-1,1-1.43,1.46,0.18-.68.46-1.67,0.65-2.3h0c0.41-.6.58-1,0.39-1.1C31.17,46.41,29,48.59,28.37,50c-0.06.12-.1,0.23-0.15,0.34h0c-0.8.85-1.67,1.75-2.35,2.42-1.68,1.63-4.46,3.86-5,2.68-0.31-.73,2-4.57,4.68-7.45a1.41,1.41,0,0,0,1.79,1.12c4.33-1.17,6.09-7.09,3.68-6.6a11.52,11.52,0,0,0-3,1.18h0c1-3.31,3.84-9.6,3.48-10.21s-0.81-.91-3,1-6.38,8-7.29,9.4-1.49,2.19-1.65,2a3.88,3.88,0,0,1,1.19-3.44c0.47-.42-0.2-0.26-0.2-0.26a4.49,4.49,0,0,0-2.82,2.12,5.49,5.49,0,0,0-.32,4.26c0.3,0.86.77,1.42,2.08,0.34S22.22,44.7,23.36,43a37.23,37.23,0,0,1,4-5.25c0.87-.72,1.39-0.85.83,0.27a67.21,67.21,0,0,0-2.52,7.21h0a22.57,22.57,0,0,0-5.1,5.12c-3.25,4.56-1.79,6.73-1,7S22.35,58,25.19,55c0.81-.83,1.76-1.83,2.68-2.84a7.72,7.72,0,0,1-.33,1.56l0,0.11h0l0,0.07-0.14.23h0c-1.69,2-3,3.78-3.48,4.52a2.07,2.07,0,0,0,.23,3c0.91,0.92,2.81-3.41,3-4.13h0A51.86,51.86,0,0,1,31.49,52c0.85-1,6-6.54,6.85-6.08,1.43,0.78-3.91,8-4.4,8-0.65.07-.06-1.46,0.59-2.47s2.57-2.93,1.3-2-5.54,4.32-3.76,6,5.23-2.4,6.26-4S41.53,45.06,39.93,44.21Zm-9.31.53c1.27-.07-2.66,2.6-2.91,2.43a1.72,1.72,0,0,1-.11-1h0A5.84,5.84,0,0,1,30.62,44.74Z"/><path class="cls-1" d="M15.72,47.46S8.78,58.13,8.51,58.58s-0.64,1.49.95,1.52,10.53,0,10.89,0,0.59-.06.59-0.33a0.83,0.83,0,0,0-.82-0.46c-0.34,0-7.46-.36-8.54-0.48s-1.28-.24-0.67-1.32,5.36-9.5,5.62-9.93S16.47,46.6,15.72,47.46Z"/><path class="cls-1" d="M50.89,53.69c-0.9-1.13-9.33-11.4-9.33-11.4s-0.85-.78-0.49-0.29c0,0,8.65,11.92,9,12.6s0.64,0.85.11,1.51a4.26,4.26,0,0,1-2.32,1.79c-1.51-2.5-7-10.93-7-10.93-0.18-.28-0.53,0-0.3.37s4.24,8.55,4.87,9.68,0.33,1.48-.29,1.53-14.95.87-15.69,0.89-0.84.67-.41,0.67,13.27,0,17.28,0h1.55a2.69,2.69,0,0,0,1.7-.83,19.77,19.77,0,0,0,2-3.41C51.64,55.52,51.87,54.92,50.89,53.69Z"/><path class="cls-2" d="M125.18,51.21c0.67-.16,1.12-0.29,1.33-0.36a4.09,4.09,0,0,0,.45-0.19l0.57-.22a5.41,5.41,0,0,1,.83-0.18c0.36,0,.58-0.08.67-0.11a8.14,8.14,0,0,0,1-.27l0.76-.26a0.72,0.72,0,0,0,.45-0.53,1.24,1.24,0,0,0-.37-0.94,2.64,2.64,0,0,0-1.7-.36h-1.46a9.26,9.26,0,0,0-2.47.38l-1,.5a10.83,10.83,0,0,1-2.68.5,11.19,11.19,0,0,0-4,1.12c-1.15.59-1.73,1.19-1.73,1.8a2.1,2.1,0,0,0,.45,1.17,1.36,1.36,0,0,0,1.17.65,4.26,4.26,0,0,0,1.82-.66,12.19,12.19,0,0,1,2.4-1C123.32,51.71,124.49,51.37,125.18,51.21Z"/><path class="cls-2" d="M161.6,34.68a5.92,5.92,0,0,0,1.69-.18,4.86,4.86,0,0,1,1.23-.22h0.73a11.75,11.75,0,0,0,3.85-1.06A17.13,17.13,0,0,0,173,30.93c1.1-.87,1.65-1.6,1.65-2.22a0.82,0.82,0,0,0-.93-0.93,14.75,14.75,0,0,0-2.8,1.14c-1.63.76-3.09,1.39-4.35,1.89a9.28,9.28,0,0,1-3.24.74l-0.52,0-0.67,0c-1.59,0-2.39.57-2.39,1.7C159.72,34.19,160.34,34.68,161.6,34.68Z"/><path class="cls-2" d="M177.79,44.71a2.48,2.48,0,0,0-.51-0.58,4.58,4.58,0,0,1-.46-0.42,3.55,3.55,0,0,1-.45-2V40.38c-0.11-1.85-1-2.77-2.61-2.77l-0.85.09a5.24,5.24,0,0,0-2.59,1.11,11.35,11.35,0,0,0-1.84,2,3,3,0,0,1-1.06,1.12,0.77,0.77,0,0,1-.06-0.36,2.77,2.77,0,0,0-.06-0.54,1.8,1.8,0,0,0-.21-0.58c-0.1-.21-0.16-0.34-0.19-0.4a2.82,2.82,0,0,1-.12-0.85V38.67a2.17,2.17,0,0,0-.5-1.43A5.24,5.24,0,0,0,164.11,36a1.36,1.36,0,0,0-.53-0.08,2.55,2.55,0,0,0-.94.2,4.16,4.16,0,0,0-.8.41c-0.21.14-.52,0.37-0.93,0.68l-0.74.56-0.75.54c-0.26.19-.5,0.38-0.71,0.57a7.2,7.2,0,0,0-.71.74,10.36,10.36,0,0,0-.76,1.08c-0.13.22-.25,0.46-0.4,0.71l-0.3.53a0.24,0.24,0,0,1-.15.14,4.19,4.19,0,0,1-.16-0.85c0-.22-0.1-0.39-0.13-0.56s0-.29-0.08-0.42a3.49,3.49,0,0,1-.11-1,6.45,6.45,0,0,0-.13-1.35,1.83,1.83,0,0,0-.59-1,2,2,0,0,0-1.39-.42,1.3,1.3,0,0,0-1.42,1.51,5.81,5.81,0,0,0,.52,2.19,7.53,7.53,0,0,1,.23.76c0,0.19.06,0.38,0.07,0.57s0,0.45.07,0.78q0.28,1.9.46,2.62a2.7,2.7,0,0,0,.72,1.29,2.34,2.34,0,0,0,1.74.58,3.17,3.17,0,0,0,2.31-1.58,23.41,23.41,0,0,0,1.4-2.14,10.82,10.82,0,0,1,.85-1.14,5.93,5.93,0,0,0,.47-0.58c0.11-.18.19-0.28,0.22-0.31a5.66,5.66,0,0,1,.48-0.56,2.33,2.33,0,0,0,.34-0.44,1.23,1.23,0,0,0,.27-0.29,2.38,2.38,0,0,1,.35-0.37,0.33,0.33,0,0,1,.26-0.16,0.19,0.19,0,0,1,.16.09c0,0.06.07,0.11,0.13,0.2a3.71,3.71,0,0,1,.42.91C163.92,40.8,164,41,164,41s0.18,0.47.3,1.2,0.1,1.37.21,1.91a2.83,2.83,0,0,0,.81,1.44,2.64,2.64,0,0,0,1.91.62,1.87,1.87,0,0,0,1.22-.48,13.55,13.55,0,0,0,1.48-1.58c0.6-.73,1-1.21,1.24-1.44l0.74-.87A2.88,2.88,0,0,1,172.8,41c0.05,0,.08.05,0.08,0.17a2.55,2.55,0,0,1,0,.35c0,0.17,0,.3,0,0.38a2.88,2.88,0,0,0,0,.63c0,0.22,0,.4,0,0.52s0,0.24,0,.52,0,0.47,0,.62a2.19,2.19,0,0,0,.1.59,0.85,0.85,0,0,0,.15.45,2.1,2.1,0,0,0,.39.57c0.09,0.08.27,0.31,0.56,0.57A3.81,3.81,0,0,0,175,47a3,3,0,0,0,1.27.23,1.76,1.76,0,0,0,1-.71,2,2,0,0,0,.66-1.11A1.44,1.44,0,0,0,177.79,44.71Z"/><path class="cls-2" d="M150,46l0.76-.49s0.23-.16.6-0.39a7.89,7.89,0,0,0,.95-0.67,3.23,3.23,0,0,0,.66-0.77,1.86,1.86,0,0,0,.26-1,1.1,1.1,0,0,0-.85-0.89,1.39,1.39,0,0,0-.53-0.07,1.7,1.7,0,0,0-.56.07,5.29,5.29,0,0,0-1.57.91,8.55,8.55,0,0,1-1.79,1.1,6.29,6.29,0,0,1-2.48.39,7.77,7.77,0,0,1-2.5-.56,6,6,0,0,1-2.2-1.23,11.09,11.09,0,0,0,1.92-2.74,7.23,7.23,0,0,0,.56-3q0-4-3.44-5.11a2.94,2.94,0,0,0-1.81.72,5.58,5.58,0,0,0-1.53,2,6.48,6.48,0,0,0-.6,2.77,10.48,10.48,0,0,0,.9,4.63,2.3,2.3,0,0,1-1.17.37,0.48,0.48,0,0,0-.19,0s0-.06-0.12-0.06a1.46,1.46,0,0,0-.85.25,7.82,7.82,0,0,0-1.24,1.06,4,4,0,0,0-.5.6,0.54,0.54,0,0,1-.37.24,0.94,0.94,0,0,1-.85-0.62,6.55,6.55,0,0,1-.49-1.58l-0.33-1.74c-0.14-.7-0.29-1.57-0.43-2.6a16.29,16.29,0,0,0-.41-2.22,2,2,0,0,0-.69-1,2.33,2.33,0,0,0-1.48-.38,2,2,0,0,0-1.22.31,3.43,3.43,0,0,0-.88,1.27q-0.46,1-1.39,3.33c-0.09.27-.19,0.54-0.3,0.83s-0.21.54-.31,0.75-0.17.34-.34,0.66-0.32.57-.43,0.77a9.81,9.81,0,0,0-.36.92,0.94,0.94,0,0,1-.25.5,1.87,1.87,0,0,1-.13-0.76c0-.51-0.1-1-0.15-1.31a21.81,21.81,0,0,1-.3-3.78c0-.15,0-0.4.07-0.74s0-.6,0-0.76v-1.3a3.91,3.91,0,0,0-.29-1.73,1.82,1.82,0,0,0-2.38-.18,2.77,2.77,0,0,0-.49,1,9.81,9.81,0,0,1-.64,1.58c-0.24.44-.53,0.9-0.84,1.39a8.14,8.14,0,0,0-.67,1.11c0,0.06-.28.63-0.73,1.68s-0.85,1.94-1.21,2.63a2,2,0,0,1-.75,1,0.71,0.71,0,0,1,0-.37,15.12,15.12,0,0,1,.12-1.71,17.27,17.27,0,0,0,.12-2v-1.7c0-.15,0-0.4.08-0.74s0-.6,0-0.76v-1.3a3.76,3.76,0,0,0-.29-1.76,1.37,1.37,0,0,0-1.29-.51,1.27,1.27,0,0,0-1.21.5,2.85,2.85,0,0,0-.33,1.33v1.09c0,0.12,0,.31,0,0.55s0,0.42,0,.54,0,0.3,0,.53a5.08,5.08,0,0,0,0,.52c0,0.22,0,.55,0,1s0,0.76,0,1a6.52,6.52,0,0,1-.06.76c0,0.34-.06.6-0.06,0.78a7.88,7.88,0,0,0,.1,1,7.65,7.65,0,0,1,.09,1v1.76a3.68,3.68,0,0,0,.83,1.45,2.28,2.28,0,0,0,1.81.78,2.65,2.65,0,0,0,2.16-1.2,16.7,16.7,0,0,0,1.83-3.31,0.59,0.59,0,0,1,.07-0.17c0-.07.06-0.14,0.08-0.2l0.16-.29c0.08-.17.16-0.3,0.21-0.41s0.09-.2.12-0.27a8.08,8.08,0,0,0,.57-1.52c0,0.13,0,.33,0,0.59s0,0.55,0,.81a9.62,9.62,0,0,0,.37,2.61,6,6,0,0,0,1.08,2.19,2.11,2.11,0,0,0,1.68.89q2.49,0,4.3-4.63c0-.14.12-0.31,0.19-0.52l0.26-.67,0.24-.48a2.39,2.39,0,0,0,.13-0.73,0.77,0.77,0,0,1,.07-0.44,0.3,0.3,0,0,1,.21.24V40c0,0.05.05,0.32,0.16,0.81a6.8,6.8,0,0,1,.06.87,6.78,6.78,0,0,0,.05.83,7.45,7.45,0,0,0,.7,2.07,6.24,6.24,0,0,0,1.61,2.06,3.69,3.69,0,0,0,2.43.86,3.48,3.48,0,0,0,1.63-.69,25.22,25.22,0,0,0,2.19-1.46h0.1a7.45,7.45,0,0,0,2.1-.69,5.29,5.29,0,0,0,2.42,2,7.55,7.55,0,0,0,3,.75,20.15,20.15,0,0,0,2.92-.18,9.08,9.08,0,0,0,1.89-.45A7.28,7.28,0,0,0,150,46Zm-10.31-7.2a6.56,6.56,0,0,0-.5,1.33,12.4,12.4,0,0,1-.45-2V36.88a9.78,9.78,0,0,1,.37-1.06,1.05,1.05,0,0,1,.32-0.53,1.42,1.42,0,0,1,.35,1.1,14.33,14.33,0,0,1,.14,1.78A1.18,1.18,0,0,1,139.64,38.79Z"/><path class="cls-2" d="M89.49,54.23c0.27-1.1.51-2.3,0.71-3.58s0.37-2.56.48-3.82,0.18-2.38.18-3.36c0-.36,0-0.88-0.1-1.56s-0.09-1.2-.09-1.53,0-.57.05-1,0.06-.78.06-1,0-.23,0-0.48,0-.43,0-0.57q0-2.08-1-2.07a1.91,1.91,0,0,0-1.31.47,21.53,21.53,0,0,0-1.6,1.62,8.2,8.2,0,0,1-1.72,1.55,4.73,4.73,0,0,1-2.27.91c-0.11,0-.16,0-0.16-0.1s0.35-.93,1-2.56c0.24-.5.55-1.09,0.94-1.77s0.64-1.15.77-1.42a1.88,1.88,0,0,0,.2-0.83,1.12,1.12,0,0,0-.45-0.77,1.31,1.31,0,0,0-.85-0.4,3.61,3.61,0,0,0-1.4.34c-0.52.23-1.67,0.76-3.44,1.61a10.54,10.54,0,0,1-1.26.46,8.8,8.8,0,0,0-1.56.66,0.92,0.92,0,0,0-.55.79A1.72,1.72,0,0,0,76.79,37a1.75,1.75,0,0,0,1.32.58,1.38,1.38,0,0,0,.61-0.22l0.45-.23,0.4-.11a1.72,1.72,0,0,0,.37-0.13l0.53-.28a1,1,0,0,1,.4-0.13H81a5.54,5.54,0,0,1-.54,1.39c-0.36.76-.63,1.37-0.81,1.82a3.07,3.07,0,0,0-.27,1.17,1.88,1.88,0,0,0,.87,1.42,3.31,3.31,0,0,0,2.13.7,4.93,4.93,0,0,0,1.18-.1c0.27-.07.95-0.36,1.24-0.46a2.48,2.48,0,0,0,.32-0.14h0s0.17-.08.47-0.17a8,8,0,0,0,.83-0.32A1.45,1.45,0,0,0,87,41.38,1.15,1.15,0,0,1,87.67,41h0c0.12,0,.15.14,0.13,0.29l-0.09.41a2.33,2.33,0,0,0,0,.44,3.09,3.09,0,0,0,0,.78c0,0.37.07,0.68,0.07,0.93,0,0.75-.07,2-0.23,3.65s-0.25,3-.3,4a11.14,11.14,0,0,1-.89,4,8.33,8.33,0,0,1-1.86,2.81,3.12,3.12,0,0,1-2,1c-1.09,0-2.07-.87-3.08-2.55a13.36,13.36,0,0,0-.77-1.26A3.11,3.11,0,0,1,78.34,55c-0.09-.16-0.15-0.19-0.24-0.34A0.93,0.93,0,0,1,78,54.4c0-.13-0.09-0.41-0.14-0.71a6.85,6.85,0,0,1-.07-0.77,2.12,2.12,0,0,0-.91-1.81,3,3,0,0,0-1.69-.66,1,1,0,0,0-.89.7A3.8,3.8,0,0,0,74,52.75a1.82,1.82,0,0,0,.12.84c0.06,0.09.12,0.3,0.25,0.55a8.6,8.6,0,0,1,.38.79,5.5,5.5,0,0,0,.41.93c0.27,0.44.61,0.88,0.81,1.24s0.37,0.7.64,1.13A9.41,9.41,0,0,0,78,60.41a8.06,8.06,0,0,0,2.35,1.53,6,6,0,0,0,2.4.56,4.56,4.56,0,0,0,3.37-1.36,13.25,13.25,0,0,0,2.55-4.25A17,17,0,0,0,89.49,54.23Z"/><path class="cls-2" d="M107.38,41.66a4.75,4.75,0,0,0,.38-1.7,3.58,3.58,0,0,0-.47-1.54,4.33,4.33,0,0,0-1.45-1.57,4.18,4.18,0,0,0-2.39-.67,16.21,16.21,0,0,0-2,.41,5.4,5.4,0,0,0-1.13.46,4,4,0,0,0-.75.56l-0.67.64c-0.38.38-.82,0.84-1.33,1.34a2.92,2.92,0,0,1-.9.77V40.12a2.21,2.21,0,0,0,0-.28,1.6,1.6,0,0,1,0-.28c0-.28,0-0.58.05-0.86a7.27,7.27,0,0,1,.07-0.8c0-.49.07-0.84,0.07-1.05a2.31,2.31,0,0,0-.07-0.66,1.41,1.41,0,0,0-.58-0.59,1.56,1.56,0,0,0-.8-0.22,1.84,1.84,0,0,0-1.42,1,4,4,0,0,0-.69,2.39c0,0.3,0,.74.07,1.3s0.08,1,.08,1.26-0.05,1.11-.14,2.17-0.16,1.93-.18,2.66-0.06,1.2-.11,1.75,0,0.48,0,.67-0.06.32-.12,0.8-0.43,1.7-.49,2c0,0.07-.1.66-0.1,0.7l0,0.41c0,0.56-.29,1.48-0.39,2.07a16.07,16.07,0,0,0-.29,1.75,5.29,5.29,0,0,0,0,1.06c0,0.38.05,0.58,0.09,0.87,0,0.08,0,.31,0,0.45s0,0.22,0,.3a0.33,0.33,0,0,0,0,.09,1.23,1.23,0,0,0,.88.89,3.49,3.49,0,0,0,1.53.48,1.66,1.66,0,0,0,1.06-.92,6.15,6.15,0,0,0,.6-3.2V53.23c0.17-3.83.53-6.32,1.09-7.46,0.81,0.37,1.66.72,2.54,1a6.69,6.69,0,0,0,1.78.47,8.72,8.72,0,0,0,2-.37,3.65,3.65,0,0,0,1.18-.63,3,3,0,0,0,.68-0.83c0.19-.31.34-0.59,0.46-0.82l0.86-1.32A10.12,10.12,0,0,0,107.38,41.66Zm-3.48-.44a3.39,3.39,0,0,1-1.06,1.65,3,3,0,0,1-1.56,1,4.39,4.39,0,0,1-1.37-.31A4.67,4.67,0,0,1,98.73,43,13.56,13.56,0,0,1,100,41.74a7.56,7.56,0,0,0,1.07-1.1,2.63,2.63,0,0,1,.83-0.77,3.94,3.94,0,0,1,1.36-.15,0.61,0.61,0,0,1,.65.73v0.78Z"/><path class="cls-2" d="M71.91,38.58a15.06,15.06,0,0,0,2.27-3.94,10.18,10.18,0,0,0,.71-3.53,7.71,7.71,0,0,0-1.32-4.23,10.11,10.11,0,0,0-4-3.42,14.91,14.91,0,0,0-6.31-1.53c0.11-1,.17-1.53.17-1.66a1.06,1.06,0,0,0-.45-1A4,4,0,0,0,61.26,19a1.69,1.69,0,0,0-1.34.39,2.27,2.27,0,0,0-.31,1.36V22a18.35,18.35,0,0,0-4.38,1,16.12,16.12,0,0,0-3.49,1.73,9.27,9.27,0,0,0-2.26,2,3.21,3.21,0,0,0-.8,1.87c0,0.49.51,0.74,1.53,0.74a2.94,2.94,0,0,0,1.32-.28,10.17,10.17,0,0,0,1.44-1A17.82,17.82,0,0,1,54.57,27a9.86,9.86,0,0,1,5.27-1.61c-0.3,2.42-.45,3.75-0.45,4s0,0.67.06,1.22,0.06,0.95.06,1.22c0,1.17-.11,2.94-0.33,5.27s-0.42,4.05-.61,5.16a10.3,10.3,0,0,1-5.49-1.72q-2.3-1.59-2.3-5.18A4.19,4.19,0,0,1,51,33.41a5.62,5.62,0,0,1,1-.9,1.77,1.77,0,0,0,.7-1.44c0-.81-0.64-1.22-1.94-1.22a2.68,2.68,0,0,0-1.7.68,5,5,0,0,0-1.36,1.81,5.73,5.73,0,0,0-.52,2.39,9.48,9.48,0,0,0,3.27,7.74,13.82,13.82,0,0,0,7.81,3.1,5.76,5.76,0,0,0,.48,2.3A1.49,1.49,0,0,0,60.06,49a2.54,2.54,0,0,0,1.77-.57,2,2,0,0,0,.62-1.54c0-.08-0.07-0.43-0.2-1.06,0-.21-0.07-0.48-0.13-0.8A21.4,21.4,0,0,0,67.9,42.3,18,18,0,0,0,71.91,38.58ZM62.4,41.43c0.19-2.54.34-4.67,0.42-6.41S63,31.8,63,30.58s0.06-2.11.09-2.63,0.11-1.38.25-2.58a10.18,10.18,0,0,1,5.14,1.07,5.61,5.61,0,0,1,2.37,2.35A5.67,5.67,0,0,1,71.41,31a10.58,10.58,0,0,1-1.75,5.55Q67.9,39.4,62.4,41.43Z"/><path class="cls-3" d="M179.76,36.29a0.63,0.63,0,0,0-.21-0.14,0.77,0.77,0,0,0,.53-0.23,0.67,0.67,0,0,0,.08-0.87,0.62,0.62,0,0,0-.33-0.25,2.16,2.16,0,0,0-.65-0.07H178.3V37.3h0.41V36.21H179a0.52,0.52,0,0,1,.34.09,2,2,0,0,1,.43.59l0.22,0.4h0.51l-0.31-.5A2.81,2.81,0,0,0,179.76,36.29Zm-0.54-.43h-0.5V35.08h0.47a1.16,1.16,0,0,1,.42,0,0.38,0.38,0,0,1,.18.13,0.34,0.34,0,0,1,.06.2,0.34,0.34,0,0,1-.13.28A0.79,0.79,0,0,1,179.22,35.85Z"/><path class="cls-3" d="M180.52,33.89a2.45,2.45,0,0,0-1.18-.31,2.5,2.5,0,0,0-1.18.31,2.23,2.23,0,0,0-.89.88A2.4,2.4,0,0,0,177,36a2.36,2.36,0,0,0,.32,1.18,2.21,2.21,0,0,0,.89.89,2.41,2.41,0,0,0,1.19.31,2.45,2.45,0,0,0,1.19-.31,2.19,2.19,0,0,0,.88-0.89,2.4,2.4,0,0,0,.31-1.18,2.42,2.42,0,0,0-.32-1.2A2.21,2.21,0,0,0,180.52,33.89ZM181.08,37a1.89,1.89,0,0,1-.74.74,2,2,0,0,1-2,0,1.86,1.86,0,0,1-.74-0.74,2,2,0,0,1-.27-1,2,2,0,0,1,.27-1,1.8,1.8,0,0,1,.74-0.74,2,2,0,0,1,2,0,1.81,1.81,0,0,1,.75.74A2,2,0,0,1,181.08,37Z"/><path class="cls-3" d="M88.37,24.48c0-.48-0.06-1.14-0.06-1.68h0c-0.09.54-.23,1.17-0.32,1.56l-0.44,1.82H86.84l-0.42-1.79c-0.1-.4-0.24-1-0.32-1.59h0c0,0.55-.06,1.19-0.08,1.7l-0.09,1.76H85.07l0.36-5.08h1.05L86.89,23c0.14,0.64.26,1.21,0.36,1.78h0c0.08-.56.19-1.14,0.32-1.78L88,21.18h1l0.31,5.08H88.46Z"/><path class="cls-3" d="M91.06,25.1l-0.22,1.16h-1L91,21.18h1.19l1,5.08H92.19L92,25.1H91.06Zm0.82-.77-0.16-1.06c-0.06-.31-0.12-0.82-0.17-1.16h0c-0.06.34-.13,0.86-0.18,1.16l-0.19,1.06h0.72Z"/><path class="cls-3" d="M96.23,21.18V22H94.87v4.22h-1V21.18h2.34Z"/><path class="cls-3" d="M97.41,25.1l-0.23,1.16h-1l1.1-5.08h1.18l1,5.08h-1L98.32,25.1H97.41Zm0.82-.77-0.16-1.06C98,23,97.94,22.44,97.9,22.11h0c-0.06.34-.13,0.86-0.18,1.16l-0.18,1.06h0.72Z"/><path class="cls-3" d="M100,21.41a2.13,2.13,0,0,1,1.12-.29,1.25,1.25,0,0,1,1.42,1.25,1.19,1.19,0,0,1-.86,1.15h0a1.22,1.22,0,0,1,1,1.28A1.58,1.58,0,0,1,101,26.32a2.21,2.21,0,0,1-1-.23l0.15-.8a1.65,1.65,0,0,0,.79.2,0.71,0.71,0,0,0,.81-0.71,0.84,0.84,0,0,0-1-.79h-0.15V23.23h0.1a0.78,0.78,0,0,0,.9-0.68,0.57,0.57,0,0,0-.64-0.6,1.65,1.65,0,0,0-.71.21Z"/><path class="cls-3" d="M104.36,21.18V22.3c0,0.93-.06,1.81-0.1,2.33h0c0.14-.43.4-1.1,0.55-1.49l0.74-2h0.9v5.08h-0.87V25.11c0-1,0-1.77.07-2.28h0c-0.13.45-.34,1.06-0.51,1.49l-0.75,1.94h-0.91V21.18h0.88Z"/><path class="cls-3" d="M108.53,21.18v2h1v-2h1v5.08h-1V24.13h-1v2.13h-1V21.18h1Z"/><path class="cls-3" d="M115.43,26.18a2,2,0,0,1-.76.12c-1.31,0-1.92-1.06-1.92-2.51,0-1.91,1.07-2.66,2.05-2.66a1.39,1.39,0,0,1,.68.13l-0.17.83a1.08,1.08,0,0,0-.46-0.09c-0.57,0-1.07.48-1.07,1.74s0.46,1.69,1.07,1.69a1.59,1.59,0,0,0,.47-0.08Z"/><path class="cls-3" d="M117.15,21.18v5.08h-1V21.18h1Z"/><path class="cls-3" d="M121.32,24.48c0-.48-0.06-1.14-0.06-1.68h0c-0.09.54-.23,1.17-0.33,1.56l-0.44,1.82h-0.69l-0.42-1.79c-0.1-.4-0.23-1-0.32-1.59h0c0,0.55-.06,1.19-0.08,1.7l-0.09,1.76H118l0.36-5.08h1L119.84,23c0.14,0.64.27,1.21,0.35,1.78h0c0.08-.56.2-1.14,0.32-1.78l0.41-1.84h1l0.31,5.08h-0.88Z"/><path class="cls-3" d="M125.34,24h-1.15V25.4h1.3v0.86H123.2V21.18h2.21V22h-1.22v1.17h1.15V24Z"/><path class="cls-3" d="M127.23,21.18V22.3c0,0.93-.06,1.81-0.1,2.33h0c0.14-.43.41-1.1,0.56-1.49l0.73-2h0.9v5.08h-0.87V25.11c0-1,0-1.77.07-2.28h0c-0.12.45-.35,1.06-0.51,1.49l-0.75,1.94h-0.91V21.18h0.87Zm0.29-1.06c0,0.27.1,0.43,0.33,0.43a0.36,0.36,0,0,0,.34-0.43h0.63a1,1,0,0,1-1.92,0h0.63Z"/><path class="cls-3" d="M131.4,21.18v2h1v-2h1v5.08h-1V24.13h-1v2.13h-1V21.18h1Z"/><path class="cls-3" d="M137.48,23.63c0,1.91-.68,2.69-1.64,2.69-1.15,0-1.6-1.22-1.6-2.61s0.55-2.58,1.68-2.58S137.48,22.47,137.48,23.63Zm-2.22.09c0,1.15.22,1.74,0.61,1.74s0.59-.76.59-1.79-0.14-1.7-.59-1.7S135.26,22.63,135.26,23.72Z"/><path class="cls-3" d="M137.65,20.39a0.47,0.47,0,0,1,.45-0.47,0.46,0.46,0,0,1,.44.47A0.45,0.45,0,1,1,137.65,20.39Zm1.63,0.79v5.08h-1V21.18h1ZM139,20.39a0.45,0.45,0,1,1,.9,0,0.47,0.47,0,0,1-.46.48A0.46,0.46,0,0,1,139,20.39Z"/><path class="cls-3" d="M144.72,21.18v5.08h-1V22h-1v4.22h-1V21.18h3Z"/><path class="cls-3" d="M148.78,23.63c0,1.91-.68,2.69-1.64,2.69-1.15,0-1.62-1.22-1.62-2.61s0.56-2.58,1.69-2.58S148.78,22.47,148.78,23.63Zm-2.22.09c0,1.15.22,1.74,0.62,1.74s0.58-.76.58-1.79-0.14-1.7-.59-1.7S146.56,22.63,146.56,23.72Z"/><path class="cls-3" d="M150.56,21.18v2.21h0.08l0.82-2.21h1.09l-1.16,2.34a1.54,1.54,0,0,1,.83,1.28c0.11,0.5.2,1,.34,1.45h-1a10,10,0,0,1-.27-1.17c-0.13-.6-0.27-1-0.67-1h-0.08v2.16h-1V21.18h1Z"/><path class="cls-3" d="M154,21.18l0.46,1.95c0.07,0.29.13,0.59,0.17,0.81h0c0-.24.07-0.55,0.12-0.84l0.34-1.93h1l-0.76,2.74a7.92,7.92,0,0,1-.62,1.77,1.25,1.25,0,0,1-1,.67,1.6,1.6,0,0,1-.41,0l0-.81a1.07,1.07,0,0,0,.24,0,0.66,0.66,0,0,0,.54-0.51,0.38,0.38,0,0,0,0-.3l-1.18-3.53H154Z"/><path class="cls-3" d="M159.61,21.18v5.08h-1V22h-1v4.22h-1V21.18h3Z"/><path class="cls-3" d="M161.63,21.18v2.21h0.08l0.82-2.21h1.09l-1.16,2.34a1.55,1.55,0,0,1,.84,1.28c0.1,0.5.19,1,.33,1.45h-1a8.76,8.76,0,0,1-.28-1.17c-0.13-.6-0.27-1-0.67-1h-0.08v2.16h-1V21.18h1Z"/><path class="cls-3" d="M165.15,21.18V22.3c0,0.93-.06,1.81-0.1,2.33h0c0.14-.43.4-1.1,0.55-1.49l0.74-2h0.9v5.08H166.4V25.11c0-1,0-1.77.06-2.28h0c-0.12.45-.34,1.06-0.51,1.49l-0.75,1.94h-0.91V21.18h0.87Z"/></svg>