<?xml version="1.0" encoding="UTF-8"?>
<!-- Generator: Adobe Illustrator 21.1.0, SVG Export Plug-In . SVG Version: 6.00 Build 0)  -->
<svg version="1.1" id="Layer_1" xmlns="http://www.w3.org/2000/svg" xmlns:xlink="http://www.w3.org/1999/xlink" x="0px" y="0px" viewBox="0 0 190 76" style="enable-background:new 0 0 190 76;" xml:space="preserve">
<style type="text/css">
	.st0{clip-path:url(#SVGID_2_);fill:#0051A0;}
	.st1{fill:#FFD600;}
</style>
<g>
	<g>
		<defs>
			<rect id="SVGID_1_" x="3.1" y="4.1" width="185.3" height="69.2"/>
		</defs>
		<clipPath id="SVGID_2_">
			<use xlink:href="#SVGID_1_" style="overflow:visible;"/>
		</clipPath>
		<path class="st0" d="M188.3,46.9v6.3c0,0,0,0.2-0.1,0.3c-0.1,0.1-0.2,0.1-0.3,0.1c-3.9,0-5.5-0.8-5.5-5.1V24.2    c0-0.3,0.1-0.4,0.4-0.4h5.1c0.3,0,0.4,0.1,0.4,0.4v20.9V46.9L188.3,46.9z M125.8,40.8c0.2,0,0.3-0.1,0.3-0.3    c0-0.6-0.1-1.1-0.2-1.5c-0.5-1.5-1.6-2.3-3.3-2.3c-1.6,0-3,0.8-3.6,2.3c-0.1,0.5-0.2,1-0.2,1.5c0,0.2,0.1,0.3,0.3,0.3H125.8    L125.8,40.8z M113.6,47.9c-0.5-1.5-0.7-3.1-0.7-4.9c0-1.9,0.2-3.6,0.6-4.9c1.2-3.7,4.5-5.8,8.8-5.8c4.5,0,7.7,2.2,8.9,5.8    c0.5,1.4,0.6,3.6,0.6,6.3c0,0.3-0.2,0.4-0.5,0.4h-12.2c-0.2,0-0.3,0.1-0.3,0.3c0,0.4,0,0.8,0.1,1.1c0.5,1.8,2,2.7,4.2,2.7    c1.7,0,3-0.5,3.8-1.1c0.8-0.5,0.7-0.7,1.2-0.4l3.2,2.3c0.3,0.2,0.3,0.4,0,0.6c-2.2,2.3-5.1,3.4-8.8,3.4    C118,53.7,114.8,51.6,113.6,47.9 M165,40.8c0.2,0,0.2-0.1,0.3-0.3c0-0.6-0.1-1.1-0.2-1.5c-0.5-1.5-1.6-2.3-3.3-2.3    c-1.6,0-3,0.8-3.5,2.3c-0.1,0.5-0.2,1-0.2,1.5c0,0.2,0.1,0.3,0.2,0.3H165L165,40.8z M152.8,47.9c-0.5-1.5-0.7-3.1-0.7-4.9    c0-1.9,0.2-3.6,0.6-4.9c1.2-3.7,4.5-5.8,8.8-5.8c4.5,0,7.7,2.2,8.9,5.8c0.5,1.4,0.5,3.6,0.5,6.3c0,0.3-0.2,0.4-0.5,0.4h-12.2    c-0.2,0-0.3,0.1-0.3,0.3c0,0.4,0,0.8,0.1,1.1c0.5,1.8,2,2.7,4.3,2.7c1.6,0,3-0.5,3.8-1.1c0.8-0.5,0.7-0.7,1.2-0.4l3.2,2.3    c0.3,0.2,0.3,0.4,0,0.6c-2.2,2.3-5.1,3.4-8.8,3.4C157.3,53.7,154,51.6,152.8,47.9 M134.6,47.9c-0.4-1.2-0.6-2.9-0.6-4.9    c0-2,0.2-3.7,0.6-4.9c1.2-3.8,4.5-5.8,8.9-5.8c3.4,0,6.2,1.5,7.8,3.9c0.1,0.2,0.1,0.4-0.1,0.6l-3.7,2.4c-0.3,0.2-0.5,0.1-0.6-0.1    c-0.9-1.2-2-1.8-3.3-1.8c-1.7,0-2.7,0.7-3.2,2.2c-0.3,0.7-0.4,1.9-0.4,3.5c0,1.6,0.1,2.8,0.4,3.5c0.5,1.5,1.5,2.2,3.2,2.2    c1.3,0,2.4-0.6,3.3-1.8c0.2-0.2,0.4-0.3,0.6-0.1l3.7,2.4c0.2,0.2,0.2,0.4,0.1,0.6c-1.5,2.3-4.4,3.9-7.8,3.9    C139,53.7,135.8,51.7,134.6,47.9 M91.3,53.7c-0.3,0-0.4-0.1-0.4-0.4V33.1c0-0.3,0.1-0.4,0.4-0.4h5.1c0.3,0,0.4,0.1,0.4,0.4v20.2    c0,0.3-0.1,0.4-0.4,0.4H91.3L91.3,53.7z M91.3,28.5c-0.3,0-0.4-0.1-0.4-0.4v-3.8c0-0.3,0.1-0.4,0.4-0.4h5.1c0.3,0,0.4,0.1,0.4,0.4    v3.8c0,0.3-0.1,0.4-0.4,0.4H91.3L91.3,28.5z M102.4,53.7c-0.3,0-0.4-0.1-0.4-0.4V37.3c0-0.2-0.1-0.3-0.3-0.3h-1.3    c-0.3,0-0.4-0.1-0.4-0.4v-3.5c0-0.3,0.1-0.4,0.4-0.4h1.3c0.2,0,0.3-0.1,0.3-0.3v-1.5c0-5,2.3-7.1,7.2-7.1h3.2    c0.3,0,0.4,0.1,0.4,0.4v3.8c0,0.3-0.1,0.4-0.4,0.4h-2.2c-1.9,0-2.3,0.5-2.3,2.2v1.7c0,0.2,0.1,0.3,0.2,0.3h2.7    c0.3,0,0.4,0.1,0.4,0.4v3.5c0,0.3-0.1,0.4-0.4,0.4h-2.7c-0.2,0-0.2,0.1-0.2,0.3v15.9c0,0.3-0.1,0.4-0.4,0.4H102.4L102.4,53.7z     M86.9,47.1v6.3c0,0,0,0.2-0.1,0.3c-0.1,0.1-0.2,0.1-0.3,0.1c-3.9,0-5.5-0.8-5.5-5.1V24.4c0-0.3,0.1-0.4,0.4-0.4h5.1    c0.3,0,0.4,0.1,0.4,0.4v20.9V47.1L86.9,47.1z M179.8,46.9v6.3c0,0,0,0.2-0.1,0.3c-0.1,0.1-0.2,0.1-0.3,0.1c-3.9,0-5.5-0.8-5.5-5.1    V24.2c0-0.3,0.1-0.4,0.4-0.4h5.1c0.3,0,0.4,0.1,0.4,0.4v20.9V46.9L179.8,46.9z M9,38.7c0-15.8,12.8-28.6,28.6-28.6    c15.8,0,28.7,12.8,28.7,28.6c0,15.8-12.8,28.6-28.7,28.6c-3.1,0-6.1-0.5-8.9-1.4c2-11.8,9.5-21.5,19.4-25.6    c1.2,1.4,2.9,2.2,4.8,2.2c3.5,0,6.4-2.9,6.4-6.4c0-3.5-2.8-6.4-6.4-6.4c-3.5,0-6.4,2.8-6.4,6.4C34,40,23.8,48.8,18.6,60.1    c-1.6-1.5-3.1-3.1-4.4-4.9c0.3-11,5.7-20.6,13.9-26.3c1.2,1.3,2.9,2.1,4.8,2.1c3.5,0,6.4-2.9,6.4-6.4c0-3.5-2.9-6.4-6.4-6.4    c-3.5,0-6.4,2.9-6.4,6.4c0,0.2,0,0.4,0,0.5C18.9,27.9,12.7,33.1,9,39.8C9,39.5,9,39.1,9,38.7 M3.1,38.7    c0,19.1,15.5,34.6,34.6,34.6c19.1,0,34.6-15.5,34.6-34.6c0-19.1-15.5-34.6-34.6-34.6C18.6,4.1,3.1,19.6,3.1,38.7"/>
	</g>
	<path class="st1" d="M9,38.7c0-15.8,12.8-28.6,28.6-28.6c15.8,0,28.7,12.8,28.7,28.6c0,15.8-12.8,28.6-28.7,28.6   c-3.1,0-6.1-0.5-8.9-1.4c2-11.8,9.5-21.5,19.4-25.6c1.2,1.4,2.9,2.2,4.8,2.2c3.5,0,6.4-2.9,6.4-6.4c0-3.5-2.8-6.4-6.4-6.4   c-3.5,0-6.4,2.8-6.4,6.4C34,40,23.8,48.8,18.6,60.1c-1.6-1.5-3.1-3.1-4.4-4.9c0.3-11,5.7-20.6,13.9-26.3c1.2,1.3,2.9,2.1,4.8,2.1   c3.5,0,6.4-2.9,6.4-6.4c0-3.5-2.8-6.4-6.4-6.4c-3.5,0-6.4,2.9-6.4,6.4c0,0.2,0,0.4,0,0.5C18.9,27.9,12.7,33.1,9,39.8   C9,39.5,9,39.1,9,38.7"/>
</g>
</svg>