<?xml version="1.0" encoding="UTF-8"?>
<!-- Generator: Adobe Illustrator 21.1.0, SVG Export Plug-In . SVG Version: 6.00 Build 0)  -->
<svg version="1.1" id="Layer_1" xmlns="http://www.w3.org/2000/svg" xmlns:xlink="http://www.w3.org/1999/xlink" x="0px" y="0px" viewBox="0 0 190 76" style="enable-background:new 0 0 190 76;" xml:space="preserve">
<style type="text/css">
	.st0{fill:#1D1D1B;stroke:#1D1D1B;stroke-miterlimit:10;}
</style>
<g>
	<title>MEGOGO</title>
	<polygon class="st0" points="15.8,38.6 6,24.6 0.5,24.6 0.5,51 5.6,51 5.6,32.1 15.8,46.7 26.1,32.1 26.1,51 31.2,51 31.2,24.6    25.6,24.6  "/>
	<polygon class="st0" points="44.9,39.8 57.1,39.8 57.1,35.6 44.9,35.6 44.9,28.7 59.8,28.7 59.8,24.6 39.9,24.6 39.9,51 60,51    60,46.9 44.9,46.9  "/>
	<path class="st0" d="M110.5,23.7c-7.7,0.1-14,6.4-13.9,14.1c0.1,7.7,6.4,14,14.1,13.9c7.7-0.1,13.9-6.3,13.9-14   C124.6,30,118.3,23.7,110.5,23.7z M110.5,47c-5.1,0-9.2-4.2-9.2-9.3c0-5.1,4.2-9.2,9.3-9.2c5.1,0,9.2,4.2,9.2,9.3   C119.8,42.9,115.6,47,110.5,47L110.5,47z"/>
	<path class="st0" d="M175.9,23.7c-7.7,0.1-14,6.4-13.9,14.1c0.1,7.7,6.4,14,14.1,13.9c7.7-0.1,13.9-6.3,13.9-14   C190,30,183.7,23.7,175.9,23.7z M175.9,47c-5.1,0-9.2-4.2-9.2-9.3c0-5.1,4.2-9.2,9.3-9.2c5.1,0,9.2,4.2,9.2,9.3   C185.2,42.9,181,47,175.9,47L175.9,47z"/>
	<path class="st0" d="M79.8,40.3h5.7v5.2h0c-1.9,1.2-4.1,1.8-6.3,1.7c-5.2,0-9.5-4.2-9.5-9.5s4.2-9.5,9.5-9.5c2.7,0,5.3,1,7.3,2.7   l3-3.4c-2.8-2.6-6.5-3.9-10.3-3.9c-8,0-14.6,6.3-14.6,14s6.5,14,14.6,14c4,0,8-1.4,11-4.1l0,0l0.2-0.1V36.2H79.8V40.3z"/>
	<path class="st0" d="M145.4,40.3h5.7v5.2l0,0c-1.9,1.2-4.1,1.8-6.3,1.7c-5.2,0-9.5-4.2-9.5-9.5s4.2-9.5,9.5-9.5   c2.7,0,5.3,1,7.3,2.7l3-3.4c-2.8-2.6-6.5-3.9-10.3-3.9c-8,0-14.6,6.3-14.6,14s6.5,14,14.6,14c4,0,8-1.4,11-4.1l0,0l0.2-0.1V36.2   h-10.5V40.3z"/>
</g>
</svg>