<?xml version="1.0" encoding="UTF-8"?>
<!-- Generator: Adobe Illustrator 21.1.0, SVG Export Plug-In . SVG Version: 6.00 Build 0)  -->
<svg version="1.1" id="Layer_1" xmlns="http://www.w3.org/2000/svg" xmlns:xlink="http://www.w3.org/1999/xlink" x="0px" y="0px" viewBox="0 0 190 76" style="enable-background:new 0 0 190 76;" xml:space="preserve">
<style type="text/css">
	.st0{fill:#20282C;}
</style>
<path class="st0" d="M161.1,16.2c1.2,0.1,2.1,0.2,2.6,0.8l0.3,0.4l1.8-0.5l-1.2-6.6c-0.2-1.2-1.2-2-2.4-2l0,0L26.4,12.3H26l-1.7,3.9  l136.5-0.1L161.1,16.2L161.1,16.2z"/>
<path class="st0" d="M28.9,59.8c-1.2-0.1-2.1-0.2-2.6-0.8L26,58.6l-1.8,0.5l1.2,6.6c0.2,1.2,1.2,2,2.4,2l0,0L162,63.8h2l1.7-3.9  L29.3,59.8L28.9,59.8L28.9,59.8z"/>
<path class="st0" d="M67.2,50.2l1.7-0.2l0.6,0l3.7,0.1c2.4,0,4.1,0,5.1,0l2.1,0.1l1-0.9c0.6-0.5,1.1-1.1,1.6-1.7l1.3-1.5l1.1-1.2  L76.7,45h-2.3H74c0,0-0.2-3.9-0.2-4.7c1.1,0.1,2.3-0.1,3.4-0.5c1.7-0.8,3.1-2.1,4.1-3.7l0.7-1.1h-5.5h-3v-3.3l1.8-0.1  c1.3,0,2.6-0.1,3.8-0.4h0.1l0.1-0.1c1.3-1.1,2.5-2.2,3.4-3.2l1.9-1.9l-4.3,0.3c-1.9,0.1-4.6,0.2-8.1,0.1h-1.6  c-0.9,0-1.7-0.1-2.3-0.1h-0.3l-0.2,0.3c-0.4,0.4-0.7,0.7-1.1,1.1c-1.2,1-1.6,1.3-1.7,1.4l-3.2,2.2h5.6v4.6c-1.1,1.2-2.4,2.3-3.8,3.3  l-2,1.3h5.8v6.5l0,1.1L67.2,50.2L67.2,50.2z"/>
<path class="st0" d="M92.3,48.8l2.7-1.6l-0.3-16.8l-0.1-2.3l-0.1-0.6c-0.1-1-1-1.7-1.9-1.6c-0.4,0-0.8,0.1-1.2,0.3l-1.1,0.6  l-3.8,2.6v1.9c0,0,1.6-1.3,1.6,0.7c0.2,1.3,0.3,19,0.3,19L92.3,48.8L92.3,48.8z"/>
<path class="st0" d="M163,48.8l2.7-1.6l-0.3-16.8l-0.1-2.3l-0.1-0.6c-0.1-1-0.9-1.7-1.9-1.6c-0.4,0-0.8,0.1-1.2,0.3l-1.1,0.6  l-3.8,2.6l0.1,1.9c0,0,1.5-1.3,1.5,0.8c0.2,1.3,0.3,19,0.3,19L163,48.8z"/>
<path class="st0" d="M138,50.2l1.7-0.2l0.6,0l3.7,0.1c2.4,0,4.1,0,5.1,0l2.1,0.1l1-0.9c0.6-0.5,1.1-1.1,1.6-1.7l1.2-1.5l1.1-1.2  l-8.7,0.2h-2.3h-0.4c0,0-0.2-3.9-0.2-4.7c1.1,0.1,2.3-0.1,3.4-0.5c1.7-0.8,3.1-2,4.1-3.6l0.7-1.1h-5.4h-3v-3.3l1.8-0.1  c1.3,0,2.6-0.1,3.8-0.4h0.1l0.1-0.1c1.3-1.1,2.5-2.2,3.5-3.2l1.9-1.9l-4.3,0.3c-1.9,0.1-4.6,0.2-8.1,0.1h-1.6  c-0.9,0-1.7-0.1-2.3-0.1h-0.3l-0.2,0.3c-0.4,0.4-0.7,0.7-1.1,1.1c-1.2,1-1.6,1.3-1.7,1.4l-3.2,2.2h5.6V36c-1.1,1.2-2.4,2.3-3.8,3.3  l-2,1.3h5.8V47l-0.1,1L138,50.2L138,50.2z"/>
<path class="st0" d="M124.8,30.6c-0.3,3.1-1.1,6.1-2.3,8.9l-0.2-0.5l-0.3-0.8c-1.2-3-2.5-6-3.8-8.9l-1.3-2.8l-5.5,3.2l-0.1,1.4  l-0.2,1.1c-0.2,1.1-0.4,2.1-0.8,3.2c-0.5,1.6-1,3-1.5,4.3l-0.2-0.5c-0.3-0.8-0.5-1.6-1-2.6l-1.6-3.8l-1.1-2.5  c-2-4.5-2.7-4.8-3.3-4.8c-0.3,0-0.6,0.1-0.8,0.3l-4.9,3.3l0.1,2c0.4-0.3,0.9-0.3,1.3,0c0.1,0.1,0.2,0.3,0.2,0.4l0.5,1.1l1.1,2.4  c1.8,4,3,6.9,3.6,8.6l0.8,2.1l1,3.2L105,51l5.7-3l-0.1-0.4c0-0.2,0-0.4,0-0.5c0-0.5,0.3-1.7,1.5-4.6l0.9-2l0.9-2.6l1,2  c1,2.2,1.9,4.5,2.7,6.9l1.7,4.3l5.5-3.5l-0.1-0.4c0-0.1,0-0.2,0-0.4c0-0.2,0-0.5,0.1-0.7l0.7-2.2l0.1-0.2c0.2-0.5,0.4-1.3,0.8-2.2  c0.9-2.3,2-4.9,3.3-7.6s2.4-5.2,3.4-7.4l0.9-1.8l-9.1,4.6L124.8,30.6L124.8,30.6z"/>
<path class="st0" d="M33.4,45.4c0.3-3.1,1.1-6.1,2.3-8.9L36,37l0.3,0.8c1.2,3,2.5,6,3.8,8.9l1.3,2.8l5.5-3.2l0-1.4l0.1-1.1  c0.2-1.1,0.4-2.1,0.8-3.2c0.5-1.6,1-3,1.5-4.3l0.2,0.5c0.3,0.8,0.5,1.6,1,2.6l1.6,3.8l1.1,2.5c2,4.5,2.7,4.8,3.3,4.8  c0.3,0,0.6-0.1,0.8-0.3l4.9-3.3l-0.1-2c-0.4,0.3-0.9,0.3-1.3,0c-0.1-0.1-0.2-0.3-0.2-0.4l-0.5-1.1l-1.1-2.4c-1.8-4-3-6.9-3.6-8.6  l-0.8-2.1l-1-3.2l-0.6-2l-5.7,3l0,0.4c0,0.2,0,0.4,0,0.5c0,0.5-0.3,1.7-1.5,4.6l-0.9,2l-0.9,2.6l-1-2c-1-2.2-1.9-4.5-2.7-6.9  L38.9,25l-5.5,3.5l0.1,0.4c0,0.1,0,0.2,0,0.4c0,0.2,0,0.5-0.1,0.7l-0.7,2.2l-0.1,0.2c-0.2,0.5-0.5,1.3-0.8,2.2  c-0.9,2.3-2,4.9-3.3,7.6s-2.4,5.2-3.4,7.4l-0.9,1.8l9.1-4.7L33.4,45.4L33.4,45.4z"/>
</svg>