<?xml version="1.0" encoding="utf-8"?>
<!-- Generator: Adobe Illustrator 18.0.0, SVG Export Plug-In . SVG Version: 6.00 Build 0)  -->
<!DOCTYPE svg PUBLIC "-//W3C//DTD SVG 1.1//EN" "http://www.w3.org/Graphics/SVG/1.1/DTD/svg11.dtd">
<svg version="1.1" id="Шар_1" xmlns="http://www.w3.org/2000/svg" xmlns:xlink="http://www.w3.org/1999/xlink" x="0px" y="0px"
	 viewBox="0 0 199.1 43" enable-background="new 0 0 199.1 43" xml:space="preserve">
<g>
	<defs>
		<rect id="SVGID_1_" y="0" width="199.1" height="43"/>
	</defs>
	<clipPath id="SVGID_2_">
		<use xlink:href="#SVGID_1_"  overflow="visible"/>
	</clipPath>
	<path clip-path="url(#SVGID_2_)" fill-rule="evenodd" clip-rule="evenodd" fill="#88BC43" d="M11.6,0h175.8
		c9.1,0,13.7,6.5,10.7,16.4l-3.9,12.8c-2.2,7.2-10.2,13.8-19.5,13.8H24.3C15,43,7,36.5,4.8,29.2L0.9,16.4C-2.1,6.5,2.6,0,11.6,0"/>
	<path clip-path="url(#SVGID_2_)" fill="#FFFFFF" d="M112.8,21.2l10.3-8.4h10.2l-10.2,7.9l10.8,9.6h-6c-3.2,0-5.9-1-8-2.8
		L112.8,21.2z M112.2,30.2h-9.6V12.8h9.6V30.2z M79.1,21.2l10.3-8.4h10.2l-10.2,7.9l11.3,9.6h-6.5c-3.2,0-5.9-1-8-2.8L79.1,21.2z
		 M78.5,30.2h-9.6V12.8h9.6V30.2z M50.6,16.6c-2,0-3.5,0.5-4.5,1.6c-0.8,0.9-1.2,2-1.2,3.2c0,1.4,0.4,2.5,1.1,3.3
		c1,1.1,2.5,1.7,4.6,1.7c1.8,0,3.2-0.5,4.3-1.4c1-0.9,1.6-2.1,1.6-3.6c0-1.3-0.5-2.4-1.4-3.3C54.1,17.1,52.6,16.6,50.6,16.6
		 M50.7,12.3c5,0,8.9,0.9,11.7,2.8c2.5,1.7,3.8,3.8,3.8,6.3c0,2.9-1.5,5.1-4.5,6.8c-2.8,1.6-6.5,2.4-11,2.4c-4.7,0-8.4-0.8-11.2-2.4
		c-2.8-1.7-4.3-4-4.3-6.9c0-2.7,1.4-4.9,4.3-6.6C42.4,13.1,46.1,12.3,50.7,12.3 M148.2,16.6c-2,0-3.5,0.5-4.5,1.6
		c-0.8,0.9-1.2,2-1.2,3.2c0,1.4,0.4,2.5,1.1,3.3c1,1.1,2.5,1.7,4.6,1.7c1.8,0,3.2-0.5,4.3-1.4c1-0.9,1.6-2.1,1.6-3.6
		c0-1.3-0.4-2.4-1.4-3.3C151.7,17.1,150.2,16.6,148.2,16.6 M148.3,12.3c5,0,8.9,0.9,11.7,2.8c2.5,1.7,3.8,3.8,3.8,6.3
		c0,2.9-1.5,5.1-4.5,6.8c-2.8,1.6-6.5,2.4-11,2.4c-4.7,0-8.4-0.8-11.2-2.4c-2.8-1.7-4.3-4-4.3-6.9c0-2.7,1.4-4.9,4.3-6.6
		C140,13.1,143.7,12.3,148.3,12.3"/>
</g>
</svg>
