<svg id="Layer_1" data-name="Layer 1" xmlns="http://www.w3.org/2000/svg" viewBox="0 0 190 76"><defs><style>.cls-1{fill:#402312;}.cls-1,.cls-2{fill-rule:evenodd;}.cls-2{fill:#f20012;}.cls-3{fill:#088c03;}</style></defs><title>00_all_in_one_logos_partners_pasta-mia</title><path class="cls-1" d="M40.29,10.63c-.67-.06-1.36-.09-2-.1H38A39.15,39.15,0,0,0,25.65,13c-2.65.92-9,3.36-7.21,7.3.44,1,3,.14,2.63-.71-2.55-5.45,13.22-6.95,16.16-7.19a10.28,10.28,0,0,1,3.36.38c3.4.87,4,4.41,2.65,6.94-2.6,4.94-9.16,4.56-14.17,3.6a42.89,42.89,0,0,1,3.33-5.73c.47-.75-.77-2.65-2-2.39-.68.15-.83,1.4-1.06,1.89-.68,1.44-1.8,3.72-2.81,5.73-1,.13-2.6,1.9-1.2,2.22l.1,0c-1.94,4-2.11,3.43-3.81,8.2-.67,1.87-.42,3,1.25,3.79.62.31,1.89-.95,1.93-3.48.05-1.88,1-3.12,3.17-8,5.79,1,12.12.8,16.6-3.49S47,11.24,40.29,10.63Z"/><path class="cls-1" d="M91.07,32.47c-1.28,1.23-1.46,1-1.75-.71s.67-3.61,1.45-5.19c.62-1.26-1.82-.88-2.31-.36-.2.21-.39.43-.58.65-2.29-1.53-8.14,1.39-10.41,5-1.63,1.81-4.84,4.8-6.47,2.74-1.94-2.45-.11-6.12,1.61-9.3A41.44,41.44,0,0,1,76,20,21.27,21.27,0,0,0,84,17.18c1.53-.93-.69-1.75-1.72-1.12a18.69,18.69,0,0,1-5.76,2.19c.76-1.65,1.51-3.34,2.4-5,.61-1.15-2-.89-2.47-.09-1,1.8-1.74,3.69-2.56,5.56-2.17.31-4.38.5-6.55.81-1.17.17-8.67,1.07-6.77,3.67.64.87,2.93,0,2.51-1A6.17,6.17,0,0,1,64,22a25.29,25.29,0,0,1,2.64-.52c1.43-.23,2.87-.39,4.3-.61l2.13-.32c-.15.31-1.28,2.1-1.45,2.4-2.19,3.86-3.32,4-6.17,6.14a41.75,41.75,0,0,1-4.27,2.86,4.35,4.35,0,0,0,.1-1.57,18.1,18.1,0,0,0-.8-3c-.05-.16-.22-.55-.36-1a6.47,6.47,0,0,0,.37-1.29,1,1,0,0,0-.49-.83,2,2,0,0,0-2.54.83,2.21,2.21,0,0,0,0,1.75,6,6,0,0,1-.49.84,12.54,12.54,0,0,1-2.5,2.58c-1,.84-2,1.63-3.06,2.38C50.89,33,49.67,34,49.32,34c-2.26-.28.07-6.08.87-7.09S48.4,26,47.9,26.6l-.56.65c-3.79-3.35-14.87,3-11.95,7.71,1.76,2.85,5.64.74,7.59-.72a28.12,28.12,0,0,0,3.11-2.77c-.23,2.07.22,4,2.25,4.09,2.55.1,5-2.35,6.9-3.76a23.63,23.63,0,0,0,3-2.55,5.06,5.06,0,0,1-.14,4,11,11,0,0,1-1.38.33c-1.22.21-4.14.28-4.63,1.79-.55,1.7.6,2.4,2.16,2.5,2,.13,3.57-1,4.86-2.43a12,12,0,0,0,1.11-1.39,32.89,32.89,0,0,0,8-5,12.84,12.84,0,0,0-.56,2.51c-.22,1.94.41,4.54,2.5,5.19s4.5-.3,6.42-1.76c0,.11,0,.22,0,.33.78,3.76,5.42,1.21,7-.21A21.75,21.75,0,0,0,86.55,32a3.6,3.6,0,0,0,1.09,2.75C89.32,36.3,92,34.18,93.22,33S91.77,31.8,91.07,32.47ZM44.4,30.54C43,32,40.92,34.5,38.83,34.8c-.89.13-1.25-1.55-1.21-2.13a4.51,4.51,0,0,1,1.74-2.74c1.38-1.26,5.19-3.34,6.24-.69C45.21,29.68,44.81,30.11,44.4,30.54Zm10.15,5c0-.53,1.42-.54,2.2-.56C55.86,35.84,54.6,36.71,54.56,35.57Zm31.6-6.44c-.42.59-.85,1.18-1.29,1.75s-4.18,5.28-5.25,4.82c-2.41-1.05,1.06-4.73,2-5.58S86.83,26.55,86.16,29.13Z"/><path class="cls-1" d="M138,33.24a5.91,5.91,0,0,1,.94-4.32c.44-.76,3.69-5.78,4.43-7s2.19-3,2-4.47A1.85,1.85,0,0,0,142.61,16a26,26,0,0,0-6.76,4.94c-2.78,2.53-4.38,5-4.68,4.64s1.32-2.22,2.28-5c.47-1.36.27-4.11-2.4-3.28-3.06,1-6.46,5.09-8.69,7.2-1.48,1.41-2.79,2.81-4.23,4.27s-1.34,1.22-.29-.51,1.49-2.74,2.59-4.54c1-1.63,1.95-2.64,2.29-4.28.55-2.63-2.87-2.36-7.92-.42a14.69,14.69,0,0,0-2.1,1,27.12,27.12,0,0,0-7.26,5.33A7.62,7.62,0,0,0,106,27c2.62-3,6.53-5.52,12.07-7.65.78-.22,2,.05,1.26,1.35-.55,1-1.68,2.52-2.16,3.37-1.86,3.33-2.34,4.43-3.71,7a40.45,40.45,0,0,0-2.31,4.43c-.27.66-.63,2.05.23,2.5.45.23.46.33,1.46-.24,1.3-.74,2.53-2.71,3.75-4.38A30.56,30.56,0,0,1,120,29.19,70.44,70.44,0,0,1,126.42,23a35.67,35.67,0,0,1,3.93-3.12c.59-.33,1.21-.07,1,.46-.28.78-2,3.74-2.92,5.68-.82,1.67-1.1,2-2.52,4.56-.86,1.54,1.28,2.06,2,1.26,4.16-4.34,2.75-3.42,8.17-8.76,1.89-1.71,5.57-4.94,6.12-4.68s-.41,1.49-1.19,2.75c-.59,1-2,2.95-2.82,4.31a30,30,0,0,0-2.5,4.77c-.63,1.64-.74,3.89.38,5.23s1.64,1.36,2.56,1a1.38,1.38,0,0,0,.63-1.45C139.23,34.39,138.39,34.31,138,33.24Z"/><path class="cls-1" d="M150.25,21.86a1.21,1.21,0,0,0,1.75-.37,1.48,1.48,0,0,0-.44-2.11,1.33,1.33,0,0,0-1.74,0,1.47,1.47,0,0,0-.22,1.45A2,2,0,0,0,150.25,21.86Z"/><path class="cls-1" d="M169.32,34.57c-.73.75-1.34,1.73-2,1a3.91,3.91,0,0,1-.74-2.35,9.15,9.15,0,0,1,.76-4.41A13.68,13.68,0,0,0,168.37,27c.37-.82-2.18-.28-2.53.19l0,.05c-3-1.93-8.21.5-10.86,3.62a19.44,19.44,0,0,1-4.41,2.85c-1,.56-2.44.81-2.39-.34s.45-1.93,1.42-3.69c.52-1,1.36-2.39.68-3.52-.51-.85-1.45-.74-2.22-.46a12.22,12.22,0,0,0-5.83,4.75c-.53.78.13,1.74,1.1.72a26.28,26.28,0,0,1,3.26-3c.74-.53,1.74-.33,1.08.8a13.67,13.67,0,0,0-1.42,2.73c-.58,1.66-.85,4,.68,4.72,1.1.49,1.72.53,3.92-.91,1.65-1.08,2.54-1.66,2.51-1.44-.55,3.94,3.69,2.91,5.84,1.85a22.28,22.28,0,0,0,4.65-3.12,6.17,6.17,0,0,0,.74,3.52c1.73,2.89,5.75-.18,7.2-1.68C172.48,33.81,169.86,34,169.32,34.57Zm-9.07-1.24c-1.46,1.19-4.78,3.62-4.26,0a4.82,4.82,0,0,1,1-2.16,2.67,2.67,0,0,0,.22-.27c2-2.33,5.68-4.14,7.26-1.53A25.56,25.56,0,0,1,160.25,33.33Z"/><path class="cls-2" d="M102.64,55.31a1.93,1.93,0,0,1-.74.49,3.8,3.8,0,0,1,2,3.92c-.31,2.82-2.34,3.63-4.43,3.63A4.44,4.44,0,0,1,95.42,61a4.74,4.74,0,0,1,.41-4.39A3.47,3.47,0,0,1,98.62,55a2.42,2.42,0,0,1,.05-.45l-.23,0a5.27,5.27,0,0,0-3.93,1.9,5.61,5.61,0,0,0,.62,7.68,6.44,6.44,0,0,0,4,1.39h.35a6.29,6.29,0,0,0,4.34-1.73,5.42,5.42,0,0,0,1.6-4A5.35,5.35,0,0,0,102.64,55.31Z"/><path class="cls-3" d="M104.77,50.91a.86.86,0,0,0-.83-.49,4.3,4.3,0,0,0-1.69,1.08A16.09,16.09,0,0,0,101,52.9a7.91,7.91,0,0,0-.89,1.43c-.3-.56-.68-1.12-1.42-.88s-.52.94-.19,1.41a1.87,1.87,0,0,0-.53.19,1.17,1.17,0,0,0-.66,1.13.76.76,0,0,0,1,.56,1.75,1.75,0,0,0,.32-.1,1.92,1.92,0,0,0,0,.44,1.62,1.62,0,0,0,.76,1.28.9.9,0,0,0,1.25-.52,1.45,1.45,0,0,0,.12-.5,1.2,1.2,0,0,0,1.44.08A1,1,0,0,0,102.1,56l.16-.06a.91.91,0,0,0,.54-1,1,1,0,0,0-1-.55l0,0c.32-.3.63-.62,1-.92a3.29,3.29,0,0,0,.85-.91c.08-.17-.09-.4-.28-.31a4.4,4.4,0,0,0-1.1.89c-.33.31-.63.64-.94,1a2.87,2.87,0,0,0-.56.74l0,.07a1,1,0,0,0-.19.28.14.14,0,0,0,.17.19c.5-.11,1-.67,1.5-.25.25.21-.38.47-.72.61l-.19,0a.16.16,0,0,0-.12.25c.14.22.4.31.57.51s.2.45,0,.59c-.37.33-.91-.23-1.24-.52a.62.62,0,0,0-.22-.25.09.09,0,0,0-.12,0c-.11.18,0,.37,0,.57a2.14,2.14,0,0,1,0,.57c-.06.28-.26.69-.59.46a1.19,1.19,0,0,1-.45-.85,2,2,0,0,1,.23-.89,1,1,0,0,0,.13-.3.11.11,0,0,0-.14-.12c-.21.06-1.45,1.06-1.55.42,0-.28.24-.52.44-.65a1.51,1.51,0,0,1,.8-.2.14.14,0,0,0,.12-.18.22.22,0,0,0,0-.18c-.14-.23-.72-.87-.14-1s.79.62,1,.92a.16.16,0,0,0,.25,0h0a9.92,9.92,0,0,0,1.11-1.26,9.64,9.64,0,0,1,1.29-1.26,11.12,11.12,0,0,1,1-.76h0a2.25,2.25,0,0,1,.16.23.56.56,0,0,0,.46.3c.2,0,.79-.36.82-.58S104.87,51.06,104.77,50.91Z"/><path d="M69.71,61.44,70.8,62a5.92,5.92,0,0,1-1.23,1.69,4.91,4.91,0,0,1-1.58,1A5.51,5.51,0,0,1,66,65a4.79,4.79,0,0,1-3.83-1.61,5.42,5.42,0,0,1-1.38-3.63A5.36,5.36,0,0,1,62,56.38a4.79,4.79,0,0,1,4-1.9A4.94,4.94,0,0,1,70,56.43a5.43,5.43,0,0,1,1.11,3.43h-9a4.08,4.08,0,0,0,1.12,2.86,3.56,3.56,0,0,0,2.66,1.12,4.28,4.28,0,0,0,1.49-.27,3.92,3.92,0,0,0,1.23-.71A6,6,0,0,0,69.71,61.44Zm0-2.7A4.27,4.27,0,0,0,69,57.09a3.56,3.56,0,0,0-1.3-1A4,4,0,0,0,66,55.72a3.67,3.67,0,0,0-2.54.95,4.28,4.28,0,0,0-1.17,2.07Z"/><path d="M83.26,56.82l-1,.63a4.28,4.28,0,0,0-3.61-1.76,4.19,4.19,0,0,0-3,1.18,3.84,3.84,0,0,0-1.21,2.86,4.05,4.05,0,0,0,.56,2.06,3.9,3.9,0,0,0,1.53,1.5,4.62,4.62,0,0,0,5.78-1.23l1,.67a4.82,4.82,0,0,1-1.93,1.68,6.16,6.16,0,0,1-2.76.6,5.45,5.45,0,0,1-3.94-1.51,4.91,4.91,0,0,1-1.56-3.67,5.25,5.25,0,0,1,.73-2.7,5.16,5.16,0,0,1,2-1.95,5.86,5.86,0,0,1,2.86-.7,6.1,6.1,0,0,1,1.92.3,5.32,5.32,0,0,1,1.57.79A4.29,4.29,0,0,1,83.26,56.82Z"/><path d="M84.31,54.74h8.4v1.11H89.15v8.9H87.86v-8.9H84.31Z"/><path d="M129.2,54.74v10h-1.27V63a5.53,5.53,0,0,1-1.82,1.48,5.08,5.08,0,0,1-5.84-1,5.17,5.17,0,0,1-1.5-3.75,5.07,5.07,0,0,1,1.52-3.7,5,5,0,0,1,3.66-1.54,4.73,4.73,0,0,1,2.23.53,5.09,5.09,0,0,1,1.75,1.57V54.74Zm-5.15,1a3.89,3.89,0,0,0-3.43,2,4.06,4.06,0,0,0,0,4,3.94,3.94,0,0,0,1.46,1.5,3.81,3.81,0,0,0,2,.54,4,4,0,0,0,2-.53,3.75,3.75,0,0,0,1.46-1.44A4.13,4.13,0,0,0,128,59.8a4,4,0,0,0-1.14-2.91A3.79,3.79,0,0,0,124.05,55.73Z"/><path d="M138.94,59.94h-5.83v4.82h-1.29v-10h1.29v4h5.83v-4h1.29v10h-1.29Z"/><path d="M49.77,54.75H55c2.49,0,4.13,1.32,4.13,3.53,0,2.38-2,3.61-4.33,3.61H51V65H49.77Zm5.1,6c1.83,0,3-1,3-2.46s-1.18-2.39-3-2.39H51v4.85Z"/><path d="M107.62,54.75h5.26c2.49,0,4.13,1.32,4.13,3.53,0,2.38-2,3.61-4.33,3.61h-3.81V65h-1.24Zm5.1,6c1.83,0,3-1,3-2.46s-1.18-2.39-3-2.39h-3.92v4.85Z"/></svg>