<svg id="Layer_1" data-name="Layer 1" xmlns="http://www.w3.org/2000/svg" viewBox="0 0 190 76"><defs><style>.cls-1{fill:#e21270;}</style></defs><title>00_all_in_one_logos_partners</title><path class="cls-1" d="M106.47,35.28c-4.1-1-4.79-1.62-4.79-3,0-1.18,1.14-1.92,3-1.92a10.19,10.19,0,0,1,5.68,2.1l.18.12L113,28.89l-.16-.12A12.49,12.49,0,0,0,104.72,26C100.16,26,97,28.72,97,32.64c0,4.17,3,5.75,7.38,6.83,3.89.95,4.54,1.66,4.54,2.89s-1.37,2.14-3.33,2.14A9.48,9.48,0,0,1,99,41.79l-.17-.15L96,45.15l.15.14a13.93,13.93,0,0,0,9.28,3.54A9.09,9.09,0,0,0,111.29,47,6.27,6.27,0,0,0,113.57,42c0-3.41-2.19-5.48-7.1-6.71ZM56.9,39.17H54V30.72H56.9c3.18,0,5.24,1.64,5.24,4.18s-2,4.27-5.24,4.27Zm10-4.27a8.28,8.28,0,0,0-2.55-6.15,10.68,10.68,0,0,0-7.46-2.54H49.25v22.4H54v-5h3.89l3.75,5h5.56L62.4,42.15a7.45,7.45,0,0,0,4.51-7.25Zm49-4.18h6.9V48.61h4.76V30.72h6.9V26.21H115.9v4.51Zm30.84,13.59a6.91,6.91,0,1,1,6.65-6.91,6.79,6.79,0,0,1-6.65,6.91Zm0-18.32a11.42,11.42,0,1,0,11.42,11.42A11.43,11.43,0,0,0,146.74,26ZM81.91,44.31a6.91,6.91,0,1,1,6.65-6.91,6.79,6.79,0,0,1-6.65,6.91Zm0-18.32A11.42,11.42,0,1,0,93.33,37.41,11.43,11.43,0,0,0,81.91,26Zm88.33,13.08h-2.89V30.72h2.89c3.18,0,5.24,1.64,5.24,4.18s-2.06,4.18-5.24,4.18Zm5.81,3.18a8.14,8.14,0,0,0,4.2-7.35,8.28,8.28,0,0,0-2.55-6.15,10.68,10.68,0,0,0-7.46-2.54h-7.65v22.4h4.76v-5h3.75l3.61,5h5.93l-4.59-6.36ZM35.28,39.07H32.4V30.72h2.89c3.18,0,5.24,1.64,5.24,4.18s-2.06,4.18-5.24,4.18Zm0-12.86H27.63v22.4H32.4v-5h2.89A10.68,10.68,0,0,0,42.74,41a8.68,8.68,0,0,0,0-12.3,10.68,10.68,0,0,0-7.46-2.54Zm-20,16.22a6,6,0,1,0,6,6,6,6,0,0,0-6-6Z"/></svg>