<svg id="Layer_1" data-name="Layer 1" xmlns="http://www.w3.org/2000/svg" viewBox="0 0 300 120"><defs><style>.cls-1{fill:#e21118;}.cls-2{fill:#fff;}.cls-3{fill:#e20613;}</style></defs><title>Logo_Sparta_300-120px</title><rect class="cls-1" x="16.51" y="-0.03" width="269.06" height="120.37"/><path class="cls-2" d="M265.09,90.07c0,3.26-3.31,5.9-7.39,5.9H91.89c-4.08,0-7.39-2.64-7.39-5.9v-58c0-3.26,3.31-5.9,7.39-5.9H257.71c4.08,0,7.39,2.64,7.39,5.9v58Z"/><path class="cls-3" d="M140,48.76v2.07c0,5-2.11,7.24-6.68,7.24s-6.68-2.17-6.68-7.27V41.12c0-3.5,2-6.28,6.68-6.28S140,37.68,140,41.15v1.52H135v-2a1.76,1.76,0,0,0-1.8-1.73,1.57,1.57,0,0,0-1.68,1.64V51.64c0,1.67.66,2.35,1.68,2.35s1.8-.62,1.8-2.29V48.76H140Z"/><path class="cls-3" d="M155,41.12v10c0,4.43-2,7-6.65,7s-6.65-2.57-6.65-7v-10c0-3.5,2-6.25,6.68-6.25S155,37.65,155,41.12h0Zm-8.36-.37h0V52a1.73,1.73,0,1,0,3.42,0V40.75a1.71,1.71,0,1,0-3.42,0h0Z"/><polygon class="cls-3" points="162.03 53.34 165.25 53.34 165.25 35.33 170.19 35.33 170.19 53.34 171.25 53.34 171.25 62.13 166.42 62.13 166.42 57.55 157.09 57.55 157.09 35.33 162.03 35.33 162.03 53.34"/><rect class="cls-3" x="172.78" y="35.33" width="4.94" height="22.22"/><path class="cls-3" d="M189,35.33l4.54,22.22h-4.85L188,53.09h-3.77l-0.63,4.46h-4.91l4.45-22.22H189ZM187.33,49.1h0L186,39.32h0L184.7,49.1h2.62Z"/><path class="cls-3" d="M209.48,35.33V57.55h-4.94v-18h-3.25v7.64c0,8.42-1.43,10.61-4.77,10.61a5.74,5.74,0,0,1-2.65-.65V53.4a3,3,0,0,0,1.2.19c1.37,0,1.45-.9,1.45-7.77V35.33h13Z"/><path class="cls-3" d="M216.66,43.9h2.23c2.91,0,6,1.39,6,6.87,0,5.66-3.14,6.78-6,6.78h-7.16V35.33h4.94V43.9Zm0,9.65h0.86c1.43,0,2.43-.53,2.43-2.72s-1.11-2.94-2.34-2.94h-0.94v5.66Z"/><polygon class="cls-3" points="231.84 43.9 235.06 43.9 235.06 35.33 240 35.33 240 57.55 235.06 57.55 235.06 48.11 231.84 48.11 231.84 57.55 226.9 57.55 226.9 35.33 231.84 35.33 231.84 43.9"/><path class="cls-3" d="M251.32,35.33l4.54,22.22H251l-0.74-4.46H246.5l-0.63,4.46H241l4.45-22.22h5.91ZM249.61,49.1h0l-1.31-9.78h0L247,49.1h2.62Z"/><path class="cls-3" d="M159.09,65.07l4.54,22.22h-4.85L158,82.84h-3.77l-0.63,4.46h-4.91l4.45-22.22h5.91Zm-1.71,13.77h0l-1.31-9.78h0l-1.28,9.78h2.63Z"/><polygon class="cls-3" points="177.69 65.07 177.69 87.29 172.75 87.29 172.75 69.28 169.53 69.28 169.53 87.29 164.59 87.29 164.59 65.07 177.69 65.07"/><polygon class="cls-3" points="187.38 87.29 182.85 87.29 182.85 69.28 178.97 69.28 178.97 65.07 191.01 65.07 191.01 69.28 187.38 69.28 187.38 87.29"/><polygon class="cls-3" points="192.34 65.07 203.81 65.07 203.81 69.28 197.28 69.28 197.28 73.64 203.13 73.64 203.13 77.85 197.28 77.85 197.28 83.08 203.81 83.08 203.81 87.29 192.34 87.29 192.34 65.07"/><polygon class="cls-3" points="210.05 73.92 213.5 65.07 218.87 65.07 214.33 74.88 218.87 87.29 213.68 87.29 211.39 79.56 210.05 82.12 210.05 87.29 205.34 87.29 205.34 65.07 210.05 65.07 210.05 73.92"/><path class="cls-3" d="M229.19,65.07l4.54,22.22h-4.85l-0.74-4.46h-3.77l-0.63,4.46h-4.91l4.45-22.22h5.91Zm-1.71,13.77h0l-1.31-9.78h0l-1.28,9.78h2.62Z"/><path class="cls-3" d="M108,61.06A31.07,31.07,0,1,1,77,30,31.07,31.07,0,0,1,108,61.06h0Z"/><path class="cls-2" d="M77,99.39a38.33,38.33,0,1,1,38.33-38.33A38.37,38.37,0,0,1,77,99.39h0Z"/><path class="cls-3" d="M77,100.22a39.15,39.15,0,1,1,39.15-39.15A39.2,39.2,0,0,1,77,100.22h0Zm0-76.66h0a37.51,37.51,0,1,0,37.51,37.51A37.55,37.55,0,0,0,77,23.56h0Z"/><path class="cls-3" d="M69.2,84.64c-2.21,0-9,0-9-4.4,0-4.86,6.45-5.61,8.9-5.61,0.37,0,1.78,0,2.2,0V50.25c-2.73,1.26-3.7,1.41-4.19,1.41-1.76,0-3.21.25-4.53-.64a5.49,5.49,0,0,1-2.25-4.19c0-1.43,1.07-2.77,3.28-4.11l5-2.53,5.29-3a17.69,17.69,0,0,1,7.37-1.74c4,0,4.65,2.55,4.65,4.06,0,2.43-.15,5.89-0.44,10.29s-0.36,9.45-.43,18.8v5.84H87.2a8.3,8.3,0,0,1,4.63,1.25,4,4,0,0,1,2.06,3.44,4.66,4.66,0,0,1-2.06,4.27,8.29,8.29,0,0,1-4.63,1.25Z"/></svg>