<svg id="Layer_1" data-name="Layer 1" xmlns="http://www.w3.org/2000/svg" viewBox="0 0 190 76"><defs><style>.cls-1{fill:#0f65af;}.cls-1,.cls-2,.cls-3,.cls-4{fill-rule:evenodd;}.cls-2{fill:#221e20;}.cls-3{fill:#fbe900;}.cls-4{fill:#fff;}</style></defs><title>00_all_in_one_logos_partners</title><polygon class="cls-1" points="188.8 59.29 44.1 59.29 44.1 16.4 188.8 16.4 188.8 59.29 188.8 59.29"/><polygon class="cls-2" points="0.5 15.86 44.77 15.86 44.77 60.14 0.5 60.14 0.5 15.86 0.5 15.86"/><polygon class="cls-3" points="1.8 17.2 43.41 17.2 43.42 58.8 1.8 58.8 1.8 17.2 1.8 17.2"/><path class="cls-2" d="M22.63,43l13.31,13.3,5.19-5.2L27.84,37.84l2.58-2.58,0-5.2,1.86-1.85,0,4.28,1.79,1.8,6.51-6.51,1.74,1.75a11.62,11.62,0,0,0-3.41-8,5.58,5.58,0,0,0-8.13-.22L24.51,27.6l1.56,1.57-3.46,3.44-3.46-3.44,1.56-1.57-6.28-6.28a5.56,5.56,0,0,0-8.12.22,11.47,11.47,0,0,0-3.35,8l1.7-1.72,6.5,6.49L13,32.49V28.21l1.86,1.85v5.16l2.59,2.6L4.22,51l5.22,5.2L22.63,43h0Z"/><path class="cls-4" d="M52.58,21.67H57c3,0,3.83,2.08,3.83,3.53S60,28.73,57,28.73h-1.5v3.49h-3V21.67h0Zm3,4.75h0.84c1.31,0,1.45-.77,1.45-1.22S57.64,24,56.37,24H55.53v2.43h0Z"/><path class="cls-4" d="M70.57,24.94h2.54v7.29H70.57V31.36a2.88,2.88,0,0,1-2.38,1.13c-1.86,0-3.39-1.47-3.39-3.92,0-1.83,1-3.89,3.39-3.89a2.73,2.73,0,0,1,2.37,1.15V24.94h0Zm0.11,3.63a1.59,1.59,0,1,0-3.16,0,1.59,1.59,0,1,0,3.16,0h0Z"/><path class="cls-4" d="M80.45,24.94v3.9l2.64-3.9h2.53v7.29H83v-4l-2.6,4H77.81V24.94h2.64ZM79,22.3l1.71-.63a1.33,1.33,0,0,0,2.51,0L84.9,22.3a3.45,3.45,0,0,1-5.93,0h0Z"/><path class="cls-4" d="M94.1,32.32c-1.57,0-4.16-.6-4.16-3.75s2.58-3.75,4.16-3.73V21.67h2.64v3.17c1.58,0,4.16.6,4.16,3.73s-2.59,3.77-4.16,3.75v3.05H94.1V32.32h0Zm0.16-5.71a1.81,1.81,0,0,0-1.79,2,1.8,1.8,0,0,0,1.79,2v-4h0Zm2.31,4a1.8,1.8,0,0,0,1.79-2,1.81,1.81,0,0,0-1.79-2v4h0Z"/><path class="cls-4" d="M109,32.32c-1.57,0-4.16-.6-4.16-3.75s2.58-3.75,4.16-3.73V21.67h2.63v3.17c1.58,0,4.16.6,4.16,3.73s-2.6,3.77-4.16,3.75v3.05H109V32.32h0Zm0.16-5.71a1.82,1.82,0,0,0-1.8,2,1.81,1.81,0,0,0,1.8,2v-4h0Zm2.3,4a1.81,1.81,0,0,0,1.8-2,1.82,1.82,0,0,0-1.8-2v4h0Z"/><path class="cls-4" d="M125.55,24.94h2.53v7.29h-2.53V31.36a2.91,2.91,0,0,1-2.38,1.13c-1.86,0-3.39-1.47-3.39-3.92,0-1.83,1-3.89,3.39-3.89a2.74,2.74,0,0,1,2.38,1.15V24.94h0Zm0.11,3.63a1.58,1.58,0,1,0-3.15,0,1.58,1.58,0,1,0,3.15,0h0Z"/><path class="cls-4" d="M135.43,24.94v3.9l2.63-3.9h2.53v7.29H138v-4l-2.61,4h-2.56V24.94h2.64Zm-1.49-2.64,1.72-.63a1.32,1.32,0,0,0,2.49,0l1.72,0.63a3.45,3.45,0,0,1-5.93,0h0Z"/><path class="cls-4" d="M145,25.39a7.18,7.18,0,0,1,3.08-.71c1.12,0,3,.34,3,2a1.79,1.79,0,0,1-1.07,1.7v0a1.81,1.81,0,0,1,1.52,1.79c0,0.56-.37,2.25-3.39,2.25a6.91,6.91,0,0,1-3.37-.88l0.68-1.7a4.12,4.12,0,0,0,2.27.68c0.92,0,1.07-.46,1.07-0.71,0-.59-0.7-0.61-1.08-0.61h-1.14V27.68h1.29a0.72,0.72,0,0,0,.89-0.62c0-.62-0.73-0.67-1.06-0.67a3.87,3.87,0,0,0-2,.62L145,25.39h0Z"/><path class="cls-4" d="M163.42,30a3.82,3.82,0,0,1-3.92,2.49,3.75,3.75,0,0,1-4-3.92,3.71,3.71,0,0,1,4-3.89c3.47,0,4.07,2.85,4,4.49h-5.54a1.55,1.55,0,0,0,1.57,1.74,1.26,1.26,0,0,0,1.38-.9h2.54ZM161,27.73a1.46,1.46,0,0,0-1.48-1.49A1.48,1.48,0,0,0,158,27.73h3Z"/><polygon class="cls-4" points="167.84 24.93 170.48 24.93 170.48 27.5 172.9 27.5 172.9 24.93 175.55 24.93 175.55 32.22 172.9 32.22 172.9 29.31 170.48 29.31 170.48 32.22 167.84 32.22 167.84 24.93 167.84 24.93"/><path class="cls-4" d="M53.87,39.15H64.08l-0.42,3.32H57.33l-0.25,2.06h2.31a5.46,5.46,0,0,1,3.41.89A3.54,3.54,0,0,1,64,48.28a4.35,4.35,0,0,1-2,3.77,6.72,6.72,0,0,1-3.72.91H52.17l1.69-13.82h0Zm4.05,11.06a3,3,0,0,0,1.56-.31,1.34,1.34,0,0,0,.69-1.28,1.27,1.27,0,0,0-.46-1,2.56,2.56,0,0,0-1.45-.27H56.74l-0.35,2.91h1.53Z"/><path class="cls-4" d="M70.27,39.15H75L78.19,53H74.12l-0.48-2.39H69L67.85,53H63.66l6.61-13.82h0Zm-0.21,8.39h3.15l-1-5.1-2.15,5.1h0Z"/><polygon class="cls-4" points="80.74 39.15 84.6 39.15 83.99 44.12 88.69 44.12 89.3 39.15 93.17 39.15 91.47 52.97 87.6 52.97 88.28 47.43 83.58 47.43 82.91 52.97 79.04 52.97 80.74 39.15 80.74 39.15"/><polygon class="cls-4" points="98.56 44.95 103.43 39.15 107.98 39.15 101.89 45.94 106.42 52.97 101.76 52.97 98.31 47.02 97.58 52.97 93.71 52.97 95.39 39.15 99.27 39.15 98.56 44.95 98.56 44.95"/><path class="cls-4" d="M118,47.48h3.13l-1-5-2.13,5h0Zm0.2-8.32h4.67l3.2,13.7h-4l-0.46-2.38h-4.66l-1.11,2.38h-4.14l6.55-13.7h0Z"/><path class="cls-4" d="M133.42,44.56a2.7,2.7,0,0,0,1.33-.3,1.27,1.27,0,0,0,.6-1.17,1.08,1.08,0,0,0-.45-0.94,2.25,2.25,0,0,0-1.14-.26h-1.61l-0.33,2.67h1.61Zm-0.57,5.57a3.05,3.05,0,0,0,1.55-.29,1.39,1.39,0,0,0,.69-1.27,1.14,1.14,0,0,0-.45-1,2.54,2.54,0,0,0-1.43-.28h-1.72l-0.36,2.83h1.73Zm2.27-11a4.13,4.13,0,0,1,3,.92,2.85,2.85,0,0,1,.79,2.1,3.22,3.22,0,0,1-1.23,2.66,4.35,4.35,0,0,1-1.25.66v0a3.5,3.5,0,0,1,1.69.92,3.1,3.1,0,0,1,.78,2.18,3.92,3.92,0,0,1-1.16,2.86,5,5,0,0,1-3.8,1.37h-7l1.69-13.7h6.48Z"/><path class="cls-4" d="M144.71,47.48h3.14l-1-5-2.14,5h0Zm0.22-8.32h4.66l3.19,13.7h-4l-0.47-2.38h-4.66l-1.09,2.38h-4.17l6.57-13.7h0Z"/><path class="cls-4" d="M168.38,39.16l-1.68,13.7h-3.85l1.28-10.42h-2.75l-0.67,5.4a6.94,6.94,0,0,1-.93,3.14A5.16,5.16,0,0,1,155.12,53a6.09,6.09,0,0,1-1.59-.17l0.41-3.3a3,3,0,0,0,.9.15,1.86,1.86,0,0,0,1.68-.92,6.46,6.46,0,0,0,.51-2.07L158,39.16h10.42Z"/><path class="cls-4" d="M174.57,50.13a3,3,0,0,0,1.54-.3,1.36,1.36,0,0,0,.68-1.27,1.22,1.22,0,0,0-.45-1,2.46,2.46,0,0,0-1.44-.28h-1.52L173,50.13h1.53Zm-4-11h3.84l-0.67,5.35H176a5.35,5.35,0,0,1,3.38.87,3.52,3.52,0,0,1,1.24,2.84,4.3,4.3,0,0,1-2,3.74,6.62,6.62,0,0,1-3.71.9h-6.08l1.69-13.7h0Z"/><polygon class="cls-2" points="188.17 15.86 1.61 15.86 1.61 17.2 188.17 17.2 188.17 58.8 1.61 58.8 1.61 60.14 188.17 60.14 189.5 60.14 189.5 58.8 189.5 17.2 189.5 15.86 188.17 15.86 188.17 15.86"/></svg>