<?xml version="1.0" encoding="UTF-8"?>
<!-- Generator: Adobe Illustrator 18.0.0, SVG Export Plug-In . SVG Version: 6.00 Build 0)  -->
<!DOCTYPE svg PUBLIC "-//W3C//DTD SVG 1.1//EN" "http://www.w3.org/Graphics/SVG/1.1/DTD/svg11.dtd">
<svg version="1.1" id="Layer_1" xmlns="http://www.w3.org/2000/svg" xmlns:xlink="http://www.w3.org/1999/xlink" x="0px" y="0px" viewBox="429.5 472 141 56" enable-background="new 429.5 472 141 56" xml:space="preserve">
<g>
	<circle fill="#E5231B" cx="499.2" cy="500.4" r="23.1"/>
	<g>
		<path fill="#DADADA" d="M499.1,475.5c-13.8,0-24.9,11.2-24.9,24.9c0,13.8,11.2,24.9,24.9,24.9c13.8,0,24.9-11.2,24.9-24.9    C524,486.6,512.9,475.5,499.1,475.5z M499.1,524c-13.1,0-23.6-10.6-23.6-23.6s10.6-23.6,23.6-23.6c13.1,0,23.6,10.6,23.6,23.6    S512.2,524,499.1,524z"/>
	</g>
	<g>
		<path d="M507.1,495.1c-0.1-0.1-0.2-0.1-0.3-0.1c-0.1,0-0.2,0-0.2,0.1c0,0.2,0.6,0.2,0.6,0.6c0,0.3-0.2,0.4-0.5,0.4    c-0.1,0-0.2,0-0.3,0c0-0.1,0-0.2,0-0.3c0.1,0.1,0.2,0.1,0.3,0.1c0.1,0,0.2,0,0.2-0.1c0-0.2-0.6-0.3-0.6-0.6c0-0.2,0.2-0.4,0.5-0.4    c0.1,0,0.2,0,0.2,0C507.2,494.9,507.1,495,507.1,495.1z"/>
		<path d="M508.9,496c-0.1,0.1-0.2,0.1-0.4,0.1c-0.4,0-0.6-0.3-0.6-0.7c0-0.4,0.3-0.7,0.7-0.7c0.1,0,0.2,0,0.3,0c0,0.1,0,0.2,0,0.3    c-0.1-0.1-0.2-0.1-0.3-0.1c-0.3,0-0.4,0.2-0.4,0.5c0,0.3,0.2,0.5,0.4,0.5c0.1,0,0.2,0,0.3-0.1V496z"/>
		<path d="M510.4,496.1v-0.6h-0.6v0.6h-0.2v-1.3h0.2v0.5h0.6v-0.5h0.2v1.3H510.4z"/>
		<path d="M512.1,494.8c0.4,0,0.6,0.3,0.6,0.7c0,0.4-0.3,0.7-0.7,0.7s-0.6-0.3-0.6-0.7C511.4,495.1,511.7,494.8,512.1,494.8z     M512,495.9c0.3,0,0.4-0.2,0.4-0.5c0-0.2-0.1-0.5-0.4-0.5c-0.3,0-0.4,0.2-0.4,0.5C511.7,495.7,511.8,495.9,512,495.9z"/>
		<path d="M514,494.8c0.4,0,0.6,0.3,0.6,0.7c0,0.4-0.3,0.7-0.7,0.7c-0.4,0-0.6-0.3-0.6-0.7C513.4,495.1,513.6,494.8,514,494.8z     M514,495.9c0.3,0,0.4-0.2,0.4-0.5c0-0.2-0.1-0.5-0.4-0.5c-0.3,0-0.4,0.2-0.4,0.5C513.6,495.7,513.7,495.9,514,495.9z"/>
		<path d="M515.4,496.1v-1.3h0.2v1.1h0.5v0.2H515.4z"/>
	</g>
	<g>
		<path d="M489.4,495v1.1h-0.2V495h-0.4v-0.2h1v0.2C489.8,495,489.4,495,489.4,495z"/>
		<path d="M491.2,496.1v-0.6h-0.5v0.6h-0.2v-1.3h0.2v0.5h0.5v-0.5h0.2v1.3L491.2,496.1L491.2,496.1z"/>
		<path d="M492.2,496.1v-1.3h0.7v0.2h-0.5v0.4c0.1,0,0.2,0,0.3,0h0.2v0.2h-0.4v0.4h0.5v0.2L492.2,496.1L492.2,496.1z"/>
	</g>
	<g>
		<path d="M494.8,496.1v-1.3h0.7v0.2H495v0.3c0.1,0,0.2,0,0.3,0h0.2v0.2H495v0.4h0.5v0.2L494.8,496.1L494.8,496.1z"/>
		<path d="M497.1,496.1c0,0-0.2-0.2-0.2-0.3l-0.5-0.7l0,0c0,0.1,0,0.4,0,0.6v0.3h-0.2v-1.3h0.3l0.6,0.9l0,0c0-0.1,0-0.4,0-0.6v-0.3    h0.2v1.3H497.1z"/>
		<path d="M499.1,496c-0.1,0-0.2,0.1-0.4,0.1c-0.4,0-0.6-0.3-0.6-0.7c0-0.4,0.3-0.7,0.7-0.7c0.1,0,0.2,0,0.3,0c0,0.1,0,0.2,0,0.3    c-0.1-0.1-0.2-0.1-0.3-0.1c-0.3,0-0.4,0.2-0.4,0.5c0,0.3,0.2,0.5,0.4,0.5c0,0,0.1,0,0.1,0v-0.5h0.2L499.1,496L499.1,496z"/>
		<path d="M499.9,496.1v-1.3h0.2v1.1h0.5v0.2H499.9z"/>
		<path d="M501.4,496.1v-1.3h0.2v1.3H501.4z"/>
		<path d="M503.1,495.1c-0.1-0.1-0.2-0.1-0.3-0.1c-0.1,0-0.2,0-0.2,0.1c0,0.2,0.6,0.2,0.6,0.6c0,0.3-0.2,0.4-0.5,0.4    c-0.1,0-0.2,0-0.3,0c0-0.1,0-0.2,0-0.3c0.1,0.1,0.2,0.1,0.3,0.1c0.1,0,0.2,0,0.2-0.1c0-0.2-0.6-0.3-0.6-0.6c0-0.2,0.2-0.4,0.5-0.4    c0.1,0,0.2,0,0.2,0C503.1,494.9,503.1,495,503.1,495.1z"/>
		<path d="M504.7,496.1v-0.6h-0.5v0.6h-0.2v-1.3h0.2v0.5h0.5v-0.5h0.2v1.3H504.7z"/>
	</g>
	<g>
		<g>
			<path fill="#FDFDFC" d="M484.6,503.1c-0.9,0-1.9-0.4-2.7-1.2l0.3-1.7c1.1,0.9,2,1,2.4,1c0.3,0,0.7-0.3,0.7-0.7     c0-1.1-3.5-1-3.5-3.8c0-1.5,1.4-2.6,3-2.6c0.9,0,1.9,0.5,2.7,1.3l-0.7,1.4c-0.9-0.8-1.5-0.8-1.9-0.8c-0.4,0-0.7,0.3-0.7,0.6     c0,1.1,3.5,1,3.5,3.7C487.7,502.1,486.1,503.1,484.6,503.1z"/>
			<path fill="#FDFDFC" d="M495,499.4c0,1.2-1.4,2.2-3,2.2c-0.2,0-1.1,0-1.1,0v1.4h-2v-5.9h3.2C493.6,497.1,495,498.1,495,499.4z      M492.9,499.4c0-0.5-0.6-0.9-1.3-0.9c-0.1,0-0.9,0-0.9,0v1.8h0.9C492.3,500.2,492.9,499.8,492.9,499.4z"/>
			<path fill="#FDFDFC" d="M496.1,497.1h4.5v1.4h-2.5v0.8h2.5v1.4h-2.5v0.9h2.5v1.4h-4.5V497.1z"/>
			<path fill="#FDFDFC" d="M504.1,503h-2v-2.8c0-2.1,1.3-3.3,2.9-3.3c1.6,0,2.9,1.1,2.9,3.3v2.8h-2v-1.4h-1.8V503z M505.8,499.8     c0-0.8-0.4-1.3-0.9-1.3s-0.9,0.5-0.9,1.3v0.4h1.8V499.8z"/>
			<path fill="#FDFDFC" d="M511.4,503h-2v-5.9h2v2.3l2.3-2.3h2.4l-2.8,2.8l3.1,3.1h-2.5l-2.4-2.4V503L511.4,503z"/>
		</g>
	</g>
	<g>
		<g>
			<path d="M504.8,512.8c-1.6,0-2.9-1.2-2.9-3.5v-4.7h2.1v5.1c0,0.9,0.4,1.3,0.9,1.3s0.9-0.5,0.9-1.3v-5.1h2.1v4.7     C507.8,511.6,506.4,512.8,504.8,512.8z"/>
			<path d="M515.8,507.4c0,1.5-1.4,2.7-3.1,2.7c-0.2,0-1.2,0-1.2,0v2.7h-2.1v-8h3.3C514.4,504.7,515.8,505.9,515.8,507.4z      M513.7,507.4c0-0.7-0.6-1.3-1.3-1.3c-0.1,0-0.9,0-0.9,0v2.7h0.9C513.1,508.7,513.7,508.1,513.7,507.4z"/>
		</g>
	</g>
</g>
</svg>