<?xml version="1.0" encoding="UTF-8"?>
<!-- Generator: Adobe Illustrator 21.1.0, SVG Export Plug-In . SVG Version: 6.00 Build 0)  -->
<svg version="1.1" id="Layer_1" xmlns="http://www.w3.org/2000/svg" xmlns:xlink="http://www.w3.org/1999/xlink" x="0px" y="0px" viewBox="0 0 190 76" style="enable-background:new 0 0 190 76;" xml:space="preserve">
<style type="text/css">
	.st0{fill-rule:evenodd;clip-rule:evenodd;fill:#000404;}
</style>
<g>
	<path class="st0" d="M30.6,19.3V41c0,7.2-3.2,10.2-10.7,10.2c-7.5,0-10.7-3-10.7-10.2V18.4H2c-0.6,0-0.9,0.3-0.9,0.9v22   c0,12.1,7.7,16.3,18.9,16.3c11.2,0,18.9-4.2,18.9-16.3V18.4h-7.2C30.9,18.4,30.6,18.7,30.6,19.3"/>
	<path class="st0" d="M135.3,24.7c0.6,0,0.9-0.2,1.1-0.6l2.1-5.2c0.1-0.3,0-0.5-0.3-0.5H109c-2.7,0-3.7,0.8-3.7,2.7v33.6   c0,1.6,0.8,2.3,2.9,2.3h27.1c0.6,0,0.9-0.2,1.1-0.6l2.1-5.2c0.1-0.3,0-0.5-0.3-0.5h-24.8v-6.8c0-2.4,1.3-3.4,4.8-3.4h10.8   c0.6,0,0.9-0.2,1.1-0.6l2-5c0.1-0.3,0-0.5-0.3-0.5h-18.3v-9.7H135.3z"/>
	<path class="st0" d="M84.1,36.6L84.1,36.6c3.2-1.7,4.5-4.8,4.5-8.4c0-8.5-6.9-9.8-14.1-9.8H58c-2.7,0-3.7,0.8-3.7,2.7v33.6   c0,1.6,0.8,2.3,2.9,2.3h20.2c7.6,0,13.1-3,13.1-10.7C90.4,41.7,88.4,37.8,84.1,36.6 M62.3,24.6L62.3,24.6H75c4.3,0,5.4,1.6,5.4,4.9   c0,3.3-1.2,4.9-5.4,4.9H62.3V24.6z M76.5,50.7H62.3v-7.1c0-2.4,1.3-3.4,4.8-3.4h9.4c4.5,0,5.8,1.7,5.8,5.3   C82.3,49.1,81.1,50.7,76.5,50.7z"/>
	<path class="st0" d="M188.8,56.3L188.8,56.3l-8.6-14.8c4.3-1.1,7.8-3.9,7.8-11.2c0-9.3-5.8-11.9-15.4-11.9h-16.5   c-2.7,0-3.7,0.8-3.7,2.7V56c0,0.6,0.3,0.9,0.9,0.9h7.1V45.7c0-2.4,1.3-3.4,4.8-3.4h7.1l7.8,14c0.2,0.4,0.5,0.6,1.1,0.6h7.3   C189,56.9,189,56.5,188.8,56.3 M173.7,36.3h-13.4V24.6h13.4c5,0,6.1,1.9,6.1,5.8C179.9,34.4,178.8,36.3,173.7,36.3z"/>
</g>
</svg>